<?xml version="1.0" encoding="utf-8"?>
<!-- Generator: Adobe Illustrator 16.0.0, SVG Export Plug-In . SVG Version: 6.00 Build 0)  -->
<!DOCTYPE svg PUBLIC "-//W3C//DTD SVG 1.1//EN" "http://www.w3.org/Graphics/SVG/1.1/DTD/svg11.dtd">
<svg version="1.1" id="Contours" xmlns="http://www.w3.org/2000/svg" xmlns:xlink="http://www.w3.org/1999/xlink" x="0px" y="0px"
	 width="193.855px" height="291.631px" viewBox="0 0 193.855 291.631" enable-background="new 0 0 193.855 291.631"
	 xml:space="preserve">
<desc  xmlns:shape="http://adobe.com/products/shape">
	<shape:version>1.0</shape:version>
	<shape:captureDetail>1.000000</shape:captureDetail>
	<shape:sourceImage></shape:sourceImage>
	<shape:source>0</shape:source>
	<shape:platformVersion>shape-android-1.2</shape:platformVersion>
</desc>
<path fill="#FFFFFF" stroke="#FFFFFF" stroke-linecap="round" stroke-linejoin="round" d="M105.813,229.271
	c-4.687-2.426-5.236-8.818-5.127-14.109c0-2.15,0.056-4.3,0.11-6.449c0-2.205,0.33-4.795,2.314-5.732
	c-0.44-2.038-0.883-4.134-1.322-6.173c-0.166-1.544,0.439-3.143,1.653-4.188c-0.938-9.756-0.606-19.679,1.047-29.323
	c1.764-0.44,2.812,1.984,3.031,3.804c2.591,20.614,2.756,41.56,0.496,62.229c26.952,0.439,53.961-4.521,79.04-14.441
	c3.196-1.268,6.56,2.426,6.283,5.843c-0.275,3.419-2.812,6.175-5.347,8.488c-20.56,18.906-48.119,27.78-72.592,41.229
	c-3.252,1.818-6.56,3.748-8.765,6.725c-2.204,2.977-3.031,7.275-1.156,10.418c-3.196,3.031-7.992,4.244-12.292,3.143
	c1.379-6.891-2.922-13.614-7.882-18.575c-12.788-12.732-30.37-19.017-45.527-28.771c-12.071-7.827-22.488-17.857-32.631-28.056
	c-2.756-2.756-5.621-5.678-6.448-9.48c-0.882-3.804,1.213-8.487,5.07-8.983c3.031,7.771,11.244,12.07,19.017,15.323
	c20.449,8.543,42.056,14.439,64.048,17.473C94.512,230.429,100.355,231.035,105.813,229.271 M55.821,226.46
	c-2.536,0.386-5.236-0.221-7.441-1.709c-0.275,0.662-0.386,1.434-0.221,2.15c2.314,0.329,4.63,0.716,6.944,1.212
	c0.718,0,1.434,0,2.149,0.056c2.756,2.866,6.614,4.685,10.583,4.905c-0.11-1.269,0.33-2.591,1.213-3.583
	c-4.023,0.496-8.213-0.992-11.079-3.804c-0.605,0.33-0.882,1.157-0.717,1.818c-0.827,0-1.653,0-2.48,0
	C55.103,227.121,55.49,226.791,55.821,226.46 M16.576,215.491c-0.606,0.386-1.157,0.717-1.765,1.103
	c1.819,1.157,3.639,2.37,5.457,3.527c1.93,1.268,4.023,2.756,4.686,4.961c-0.551,0.165-1.047,0.331-1.599,0.496
	c0.387,0.274,0.938,0.331,1.379,0.274c0.274,0.387,0.329,0.883,0.274,1.378c0.386,0.275,0.938,0.387,1.378,0.275
	c0.222,0.552,0.386,1.103,0.551,1.654c1.435-0.057,2.866,0.882,3.309,2.204c0.771,0,1.488,0,2.204,0
	c0.387-1.104,1.378-2.149,2.536-2.149c1.156,0,2.203,1.488,1.433,2.426c0.992,0.056,1.819,0.938,1.874,1.874
	c-1.104-0.221-2.204-0.44-3.307-0.662c1.599,1.104,2.865,2.592,3.582,4.354c2.204,0.992,4.739,1.213,7.109,0.717
	c0.386,0.551-0.165,1.433-0.826,1.378c1.322,0.44,2.426,1.378,3.086,2.591c1.104-0.221,2.096-0.771,2.866-1.544
	c-0.882,0.166-0.937-1.652-0.055-1.487c-0.882,0-0.771-1.765,0.11-1.653c-1.874-1.488-2.923-3.969-2.701-6.395
	c0.109-1.048-0.826-2.039-1.93-2.26c-1.048-0.274-2.148-0.056-3.196,0.221c-0.165-0.661-0.33-1.269-0.496-1.873
	c-0.33,0.604-1.378,0.716-1.818,0.108c0.938-0.992,2.37-1.543,3.748-1.487c-0.662-0.44-1.268-0.883-1.93-1.322
	c0.552-0.331,1.048-0.661,1.599-0.992c-1.268,0.109-2.205-0.938-3.252-1.653c-0.992-0.662-2.701-0.938-3.197,0.165
	c0.772,0.221,1.488,0.386,2.261,0.606c-0.605,1.652-1.269,3.307-1.874,5.016c-1.543,0.496-3.308-0.882-3.196-2.425
	c0.717,0.165,1.378-0.827,0.937-1.378c-1.321-1.766-4.408-1.819-5.731-0.057c0.552,0,1.048,0.496,0.992,1.049
	c-1.269,0.22-2.535-0.057-3.639-0.718c-2.148-1.322-3.638-4.134-6.173-4.134c0.11-0.44,0.221-0.938,0.275-1.378
	c-1.269,0.055-2.37-1.213-2.26-2.479C18.339,216.429,16.465,216.648,16.576,215.491 M62.986,235.444
	c1.047,0.164,2.039,0.274,3.03,0.386c0.222,0.938,0.387,1.818,0.606,2.756c0.938-0.606,2.148-0.717,3.142-0.275
	c-0.605,0.661-1.487,1.047-2.37,1.104c1.158,0.717,2.536,1.047,3.914,0.992c0,0.937,0,1.874,0,2.811
	c-0.882,0.331-1.93,0.386-2.865,0.166c-1.984-3.197-5.126-5.732-8.654-7.11c-0.661,0-1.322,0-1.929,0
	c-1.323-1.765-2.149-3.857-2.261-6.009c-1.544-0.22-3.142,0.388-4.134,1.544c1.488,1.765,2.204,4.079,1.984,6.283
	c2.039,0.275,3.691,2.315,3.472,4.354c0.552,0,1.213,0,1.599,0.386c0.387,0.386,0.222,1.268-0.329,1.213
	c0.99,0.221,2.534-0.056,2.313-1.104c0.827,0.222,1.653,0.441,2.48,0.661c-0.441,2.315,0.439,4.796,2.148,6.395
	c3.748,3.361,10.197,1.983,14,5.347c-0.439,0.552-0.882,1.104-1.322,1.654c1.322,0.055,2.149,1.929,1.269,2.921
	c1.322-0.496,2.591-0.992,3.913-1.435c-0.771-0.495-1.653-0.99-1.929-1.874c-0.331-0.882,0.386-2.094,1.268-1.874
	c-0.992-0.439-2.039-0.882-3.031-1.321c-0.166-0.553-0.109-1.157,0.109-1.709c-2.094-1.709-4.299-3.308-6.504-4.852
	c4.135,0.386,8.322,0.717,12.513,1.104c0.109,0.827,0.165,1.599,0.275,2.426c-1.104,0.604-2.261,1.268-3.362,1.929
	c2.479-0.055,5.016-0.109,7.496-0.221c-0.882-0.11,0.331-1.268,1.157-1.047c2.04,0.386,4.079,0.827,6.117,1.268
	c1.214,1.765-2.26,3.858-1.599,5.953c0.496,1.653,2.922,1.434,4.521,0.882c2.976-0.991,5.896-2.04,8.873-3.03
	c-1.322-0.553-2.039-2.15-1.599-3.474c3.253-1.378,5.952-4.023,7.44-7.275c1.709-0.496,2.922-2.37,2.701-4.078
	c-2.315,0.716-4.905,0.716-7.221,0c1.378-0.275,2.7-0.552,4.078-0.827c-1.322-0.275-2.646-0.496-3.914-0.717
	c1.6-0.552,3.253-1.103,4.906-1.599c-3.969,0.716-7.883,1.488-11.796,2.204c-1.212,0.221-3.086-0.165-2.756-1.322
	c-0.661,0.826-1.708,1.269-2.756,1.157c0.166,1.874-1.708,3.583-3.527,3.308c-0.551,1.378-1.433,2.646-2.646,3.583
	c-1.213,0.44-2.479,0.938-3.748,1.378c0.056-1.269-0.826-2.48-2.039-2.866c1.213-0.771,3.031-0.386,3.804,0.771
	c0.165-1.708,0.882-3.417,1.983-4.795c0.44-1.543-0.44-3.308-1.874-3.913c-1.487-0.605-3.308,0.056-4.134,1.434
	c0.606,0.771-0.275,2.095-1.213,1.874c1.213,0.44,1.874,1.983,1.378,3.196c-1.874-0.661-3.473-2.04-4.299-3.857
	c-0.772-0.661,0.496-1.764,1.488-1.984c-1.048-1.93-3.309-3.087-5.514-2.866c-0.22-0.771-0.055-1.652,0.387-2.26
	c-1.874-1.323-4.409-1.652-6.56-0.771c1.047,1.433,2.812,2.313,4.63,2.26c-0.386,0.771,0.165,1.818,0.992,1.874
	c-0.221,1.764-1.213,3.417-2.646,4.465c0.386-2.479-1.653-4.851-4.023-5.731C68.056,234.452,65.466,234.838,62.986,235.444
	 M157.459,244.098c3.804-2.26,6.726-5.843,8.213-9.921c1.323,0.055,2.592-0.496,3.804-1.048c5.731-2.535,11.905-5.566,14.552-11.244
	c-0.882-0.826-2.425-0.882-3.362-0.11c-3.857,4.74-10.638,6.892-16.535,5.292c-0.717,3.583-4.686,6.118-8.213,5.236
	c0.275-1.599,1.157-3.087,2.425-4.134c-5.951,1.103-11.96,2.204-17.913,3.307c0.056,2.205-1.543,4.41-3.692,4.74
	c-2.204,0.386-4.521-1.543-4.354-3.748c-4.573,1.213-9.204,2.095-13.89,2.646c1.268,1.378,3.142,2.095,5.016,1.983
	c0.992,4.852-2.37,9.37-5.565,13.174c-2.426,2.866-4.852,5.787-7.331,8.653c-7.661,0.938-15.104,3.527-21.606,7.661
	c2.813,0.386,5.622,0.772,8.488,1.158c-1.104,1.598-0.661,4.022,0.882,5.181c2.479-3.583,4.906-7.165,7.331-10.748
	c0.771-1.156,2.866-2.148,3.196-0.827c-0.605,1.214,0.056,2.592,0.109,3.914c0,1.322-1.599,2.812-2.479,1.818
	c-0.33,1.434,2.205,0.938,3.087-0.165c1.157-1.433,2.26-2.811,3.417-4.189c0.11-1.378,0.276-2.811,0.387-4.188
	c3.968,2.811,10.473,0,11.134-4.796c1.322-0.275,2.646-0.551,3.97-0.826c-0.496,1.433-0.938,2.866-1.378,4.299
	c3.03-1.543,6.282-2.535,9.646-2.921c-1.103-1.213-2.701-2.039-4.354-2.205c2.591-0.055,5.181-0.165,7.771-0.275
	c-1.652-1.487-2.646-3.638-2.811-5.843c1.047-0.439,2.26-0.439,3.252,0c0.22,2.205,1.378,4.354,3.142,5.732
	c1.929-1.378,3.527-3.196,4.521-5.347c1.268,0.166,2.479,0.991,3.142,2.095c0.827-0.992,1.709-1.984,2.535-2.978
	c-2.314-0.496-3.857-3.142-3.252-5.456c0.662-2.261,3.418-3.692,5.622-2.865C156.743,239.468,157.128,241.783,157.459,244.098
	 M94.073,235.776c1.047,0.716,2.095,1.433,3.087,2.094c1.652-0.275,1.983-2.756,0.826-3.969s-3.031-1.322-4.686-1.048
	c-0.386,0.057-0.771,0.11-1.048,0.441c0.606,0.826,1.268,1.708,1.874,2.591 M24.347,217.476c0.938,1.157,2.314,2.039,3.748,2.427
	c0,0.882,0.661,1.764,1.543,1.929c1.653-0.827,3.474-1.213,5.291-1.104c-1.929-0.165-3.526-1.543-5.126-2.591
	C28.151,217.145,26.002,216.373,24.347,217.476 M101.569,234.948c-0.552,0.274,0,1.322,0.551,0.991
	c-0.496,0.44-1.269,0.552-1.874,0.331c0.166,0.661-0.22,1.378-0.882,1.599c0.938-0.11,1.874-0.165,2.812-0.275
	c1.212-0.055,2.48-0.221,3.417-0.992c0.938-0.716,1.269-2.37,0.331-3.142C104.49,232.303,102.009,233.185,101.569,234.948
	 M81.505,263.224c-0.221-0.439-0.44-0.882-0.661-1.322c-1.047-0.495-2.148-0.938-3.252-1.434c0.221-0.33,0.44-0.661,0.661-0.937
	c-0.882-0.165-1.818-0.057-2.646,0.274c1.6,3.031,4.905,5.126,8.323,5.236C83.434,264.161,82.552,263.444,81.505,263.224
	 M101.128,277.83c-2.204,1.378-3.086,4.575-1.874,6.891c0.386-0.221,0.827-0.496,1.213-0.717
	C100.686,281.964,100.908,279.87,101.128,277.83 M80.347,233.791c0.992,0.551,1.93,1.157,2.921,1.764
	c1.104,0.661,2.701-0.386,2.592-1.653c-0.165-1.213-1.984-1.873-2.866-0.991c0.552-0.057,1.103,0.496,0.992,1.047
	C82.772,233.901,81.56,233.846,80.347,233.791 M99.088,276.894c0.275-1.213,0.771-2.37,1.488-3.361
	c-0.827-0.771-2.37,0.717-1.6,1.599c-0.551,0.221-1.103,0.386-1.652,0.606c0.055,0.771,0.827,1.378,1.543,1.268"/>
<path fill="#FFFFFF" stroke="#FFFFFF" stroke-linecap="round" stroke-linejoin="round" d="M109.12,16.072
	c0.552-1.379,2.922-0.332,3.087,1.213c-1.047,0.496-2.479-0.055-2.922-1.158"/>
<path fill="#FFFFFF" stroke="#FFFFFF" stroke-linecap="round" stroke-linejoin="round" d="M132.6,248.177
	c-0.11,0.661-0.938,1.104-1.488,0.771c-0.33-0.552-0.386-1.269-0.275-1.874c1.047-0.44,2.315-0.44,3.362,0
	c-0.165,0.717-0.992,1.156-1.599,0.882"/>
<path fill="#FFFFFF" stroke="#FFFFFF" stroke-linecap="round" stroke-linejoin="round" d="M130.837,254.901
	c-0.439,0.056-0.937,0.165-1.378,0.222c-0.274-0.441-0.331-0.992-0.274-1.488c0.771-0.056,1.321-0.882,1.103-1.599
	c0.386-0.275,0.938-0.387,1.433-0.275c0,1.047-0.386,2.094-1.103,2.812"/>
<path fill="#FFFFFF" stroke="#FFFFFF" stroke-linecap="round" stroke-linejoin="round" d="M158.175,234.728
	c0.992-0.717,2.261-1.103,3.474-1.047c-0.771,1.764-3.143,2.646-4.905,1.818c0.33-0.44,0.826-0.716,1.378-0.826"/>
<path fill="#FFFFFF" stroke="#FFFFFF" stroke-linecap="round" stroke-linejoin="round" d="M98.977,252.09
	c1.049,0.552,2.149,1.103,3.197,1.599c0,0.771,0,1.488,0,2.205c-0.605,0.606-1.874,0.056-1.874-0.827
	c-0.771,0.553-1.818,0.606-2.646,0.165c0.937-0.604,1.433-1.817,1.212-2.921"/>
<path fill="#FFFFFF" stroke="#FFFFFF" stroke-linecap="round" stroke-linejoin="round" d="M76.93,240.239
	c0.221-1.322,2.7-1.103,2.646,0.275c-0.552,0.165-1.104,0.33-1.653,0.496c0.496,0.275,1.103,0.386,1.653,0.33
	c-0.331,1.544-2.205,2.591-3.748,2.04c0-1.103,0.274-2.205,0.771-3.143"/>
<path fill="#FFFFFF" stroke="#FFFFFF" stroke-linecap="round" stroke-linejoin="round" d="M72.962,246.026
	c-0.496,0.11-0.938,0.275-1.434,0.387c0.882,1.378,1.322,3.031,1.213,4.63c-0.331,0-0.661-0.056-0.938-0.11
	c-1.544-0.771-3.143-1.709-3.804-3.252c-0.661-1.599,0.386-3.857,2.095-3.692c0.882,0.056,1.984,0.717,2.535,0
	C73.016,244.539,73.128,245.311,72.962,246.026"/>
<path fill="#FFFFFF" stroke="#FFFFFF" stroke-linecap="round" stroke-linejoin="round" d="M146.821,232.743
	c-0.275-0.717,0.992-0.938,1.709-0.605c0,0.551-0.496,1.103-1.048,1.047c0.662,0.826,1.599,1.434,2.591,1.709
	c-0.44,0.496-0.165,1.322,0.165,1.874c-2.26,0.275-4.686-0.605-6.173-2.37c-0.551-0.717-1.157-1.434-1.709-2.149
	c1.322-0.716,3.142-0.386,4.134,0.771"/>
<path fill="#FFFFFF" stroke="#FFFFFF" stroke-linecap="round" stroke-linejoin="round" d="M44.025,230.208
	c-0.222,3.031,2.204,5.953,5.182,6.283c-2.48-0.33-5.788-0.165-6.449,2.26c-2.425-1.268-3.417-4.244-3.417-7
	C40.608,230.649,42.316,230.098,44.025,230.208"/>
<path fill="#FFFFFF" stroke="#FFFFFF" stroke-linecap="round" stroke-linejoin="round" d="M141.695,242.555
	c0.605,0.44,1.157,0.882,1.764,1.323c-0.826-0.11-1.652,0.439-1.929,1.268c-0.717,0.33-1.435-0.496-1.819-1.213
	c-0.274,0.882-1.433,1.378-2.26,0.992c0.331-0.386,0.717-0.827,1.103-1.213c-0.938-0.165-1.268-1.653-0.552-2.204
	c0.166-2.04,1.766-3.914,3.748-4.354c-0.165,0.716-0.386,1.378-0.551,2.094c0.882-0.496,1.819-0.992,2.701-1.488
	C144.34,239.578,143.348,241.673,141.695,242.555"/>
<path fill="#FFFFFF" stroke="#FFFFFF" stroke-linecap="round" stroke-linejoin="round" d="M99.143,251.483
	c-0.221,0.772-1.269,1.158-1.93,0.718c0.331-0.718-0.771-1.104-1.543-0.992c0.22-1.104-0.331-2.26-1.323-2.756
	c1.047-0.386,1.819-1.488,1.819-2.591c0.826-0.275,1.764-0.056,2.37,0.495c-0.221-0.771,0.992-1.047,1.764-0.882
	c1.378,0.222,2.756,0.441,4.134,0.662c-0.109,0.551-0.882,0.938-1.434,0.605c-0.33,0.826-0.44,1.709-0.275,2.535
	c0.553,0.222,1.104,0.387,1.653,0.552c-0.33,0.938-0.275,1.983,0.056,2.866c-0.991,0.056-2.039,0.164-3.03,0.221
	C101.624,251.925,100.191,251.429,99.143,251.483"/>
<path fill="#FFFFFF" stroke="#FFFFFF" stroke-linecap="round" stroke-linejoin="round" d="M124.168,248.177
	c1.047-0.109,1.874-1.213,1.708-2.205c0.552-0.221,1.104-0.386,1.6-0.551c0.274-0.827,0.331-1.764,0.165-2.591
	c1.103-1.269,1.653-2.978,1.487-4.63c1.378-0.275,2.813-0.331,4.189-0.222c0.605,0.662,0,1.984-0.882,1.931
	c1.321,0.882,1.874,2.756,1.268,4.244c-0.661,1.433-2.479,2.313-4.022,1.873c-1.488-0.44-0.606,3.582-2.149,3.474
	c0.165,0.495,0.826,0.771,1.322,0.661c0.44,0.274,0.221,1.047-0.275,1.268s-1.047,0.11-1.599-0.055
	c-0.882-0.221-1.765-0.496-2.646-0.717C125.379,250.657,124.939,248.894,124.168,248.177"/>
<path fill="#FFFFFF" stroke="#FFFFFF" stroke-linecap="round" stroke-linejoin="round" d="M123.286,81.002
	c3.527-0.221,7.055-0.992,10.527-0.331c3.473,0.662,6.944,3.474,6.778,7c-0.109,2.976-2.699,6.173-0.991,8.654
	c0.882,1.268,0.056,3.196-1.269,3.969c-1.378,0.826-3.031,0.826-4.575,0.826c-4.134,0-8.212-0.056-12.346-0.056
	c-3.252,0-6.614,0-9.591,1.322c-3.032,1.379-5.457,4.41-5.071,7.662c0.386,6.779,0.717,13.614,1.048,20.394
	c0.387,7.827-4.354,15.931-1.487,23.205c1.543,3.804-5.348,5.787-6.283,9.813c-0.772,3.196,2.425,7.33-0.057,9.479
	c0.221,3.474,0.441,6.945,0.661,10.418c-0.937,1.269-1.874,2.535-2.811,3.858c1.652,0.496,1.599,2.977,0.66,4.465
	c-0.882,1.434-2.26,2.865-2.038,4.63c1.047,9.426-0.222,19.126-3.748,27.944c-1.104,2.756-4.079,5.897-6.395,4.024
	c4.354-39.575,8.708-79.206,13.063-118.837c0.44-3.969-3.804-7-7.771-7.605c-3.968-0.606-8.047,0.221-11.961-0.717
	c-3.913-0.992-7.661-4.852-6.229-8.6c0.882-2.425-2.204-4.409-4.74-4.629c-2.535-0.221-5.512,0.11-7.165-1.818
	c9.866-6.229,22.213-8.488,33.678-6.174c2.204,0.441,4.464-1.268,5.347-3.361c0.938-2.04,0.826-4.41,0.771-6.725
	c-0.275-5.732-0.496-11.521-0.717-17.253c-4.961-1.378-10.197-2.921-13.669-6.725c-3.693-4.022-4.687-10.031-3.693-15.488
	c0.938-5.401,3.583-10.362,6.395-15.047c4.63-7.771,11.904-16.205,20.778-14.606c5.513,0.992,9.592,5.732,12.236,10.639
	c3.693,6.834,5.567,14.882,3.914,22.433c-1.654,7.606-7.276,14.496-14.771,16.479c-1.269,0.332-2.646,0.552-3.527,1.544
	c-1.104,1.102-1.157,2.811-1.104,4.354c0.11,7.166,0.275,14.276,0.387,21.441C112.372,80.064,117.829,81.277,123.286,81.002
	 M119.26,89.986c-0.22-0.552,0-1.322,0.553-1.6c3.857-2.811,9.313-3.195,13.559-0.992c0.717,0.441,1.984,0.662,2.095-0.166
	c-0.991-0.109-1.709-1.211-1.487-2.205c-2.48,0-5.017,0.056-7.496,0.056c-2.646-1.214-5.677-1.543-8.488-0.937
	c-1.378,0.826-2.7,1.707-4.023,2.534c-1.103,0.386-2.425-0.055-3.03-1.047c0.771-0.551,1.929-0.44,2.59,0.22
	c0.166-0.551,0.387-1.047,0.552-1.543c-3.308,0.055-6.614,0.166-9.866,0.276c-0.605-0.827-1.764-0.937-2.756-0.882
	c-2.921,0-5.843,0-8.819,0c-2.094,0-4.188,0-6.282-0.387c-0.056,0.771-0.222,1.543-0.606,2.205c0.662,1.157,1.819,1.93,3.087,2.205
	c1.819,0.387,3.638-0.386,5.401-0.826c1.763-0.441,3.914-0.496,5.182,0.826c-2.646,1.104-5.292,2.096-7.992,2.978
	c-1.158,0.439-2.756,0.605-3.308-0.496c0.221,0.605-0.496,1.157-1.104,1.047c-0.66-0.055-1.156-0.496-1.708-0.716
	c-1.322-0.552-3.031-0.057-3.804,1.157c0.771,0.825,1.323,1.817,1.599,2.865c5.732-0.496,11.521-1.048,17.253-1.599
	c-0.33-0.441-0.661-0.882-0.992-1.378c0.938-0.165,1.874-0.331,2.812-0.496c-1.103-0.441-1.764-1.653-1.652-2.756
	c1.982-0.937,4.409-0.718,6.228,0.439c1.157,1.27,0.717,3.64-0.826,4.41c1.818,0.44,3.252,2.149,3.361,4.023
	c-0.937,0-1.874,0.717-2.039,1.599c0.275,0.44,1.048,0.275,1.104-0.221c1.709-0.386,3.473-0.386,5.126,0
	c-1.104-0.496-1.488-2.149-0.718-3.087c0.883-0.221,1.765-0.387,2.646-0.606c-0.661-0.826-1.268-1.652-1.929-2.479
	c0.551-0.882,1.929-0.276,2.921,0.165c0.992,0.496,2.757-0.11,2.205-1.047c-0.661,0.108-1.378-0.331-1.543-0.992
	C117.773,90.372,118.545,90.151,119.26,89.986 M88.947,35.474c0.551,0.166,1.103,0.331,1.652,0.496
	c-0.386,0.882-0.771,1.765-1.213,2.591c2.04,0.717,3.528,2.756,3.583,4.851c0.992-0.165,1.984-0.056,2.866,0.44
	c0.275-0.826,1.323-1.102,2.149-0.826s1.434,0.937,1.983,1.543c0.331-0.883,1.435-1.379,2.315-0.938
	c-0.552,0.055-0.606,0.938-0.11,1.104c-1.434,0.386-2.812,0.715-4.244,1.102c2.866,0.882,5.952,0.992,8.875,0.221
	c0.22,0.938,1.268,1.488,2.203,1.434c0.992-0.055,1.819-0.551,2.646-1.047c1.269-0.771,2.479-1.488,3.693-2.205
	c-0.718-0.166-1.323-0.827-1.379-1.543c-1.047,0.496-2.148,0.937-3.196,1.433c-0.551-1.103,0.496-2.646,1.709-2.479
	c-0.771-1.269,0.605-2.756,1.764-3.639c0.717-0.496,2.315-0.441,1.874,0.387c0.717-0.222,1.048-1.269,0.606-1.875
	c-2.757,0.496-5.513,0.938-8.269,1.434c-1.323,0.22-0.827,2.26-1.488,3.417c-0.771,1.378-2.866,0.937-4.354,0.386
	c-1.488-0.496-3.639-0.717-4.188,0.771c-0.44-0.771-1.158-1.323-1.983-1.543c-1.157-3.418-2.315-6.891-2.149-10.474
	c0.055-0.772,0.496-1.819,1.268-1.653c-0.33-0.387-0.66-0.717-0.991-1.103c0.825-1.213,1.599-2.425,2.425-3.638
	c0.109-1.819,1.213-3.693,2.977-4.244c-0.992,0.221-2.095-0.331-2.591-1.212c-0.992,0.937-1.984,1.929-3.031,2.921
	c-0.551,0.827-0.717,1.874-0.439,2.811c-0.387,0.166-0.772,0.332-1.213,0.496c-1.213,0.938-1.931,2.48-1.819,3.969
	c0.056,0.771,0.276,1.543,0.166,2.314s-0.772,1.6-1.544,1.378c0.882,0.331,1.434,1.433,1.048,2.315
	C90.049,35.089,89.498,35.254,88.947,35.474 M107.631,13.592c0.331-1.213,0.882-2.37,1.765-3.307
	c-0.606-0.938-1.984-0.992-2.866-0.387c-0.882,0.551-1.434,1.543-1.93,2.48c-0.274,0.441,0.332,1.047,0.771,0.827
	c-0.882,0.827-1.708,1.653-2.59,2.479c0.439,0.055,0.937,0.11,1.378,0.166c0.274,0.606,0.33,1.323,0.22,1.93
	c-0.551,0.22-1.102,0.386-1.653,0.551c0,0.605,0.553,1.102,1.104,1.047c-0.441,0.827-0.938,1.652-1.378,2.48
	c2.039-0.221,4.078-0.387,6.063-0.552c0.222-1.047,0.441-2.038,0.606-3.03c2.04,0.66,4.023,1.377,6.063,2.094
	c-0.275,0.275-0.553,0.551-0.883,0.882c0.826-0.166,1.765,0.386,1.93,1.212c1.487-0.882,2.812-1.93,4.079-3.086
	c-0.496-0.221-0.938-0.496-1.378-0.771c-0.222,1.322-2.15,1.873-3.032,0.881c0.552-0.33,1.103-0.66,1.653-0.991
	c-1.434-1.157-3.252-2.425-4.905-1.653c0.496-0.717,0.882-1.543,1.213-2.37c0.496-0.221,1.048-0.386,1.543-0.606
	c-0.495,0.441-0.826-0.715-0.386-1.156c0.495-0.496,1.213-0.992,0.882-1.543c-0.882-0.883-2.095-1.434-3.308-1.654
	c0.275-0.551,0.606-1.102,1.104-1.488c0.055-0.717-1.157-0.496-1.488,0.11s-0.661,1.488-1.323,1.433
	c0.441,1.047,0.938,2.041,1.378,3.088C110.883,13.482,109.23,13.813,107.631,13.592 M125.49,88.608
	c-1.322,1.049-2.535,2.261-3.638,3.527c0.771,0.166,1.599,0.386,2.37,0.606c-0.496,0.274-0.992,0.496-1.544,0.771
	c-0.938,0.606-0.386,2.261,0.661,2.646c1.047,0.439,2.205,0,3.252-0.387c0.606-0.221,1.269-0.605,1.214-1.213
	c2.038,0.826,4.299,0.938,6.394,0.387c-2.039-1.984-4.079-4.023-6.118-6.063c-0.44-0.386-0.937-0.881-1.488-0.826
	C126.152,88.112,125.821,88.333,125.49,88.608 M105.537,26.158c-0.991,1.104-1.929,2.261-2.921,3.363
	c-0.771,0.881-1.599,1.873-1.599,3.086c1.048,1.047,2.812,1.157,4.188,0.551c1.377-0.607,2.48-1.709,3.527-2.812
	c0.827-0.882,1.652-1.819,1.983-2.976c0.331-1.158-0.055-2.646-1.213-3.143C108.073,23.624,106.585,24.947,105.537,26.158
	 M105.26,9.072c0.166-0.883,0.331-1.709,0.441-2.59c2.535-0.11,5.016-0.496,7.44-1.158C110,3.175,105.426,3.561,102.67,6.15
	c-1.709,2.095-3.473,4.189-5.236,6.283c0.33,0.276,0.165,0.883-0.274,0.938c0.604,0.33,1.321,0.386,1.983,0.275
	c-0.056-0.44-0.109-0.882-0.166-1.268C100.521,10.506,102.837,9.293,105.26,9.072 M77.923,87.451c0.44-1.269,2.149-1.434,3.472-1.6
	c1.323-0.22,2.978-1.212,2.48-2.479c-1.157-1.103-3.362-0.716-4.134,0.661c-0.165,0.496,0.386,1.048,0.882,0.828
	c-0.496,0.881-1.764,0.221-2.535-0.441c-0.717-0.605-2.26-0.882-2.315,0.109c0.496,0.166,1.049,0.332,1.6,0.496
	c0.274,1.047-0.33,2.205-1.378,2.59c1.434,0.718,1.599,3.088,0.221,3.97c0.771,0.386,1.709,0.496,2.535,0.331
	C79.851,90.593,79.466,88.276,77.923,87.451 M118.711,26.654c0.056,1.104-0.331,2.205-1.103,3.033
	c0.386,0.385,0.827,0.771,1.213,1.156c-0.992,0.166-1.544,1.6-0.827,2.314c2.591-2.148,3.252-6.338,1.434-9.204
	c0.33-0.386,0.717-0.772,1.048-1.158c-1.543-0.22-3.143,0.166-4.409,1.103C116.616,25.057,117.552,26.049,118.711,26.654
	 M102.725,96.49c0.331-0.606,0.661-1.212,0.938-1.818c-1.93,0.882-4.134,1.212-6.284,0.882c1.654,2.7,5.732,3.692,8.435,1.984
	C104.765,97.207,103.774,96.876,102.725,96.49 M102.505,38.893c-0.771-0.662-1.157-1.654-1.102-2.701
	c-0.992,0.055-1.931,0.44-2.592,1.102c1.214,0.551,2.205,1.654,2.646,2.921c0.386-0.331,0.827-0.661,1.213-0.937 M82.552,87.066
	c-1.048-0.276-2.426-0.387-3.032,0.551c1.6,0.605,3.197,1.156,4.797,1.764c0.329-1.047-0.606-2.205-1.653-2.148"/>
</svg>
