<?xml version="1.0" encoding="utf-8"?>
<!-- Generator: Adobe Illustrator 16.0.0, SVG Export Plug-In . SVG Version: 6.00 Build 0)  -->
<!DOCTYPE svg PUBLIC "-//W3C//DTD SVG 1.1//EN" "http://www.w3.org/Graphics/SVG/1.1/DTD/svg11.dtd">
<svg version="1.1" id="Layer_1" xmlns="http://www.w3.org/2000/svg" xmlns:xlink="http://www.w3.org/1999/xlink" x="0px" y="0px"
	 width="42.799px" height="49.563px" viewBox="0 0 42.799 49.563" enable-background="new 0 0 42.799 49.563" xml:space="preserve">
<g>
	<g>
		<g>
			<g>
				<g>
					<path fill="#FFFFFF" d="M2.561,47.008c0.037-0.072-0.382-0.046-0.458-0.057C2.196,47.072,2.67,47.005,2.561,47.008z"/>
					<polygon fill="#FFFFFF" points="3.512,48.205 3.341,48.184 3.76,48.36 					"/>
					<path fill="#FFFFFF" d="M6.48,48.576c-0.464,0.07-0.271,0.222-0.15,0.375H3.661c-0.063-0.082-0.106-0.163-0.018-0.232
						l0.163-0.033l-0.574-0.09c0.042,0.11,0.143,0.235,0.222,0.355c1.04,0,2.062,0,3.083,0C6.439,48.806,6.373,48.669,6.48,48.576z"
						/>
					<path fill="#FFFFFF" d="M8.013,47.965c-0.277,0.039-0.242-0.13-0.084,0.142c0.031-0.011,0.048-0.018,0.07-0.026
						C7.994,48.057,7.994,48.023,8.013,47.965z"/>
					<path fill="#FFFFFF" d="M7.998,48.081C8.021,48.201,8.23,48.001,7.998,48.081L7.998,48.081z"/>
					<path fill="#FFFFFF" d="M7.829,47.529l0.251,0.156c0.164-0.034,0.198-0.175,0.318-0.124
						C8.259,47.399,8.097,47.435,7.829,47.529z"/>
					<path fill="#FFFFFF" d="M7.305,47.384l0.106,0.081C7.48,47.45,7.504,47.428,7.305,47.384z"/>
					<path fill="#FFFFFF" d="M7.636,47.636l-0.225-0.171c-0.115,0.024-0.346,0.028,0.082,0.079
						C7.281,47.531,7.485,47.563,7.636,47.636z"/>
					<path fill="#FFFFFF" d="M7.529,47.735c-0.153,0.089-0.249,0.204-0.499,0.047C7.134,48.082,7.635,48.036,7.529,47.735z"/>
					<path fill="#FFFFFF" d="M5.741,48.52l-0.207,0.117l0.241,0.101C5.655,48.688,5.964,48.512,5.741,48.52z"/>
					<path fill="#FFFFFF" d="M8.18,46.541c-0.152-0.008-0.404,0.059-0.598,0.073l0.176,0.114C7.862,46.667,7.956,46.552,8.18,46.541
						z"/>
					<path fill="#FFFFFF" d="M7.583,46.614l-0.264-0.17C7.291,46.599,7.415,46.626,7.583,46.614z"/>
					<polygon fill="#FFFFFF" points="6.512,47.363 7.065,47.644 6.504,47.309 					"/>
					<polygon fill="#FFFFFF" points="8.187,45.873 8.54,45.966 8.006,45.799 					"/>
					<path fill="#FFFFFF" d="M8.117,45.432c0.292,0.067,0.491-0.111,0.671-0.037c-0.054-0.12-0.307-0.217-0.533-0.305
						C8.383,45.186,8.353,45.292,8.117,45.432z"/>
					<path fill="#FFFFFF" d="M7.925,44.942c0.071,0.047,0.197,0.095,0.331,0.148C8.188,45.04,8.09,44.99,7.925,44.942z"/>
					<path fill="#FFFFFF" d="M7.388,46.146c0.091-0.015,0.331-0.044,0.431-0.144l-0.426,0.076
						C7.392,46.099,7.39,46.122,7.388,46.146z"/>
					<path fill="#FFFFFF" d="M7.379,46.08l0.014-0.002c0.011-0.074,0.018-0.126,0.021-0.148C7.41,45.948,7.399,45.994,7.379,46.08z"
						/>
					<path fill="#FFFFFF" d="M7.387,46.164l0.001-0.018C7.346,46.153,7.332,46.158,7.387,46.164z"/>
					<path fill="#FFFFFF" d="M6.891,46.905c-0.241-0.1-0.501-0.308-0.861-0.098C6.323,46.876,6.528,46.756,6.891,46.905z"/>
					<path fill="#FFFFFF" d="M6.854,46.257L6.76,46.442c0.113-0.005,0.277-0.041,0.396,0.008L6.854,46.257z"/>
					<polygon fill="#FFFFFF" points="6.717,46.169 6.854,46.257 6.889,46.188 					"/>
					<path fill="#FFFFFF" d="M7.532,45.269c-0.188-0.076-0.205-0.163-0.237-0.261c-0.082,0.107-0.125,0.218-0.122,0.321
						C7.307,45.341,7.549,45.381,7.532,45.269z"/>
					<path fill="#FFFFFF" d="M7.42,45.664l-0.025-0.018C7.359,45.658,7.348,45.667,7.42,45.664z"/>
					<path fill="#FFFFFF" d="M7.28,44.037c-0.023,0.005-0.052,0.012-0.077,0.018l0.074,0.001L7.28,44.037z"/>
					<path fill="#FFFFFF" d="M7.093,45.349c-0.081,0.081,0.024,0.126,0.157,0.169c-0.044-0.059-0.073-0.121-0.078-0.188
						C7.112,45.324,7.072,45.323,7.093,45.349z"/>
					<path fill="#FFFFFF" d="M7.721,44.676c-0.088,0.043-0.164,0.092-0.232,0.144C7.623,44.775,7.832,44.688,7.721,44.676z"/>
					<path fill="#FFFFFF" d="M7.513,45.618l0.019,0.011C7.624,45.601,7.579,45.605,7.513,45.618z"/>
					<path fill="#FFFFFF" d="M7.513,45.618c-0.063-0.04-0.168-0.07-0.263-0.1c0.035,0.047,0.081,0.091,0.145,0.129
						C7.425,45.636,7.471,45.625,7.513,45.618z"/>
					<path fill="#FFFFFF" d="M4.533,43.826c0.396,0.001,0.766,0.197,0.344,0.387c0.3,0.167,1.6,0.018,2.326-0.158
						c-0.173,0-0.333,0.004-0.57-0.171c-0.215,0.07-0.498,0.417-0.859,0.274c-0.209-0.234,0.136-0.2,0.343-0.323
						c-0.492,0.113-0.724-0.283-1.448-0.208l0.259,0.201C4.816,43.835,4.634,43.765,4.533,43.826z"/>
					<path fill="#FFFFFF" d="M7.168,44.404l0.051,0.074c0.067-0.087,0.224-0.153,0.532-0.274c-0.196-0.12-0.343-0.142-0.475-0.146
						l-0.048,0.371L7.168,44.404z"/>
					<path fill="#FFFFFF" d="M7.227,44.814c-0.432-0.048-0.619-0.223-1.083-0.102c0.034,0.218,0.362,0.145,0.552,0.271
						c-0.113-0.352,0.242,0.096,0.481-0.166c0.075,0.068,0.098,0.13,0.117,0.189c0.051-0.065,0.115-0.128,0.193-0.188l-0.026,0.009
						l0.001,0.001H7.457c-0.054,0.017-0.086,0.022-0.055,0.004c-0.005-0.001-0.007-0.005-0.009-0.007
						c-0.06-0.001-0.113-0.006-0.163-0.012c0.087-0.105,0.111-0.019,0.163,0.012l0.064,0.003l0.005-0.001l-0.243-0.351
						C7.161,44.555,7.175,44.648,7.227,44.814z"/>
					<path fill="#FFFFFF" d="M5.099,46.631c0.038-0.011,0.068-0.011,0.1-0.012C5.146,46.597,5.109,46.588,5.099,46.631z"/>
					<path fill="#FFFFFF" d="M5.356,46.483c0.061,0.024,0.233,0.043,0.19,0.127c-0.128,0.074-0.207,0.002-0.348,0.008
						c0.115,0.048,0.313,0.171,0.519,0.011l-0.059-0.024c0.145-0.144,0.679-0.335,0.739-0.311
						C6.011,46.342,5.735,46.383,5.356,46.483z"/>
					<path fill="#FFFFFF" d="M6.182,45.645l-0.217-0.29l-0.37,0.157L5.819,45.5C5.734,45.669,6.009,45.627,6.182,45.645z"/>
					<polygon fill="#FFFFFF" points="7.494,43.997 7.949,44.023 7.304,43.871 					"/>
					<polygon fill="#FFFFFF" points="7.432,43.613 7.828,43.615 7.587,43.521 					"/>
					<path fill="#FFFFFF" d="M1.528,22.319l-0.115-0.084C1.449,22.275,1.487,22.301,1.528,22.319z"/>
					<path fill="#FFFFFF" d="M1.52,22.95l0.195,0.01C1.606,22.933,1.527,22.924,1.52,22.95z"/>
					<path fill="#FFFFFF" d="M6.949,34.227c0.362-0.146,0.927-0.317,0.483-0.277l-0.431,0.062
						C7.083,34.095,7.039,34.165,6.949,34.227z"/>
					<path fill="#FFFFFF" d="M4.024,27.98c-0.042,0.014-0.086,0.028-0.13,0.043c0.149,0.023,0.289,0.044,0.418,0.064
						C4.223,28.054,4.125,28.018,4.024,27.98z"/>
					<path fill="#FFFFFF" d="M2.226,27.978l0.271-0.179C2.401,27.841,2.311,27.898,2.226,27.978z"/>
					<path fill="#FFFFFF" d="M0.995,18.879l-0.441-0.1C0.555,18.941,0.778,18.868,0.995,18.879z"/>
					<path fill="#FFFFFF" d="M7.111,39.693c0.164-0.116,0.231-0.207,0.249-0.283C7.118,39.553,6.749,39.675,7.111,39.693z"/>
					<path fill="#FFFFFF" d="M6.138,22.439c-0.08-0.05-0.169-0.07-0.266-0.065C5.948,22.425,6.031,22.453,6.138,22.439z"/>
					<path fill="#FFFFFF" d="M7.345,39.096c-0.042,0.021-0.063,0.041-0.099,0.062c0.076,0.076,0.138,0.154,0.115,0.252
						C7.542,39.305,7.65,39.188,7.345,39.096z"/>
					<path fill="#FFFFFF" d="M1.936,6.279c0.021-0.007,0.031-0.017,0.055-0.023C1.933,6.247,1.928,6.259,1.936,6.279z"/>
					<path fill="#FFFFFF" d="M6.74,3.281c0.022,0.039,0.015,0.094,0.014,0.148C6.787,3.408,6.79,3.364,6.74,3.281z"/>
					<path fill="#FFFFFF" d="M7.568,42.06C7.6,42.141,7.616,42.071,7.568,42.06L7.568,42.06z"/>
					<path fill="#FFFFFF" d="M5.871,42.518c-0.049-0.016-0.112-0.026-0.212-0.024C5.763,42.496,5.83,42.505,5.871,42.518z"/>
					<path fill="#FFFFFF" d="M4.611,38.419l0.001-0.007C4.529,38.44,4.544,38.436,4.611,38.419z"/>
					<path fill="#FFFFFF" d="M7.376,42.19c0.052-0.033,0.095-0.069,0.124-0.109C7.467,42.099,7.427,42.132,7.376,42.19z"/>
					<path fill="#FFFFFF" d="M7.58,42.166c-0.016,0.03-0.027,0.051-0.039,0.072C7.614,42.246,7.659,42.235,7.58,42.166z"/>
					<path fill="#FFFFFF" d="M7.539,41.948c0.009,0.046-0.01,0.09-0.039,0.133c0.029-0.017,0.053-0.024,0.068-0.021
						C7.56,42.037,7.549,42.003,7.539,41.948z"/>
					<path fill="#FFFFFF" d="M2.592,13.085c0.014-0.005,0.024-0.009,0.042-0.016C2.459,12.98,2.485,13.018,2.592,13.085z"/>
					<path fill="#FFFFFF" d="M2.333,32.378c0.005,0.002,0.016,0.006,0.021,0.008l0.015-0.013L2.333,32.378z"/>
					<path fill="#FFFFFF" d="M1.995,32.107c0.546,0.093,0.484,0.167,0.375,0.266l1.244-0.165L1.995,32.107z"/>
					<path fill="#FFFFFF" d="M1.359,20.814l-0.383,0.214C0.327,20.792,0.542,20.606,0,20.811c1.359,0.002,0.163,0.802,1.52,0.8
						l-0.282,0.142c0.012-0.039-0.068-0.043-0.056-0.082c-0.642,0.28,0.988,0.172,0.804,0.516c-0.101,0.121-0.295,0.208-0.459,0.132
						l0.344,0.254c-0.024,0.078-0.26,0.065-0.237-0.012l0.12,0.399l-0.04-0.001c0.215,0.051,0.548,0.171,0.689,0.229
						c-0.191,0.108-0.146-0.046-0.314-0.015l0.335,0.211c-0.349,0.102-0.696-0.071-0.65-0.227c-1.349,0.251,0.347,0.174-0.432,0.649
						l-0.178-0.205c-0.766,0.162-0.482,0.317-0.955,0.574c0.249-0.067,1.195-0.52,1.541-0.29c-0.1,0.072-0.146,0.164,0.131,0.284
						c-0.483,0.018-0.36,0.142-0.329,0.3l-0.639,0.013c0.189,0.166,0.515,0.14,0.805,0.23c-0.057,0.194-0.551,0.253-0.967,0.315
						c-0.092,0.313,0.788-0.244,0.919,0.115C1.434,25.411,1.7,25.58,2.099,25.867c-0.211,0.187-0.392-0.014-0.572,0.057l0.518,0.136
						c-0.01,0.039-0.167,0.033-0.247,0.03c0.204,0.124,0.639-0.017,0.823,0.184c0.707,0.024-1.007,0.474-0.195,0.696
						c-0.178,0.072-0.393-0.013-0.64,0.018c0.542,0.33,0.396,0.286,1.117,0.543l-0.407,0.268c0.471-0.205,1.05,0,1.527,0.181
						c0.228-0.076,0.428-0.14,0.523-0.182l0.359,0.307c-0.103,0.044-0.324,0.022-0.594-0.018c0.055,0.018,0.108,0.036,0.156,0.052
						c-0.23,0.127-0.602,0.085-0.963,0.02c0.125-0.043,0.257-0.09,0.388-0.136c-0.393-0.062-0.826-0.116-1.199-0.081
						c0.075,0.018,0.14,0.055,0.178,0.098c-0.106-0.016-0.201-0.025-0.265-0.012c-0.067,0.015,0.076,0.042,0.242,0.087l-0.708,0.108
						l0.284,0.004l-0.424,0.447c0.732,0.269,1.801,0.479,2.119,0.945c-0.528-0.092-0.854,0.019-1.473,0.044
						c0.648-0.165-0.297-0.359-0.177-0.616c-0.062,0.134-0.359,0.12-0.463,0.092l0.619,0.416c-0.507,0.016-0.375,0.114-0.578,0.242
						c0.996-0.14,0.683,0.298,0.999,0.463c-0.335,0.029-0.681,0.004-0.611-0.222c-0.74,0.285,1.19,0.253,0.563,0.527
						c-0.011-0.054,0.039-0.085-0.132-0.098c0.305,0.11,0.083,0.431-0.212,0.375l-0.01-0.053c-0.101,0.366,0.05,1.091,0.903,1.097
						c-0.11,0.01-1.026,0.01-1.199-0.002l2.893,0.479c-0.733-0.016-2.458,0.296-2.886,0.022c-0.099,0.091-0.215,0.203,0.053,0.368
						c0.101-0.064,1.046-0.203,1.118-0.127c-0.8,0.263-0.426,0.175-1.103,0.482c0.151-0.096,1.301-0.062,1.272,0.078
						c-0.172-0.012-1.129,0.073-1.25,0.03l1.142,0.28c-0.207-0.074-0.953,0.037-1.266,0.131c0.218-0.048-0.004,0.297,0.112,0.382
						l0.252-0.159c-0.148,0.396,1.601,0.295,1.563,0.682c-0.234-0.034-1.434-0.037-1.564,0.166c0.581,0.058,2.789,0.245,3.25,0.561
						l-0.325,0.083l0.389,0.24C5.123,35.467,3.276,35.11,2.554,34.9c-0.252,0.159-0.385,0.062-0.344,0.276
						c-0.304,0.093-0.474-0.093-0.496-0.155l-0.171,0.515c0.671-0.059,0.695,0.349,1.253,0.3l-0.726-0.51
						c0.668-0.058,1.923,0.214,1.825,0.578c-0.262,0.105-1.199-0.004-1.422,0.016c0.233,0.034,0.46,0.315,0.298,0.357l-0.368-0.132
						c-0.241,0.212,0.908,0.277,0.281,0.55c-0.038,0.085-0.851,0.292-0.453,0.286c0.759-0.176,3.127-0.329,3.707-0.27
						c-0.05,0.032-0.707,0.473-1.083,0.587c-0.594,0.167-1.44-0.128-1.951,0.015c0.184-0.004,0.413,0.058,0.487,0.085
						c-0.153,0.095-0.57-0.006-0.479,0.177c0.682-0.004-0.04,0.385,0.58,0.059c0.203,0.173-0.131,0.202-0.092,0.417
						c0.437-0.091,1.506,0.118,1.708,0.293c-0.174-0.002-0.397,0.05-0.499,0.076c-0.044,0.381-0.345,0.598-0.334,0.95
						c-0.164,0.041-0.355,0.219-0.652,0.16c0.123,0.045,0.356,0.081,0.377,0.188c-0.58,0.236-0.103-0.237-0.803-0.045
						c0.396-0.004,0.559,0.255,0.813,0.399c0.609-0.075,0.101-0.362-0.153-0.505c0.843-0.04,1.738,0.19,2.145,0.543
						c0.223,0.285-0.539,0.151-0.417,0.197c-0.122,0.557,1.494,0.408,0.906,0.893c-0.529,0.204-1.069,0.051-1.454,0.107
						c-0.214-0.23,0.324-0.38,0.295-0.542l-0.245,0.21c-0.182-0.069-0.325-0.222-0.173-0.315c-0.476,0.172-0.05,0.933-0.477,1.374
						c0.183,0.068,0.375,0.192,0.589,0.122l-0.081-0.131c0.428-0.14,0.61,0.23,0.805,0.052c0.313,0.169,0.801,0.354,0.568,0.618
						l-0.611,0.069c0.179-0.012,0.357-0.179,0.167-0.244c0.276,0.096-0.812,0.419-0.004,0.507l0.417-0.193
						c0.319,0.17,0.971,0.375,0.782,0.609c0.604-0.123-0.07-0.05,0.635-0.235c-0.875,0.169,0.021-0.583-0.898-0.327
						c0.814-0.194,0.335-0.297,1.026-0.539c-0.202,0.014-0.383,0.09-0.292-0.104c-0.06-0.006-0.136-0.024-0.18-0.035l0.015-0.013
						l-0.023,0.011c-0.031-0.007-0.037-0.007-0.008,0.004c-0.086,0.048-0.191,0.089-0.303,0.108
						c-0.468-0.077-0.467-0.379-0.712-0.472c0.091-0.116,0.234,0.038,0.447-0.032L6.41,41.672c0.448-0.033,0.732-0.329,1.007-0.073
						l0.009-0.24c0.246-0.15,0.337-0.349,0.143-0.46c0.092-0.117-0.509-0.265-0.154-0.181L7.12,40.354l0.112-0.008
						c0.04-0.373-0.777-0.728,0.014-1.188c-0.119-0.119-0.263-0.241-0.146-0.456l0.386-0.06c-0.143-0.153,0.367-0.5-0.041-0.548
						c1.036-0.226,0.192-0.79,0.365-1.081L7.303,37.03c0.018-0.194-0.136-0.371-0.353-0.598l-0.447,0.039
						c-0.379-0.186,0.289-0.546,0.225-0.869c0.172,0.013,0.132,0.098,0.032,0.162c0.989-0.443-0.782-0.78-0.064-1.173
						c-0.168-0.079-0.116-0.146-0.007-0.213c0.001,0.008,0.01,0.015,0.025,0.021c0.005-0.01,0.005-0.023,0.003-0.037
						c0.075-0.043,0.163-0.088,0.232-0.135c-0.107,0.042-0.194,0.083-0.234,0.116c-0.013-0.067-0.074-0.167-0.192-0.262l0.478-0.069
						c-0.006-0.008-0.006-0.014-0.015-0.022c0.172-0.108-0.232-0.067-0.591,0.005c-0.082-0.046-0.18-0.087-0.298-0.117
						c0.772-0.123-0.276-0.25,0.546-0.405c-0.408-0.046-0.332-0.49-1.185-0.497c0.111-0.009,0.162-0.042,0.171,0.012
						c0.091-0.118,0.181-0.235-0.064-0.323l0.609-0.082l-0.836-0.2c0.364-0.169,0.577-0.243,1.056-0.121
						c-0.744-0.317-0.289-0.275-1.023-0.539l0.396-0.007c-0.021-0.107-0.561-0.251-0.238-0.335c0.738-0.285,0.043-1.204,0.71-1.861
						c-1.158,0.181,0.507-0.315-0.396-0.293c0.273-0.05,0.424-0.145,0.669-0.057c-0.287-0.303,0.413-0.497-0.359-0.677
						c0.275-0.05,0.407,0.047,0.569,0.007c-0.061-0.022-0.245-0.089-0.082-0.13c0.162-0.04,0.233,0.035,0.356,0.079
						c-0.063-0.32-0.913-0.312-1.71-0.296c0.369-0.182,0.312-0.261-0.217-0.355c0.257-0.07,0.525-0.178,0.629,0.019
						c0.032-0.115,0.347-0.708-0.292-0.69c0.16-0.043,0.04-0.16-0.036-0.187c0.025-0.256,0.082-0.281,0.008-0.527l-0.101,0.074
						c-0.775-0.064-0.183-0.2-0.285-0.397l0.079,0.002c0.532-0.485-0.276-0.188,0.335-0.67L4.93,25.469
						c-1.034,0.001,0.596-0.428,0.193-0.675L4.853,24.9c-0.357-0.131,1.39-0.457,1.515-0.604c0.089-0.035,0.146,0.044,0.213,0.085
						c0.597-0.398-0.629-0.025-0.784-0.301c0.337-0.064,0.863,0.035,0.921-0.155c0.271-0.102-1.115-0.509-0.474-0.788
						c-0.259,0.064-0.518,0.129-0.718,0.005c-0.099-0.198,0.971-0.569,0.143-0.727c0.07-0.027,0.139-0.039,0.203-0.042
						c-0.217-0.147-0.367-0.488-0.816-0.569c1.652-0.18-0.833-0.936,0.694-0.964l-0.095-0.469l0.156,0.01
						c0.092-0.302-0.277-0.402-0.647-0.503c0.102-0.071,0.246-0.022,0.326-0.018c0.292-0.444,0.239-0.483-0.522-0.845l0.496-0.042
						c-0.288-0.099,0.782-0.637,0.208-1.063c0.056,0.004,0.152,0.013,0.222,0.047c-0.578-0.486,1.384-1.143-0.42-1.333l-0.442-0.324
						c-0.144,0.413-0.783-0.071-1.084,0.096c-0.104-0.166,0.548-0.417,0.639-0.214l-0.091,0.03c0.94,0.085,0.337-0.511,0.978-0.489
						c-0.03-0.813,0.466-1.594,0.554-2.342l-0.736,0.061l0.058-0.263c0.175-0.063,0.578-0.071,0.536,0.115
						c0.42-0.083-0.328-0.328-0.486-0.34c0.319-0.355,0.843,0.178,0.868,0.066l-0.045-0.155l-0.087,0.031
						c-0.291-0.136-0.607-0.161-0.557-0.385c0.155-0.137,0.455-0.053,0.487-0.107c0.052,0.002,0.078-0.015,0.026-0.085l0.083-0.327
						l-0.585,0.104c-0.275-0.162,0.05-0.312-0.613-0.191c1.021-0.174,0.438-1.222,0.759-1.342c-0.408-0.234-0.388-0.439-0.322-0.688
						C5.288,9.928,4.638,9.92,4.731,9.706c1.331,0.179,0.604-0.358,1.576-0.457C5.66,9.354,6.187,8.62,5.268,8.79
						c0.119-0.173,0.5,0.031,0.823-0.08C5.588,8.231,6.489,7.792,6.395,7.255C6.221,7.228,5.942,7.29,5.697,7.149l0.911-0.186
						C6.535,6.851,5.611,6.758,6.242,6.634c-0.15,0.01-0.377,0.026-0.424-0.05C6.803,5.658,5.4,4.362,7.129,3.548
						c-0.355,0.09-0.376-0.009-0.375-0.12c-0.09,0.058-0.429-0.068-0.667-0.09l0.711-0.337C6.156,2.816,6.815,2.523,6.198,2.374
						l0.094,0.158C5.58,2.222,4.621,2.525,3.678,2.346C4.489,2.692,2.362,2.721,3.517,3.26C3.313,3.31,3.22,3.148,2.995,3.156
						c0.395,0.152,0.465,0.271,0.256,0.446L3.154,3.565c0.025,0.579-0.407,0.764-0.758,1.37l0.476,0.013
						C2.791,5.077,2.64,5.087,2.514,5.136C3.206,5.382,2.604,4.757,3.371,5c-0.98,0.061-0.139,0.957-1.243,0.954
						c-0.033,0.211,0.553,0,0.519,0.21L2.345,6.187l0.373,0.096C2.638,6.413,2.26,6.443,2.01,6.421
						c0.034-0.03-0.058-0.104-0.074-0.142C1.565,6.422,1.988,6.801,1.867,6.85l0.208-0.185c0.101,0.303,0.031,0.62,0.002,0.939
						c-0.01,0.319,0.026,0.641,0.309,0.944l0.225-0.023c0.386,0.458-0.266,0.319-0.104,0.8L2.456,9.305
						c0.216,0.11,0.321,0.242,0.288,0.367c-0.254-0.137-0.521,0.185-0.8,0.01c0.414,0.493,0.333,0.253,1.144,0.612l-0.374,0.045
						c0.329,0.125,0.504,0.145,0.586,0.381c-0.306-0.209-0.573,0.113-0.98-0.126c-0.84,0.441,0.773,0.771-0.425,0.93
						c1.011,0.278,0.595-0.391,0.807-0.254c0.341-0.085,0.754,0.227,0.643,0.372c-0.033,0.152-1.328,0.195-1.332,0.591
						c0.007-0.039-0.07-0.045-0.063-0.084c-0.271,0.135,0.337,0.304-0.099,0.466c0.614,0.127-0.05,0.233,0.739,0.294l-0.161-0.366
						c0.194,0.213,1.108,0.438,0.639,0.754c-0.158-0.032-0.362-0.139-0.475-0.211c-0.239,0.089,0.143,0.194-0.103,0.287
						c-0.79-0.057-0.146-0.442-0.736-0.686c-0.341,0.093,0.548,0.438-0.303,0.294c1.081,0.199-0.162,0.385,0.656,0.679l-0.474-0.033
						c0.074,0.044,0.297,0.139,0.285,0.215l-0.614-0.159c0.523,0.231-0.462,0.403-0.179,0.619c-0.011-0.435,0.572-0.082,0.92-0.254
						c0.631,0.548-1.243,0.272-1.021,0.879c-0.066-0.083,0.288-0.298,0.506-0.166c-0.099,0.111-0.282,0.258-0.531,0.323
						c0.095,0.399,0.489-0.051,0.779,0.124c-0.579,0.124,0.233,0.199,0.417,0.375l-0.482-0.007
						c-0.313,0.446,1.004,0.135,0.627,0.534l-0.667-0.181l0.171,0.214L1.295,16.09c0.405,0.236,0.299,0.306,0.144,0.53
						c0.34-0.049,0.875,0.038,0.889,0.236C2.04,16.99,1.87,16.777,1.936,17.06c-0.301-0.065-0.68-0.139-0.234-0.258
						c-0.157-0.014-0.302-0.065-0.457-0.08c-0.331,0.145-0.078,0.37-0.075,0.472c0.019-0.04,0.044-0.086,0.114-0.11l0.665,0.413
						c-0.182,0.064-0.327,0.013-0.469-0.039c0.051,0.083,0.272,0.141,0.313,0.263c-0.392-0.032-0.796-0.024-0.979-0.199l0.432,0.393
						c-0.17,0.026-0.47,0.202-0.614,0.151c-0.232,0.22,0.756,0.532,0.45,0.822c0.076,0.014,0.148,0.044,0.204,0.104
						c-0.087,0.271-0.582,0.52-0.031,0.831l-0.698,0.191c0.167,0.248,0.878-0.258,1.156,0.153c0.233,0.29-0.596,0.12-0.789,0.226
						c0.359,0.141,1.087,0.381,0.523,0.662C1.312,20.969,1.414,20.896,1.359,20.814z M1.76,23.88
						c-0.103-0.056-0.418-0.164-0.135-0.217C2.179,23.712,1.917,23.773,1.76,23.88z M3.12,28.473
						c-0.162-0.036-0.086-0.108,0.092-0.193C3.255,28.333,3.24,28.396,3.12,28.473z M7.135,41.186
						c-0.008-0.002-0.014-0.003-0.024-0.005C7.293,41.04,7.221,41.09,7.135,41.186z M6.938,41.468
						c0.069,0.025,0.136,0.021,0.202,0.006c-0.123-0.014-0.134-0.076-0.103-0.147C6.912,41.352,6.827,41.391,6.938,41.468z
						 M5.888,12.365l-0.129,0.046C5.627,12.288,5.751,12.326,5.888,12.365z"/>
					<path fill="#FFFFFF" d="M2.434,27.979c0.081-0.021,0.17-0.029,0.261-0.038C2.613,27.922,2.519,27.927,2.434,27.979z"/>
					<polygon fill="#FFFFFF" points="1.076,18.897 1.082,18.888 0.995,18.879 					"/>
					<path fill="#FFFFFF" d="M2.662,37.433c0.066-0.06,0.153-0.095,0.244-0.121C2.787,37.315,2.689,37.346,2.662,37.433z"/>
					<path fill="#FFFFFF" d="M7.823,42.894L7.69,42.722c0.028,0.084-0.076,0.118-0.151,0.164
						C7.651,42.878,7.813,42.839,7.823,42.894z"/>
					<path fill="#FFFFFF" d="M4.87,44.514c0.06,0.024,0.007,0.054,0.068,0.078l0.224-0.013C5.145,44.47,4.963,44.399,4.87,44.514z"
						/>
					<path fill="#FFFFFF" d="M6.227,43.112c-0.405,0.028-0.266,0.133-0.188,0.254c-0.001-0.007-0.005-0.014,0-0.021
						C6.606,43.362,6.416,43.237,6.227,43.112z"/>
					<path fill="#FFFFFF" d="M6.052,43.395c0.02,0.038,0.031,0.076,0.013,0.114C6.292,43.516,6.111,43.46,6.052,43.395z"/>
					<path fill="#FFFFFF" d="M7.223,41.806c-0.102,0.062,0.52,0.017,0.356,0.056C8.098,41.908,6.937,41.497,7.223,41.806z"/>
					<polygon fill="#FFFFFF" points="4.892,43.257 5.392,43.196 4.987,43.141 					"/>
					<path fill="#FFFFFF" d="M5.221,42.277l-0.13,0.201c0.084-0.006,0.134,0.017,0.173,0.046
						C5.275,42.403,5.369,42.268,5.221,42.277z"/>
					<path fill="#FFFFFF" d="M5.264,42.524c-0.007,0.063,0.006,0.123,0.09,0.154C5.347,42.645,5.327,42.573,5.264,42.524z"/>
					<polygon fill="#FFFFFF" points="4.734,42.995 4.836,42.934 4.867,42.794 					"/>
					<path fill="#FFFFFF" d="M5.222,40.17l-0.153-0.207c-0.172-0.014-0.275,0.048-0.203,0.125C4.988,40.134,5.058,40.21,5.222,40.17
						z"/>
					<path fill="#FFFFFF" d="M3.88,40.873c0.102-0.062,0.213-0.07,0.376-0.11l-0.621,0.02L3.88,40.873z"/>
					<path fill="#FFFFFF" d="M3.708,40.259c-0.173-0.014-0.508-0.287-0.457-0.02C3.422,40.254,3.575,40.46,3.708,40.259z"/>
					<polygon fill="#FFFFFF" points="4.345,37.014 4.356,37.067 5.373,37.005 					"/>
					<path fill="#FFFFFF" d="M1.754,34.315c-0.229,0.266,0.631,0.026,0.339,0.271c0.244,0.046,0.238-0.2,0.449-0.15
						C2.28,34.297,2.419,34.209,1.754,34.315z"/>
					<path fill="#FFFFFF" d="M2.542,34.436c0.041,0.022,0.091,0.045,0.159,0.069C2.635,34.464,2.585,34.446,2.542,34.436z"/>
					<polygon fill="#FFFFFF" points="7.354,2.793 7.584,2.671 7.233,2.716 					"/>
					<path fill="#FFFFFF" d="M6.648,2.367l0.645,0.071L6.726,2.246C6.75,2.286,6.796,2.365,6.648,2.367z"/>
					<path fill="#FFFFFF" d="M0.467,24.385l0.157,0.007c0.168-0.032,0.18-0.071,0.204-0.149L0.467,24.385z"/>
					<polygon fill="#FFFFFF" points="0.887,22.128 0.875,22.167 1.459,22.08 					"/>
					<path fill="#FFFFFF" d="M0.084,20.262c-0.022,0.077,0.111,0.166,0.088,0.243C0.062,20.339,0.815,20.229,0.084,20.262z"/>
				</g>
			</g>
		</g>
	</g>
</g>
<g>
	<g>
		<g>
			<g>
				<g>
					<path fill="#FFFFFF" d="M42.78,15.177c0.086-0.008-0.139-0.362-0.164-0.434C42.544,14.893,42.835,15.271,42.78,15.177z"/>
					<polygon fill="#FFFFFF" points="42.14,16.67 42.072,16.512 42.126,16.968 					"/>
					<path fill="#FFFFFF" d="M41.112,17.281c0.484,0.542,0.307-0.32,0.626-0.216l0.116,0.12l-0.22-0.538
						C41.457,16.86,41.376,17.354,41.112,17.281z"/>
					<path fill="#FFFFFF" d="M39.728,16.356c0.188,0.207,0.019,0.279,0.172-0.016c-0.027-0.019-0.042-0.029-0.062-0.042
						C39.819,16.316,39.79,16.337,39.728,16.356z"/>
					<path fill="#FFFFFF" d="M39.839,16.298C39.933,16.207,39.64,16.153,39.839,16.298L39.839,16.298z"/>
					<path fill="#FFFFFF" d="M39.444,16.772l-0.002-0.302c-0.122-0.115-0.267-0.058-0.288-0.189
						C39.087,16.494,39.211,16.607,39.444,16.772z"/>
					<path fill="#FFFFFF" d="M39.611,17.292l0.011-0.136C39.57,17.108,39.538,17.102,39.611,17.292z"/>
					<path fill="#FFFFFF" d="M39.646,16.867l-0.025,0.289c0.085,0.081,0.219,0.27,0.023-0.115
						C39.753,17.224,39.667,17.036,39.646,16.867z"/>
					<path fill="#FFFFFF" d="M39.793,16.896c0.165,0.074,0.317,0.085,0.32,0.386C40.317,17.018,40,16.628,39.793,16.896z"/>
					<path fill="#FFFFFF" d="M41.464,17.93l0.218,0.113l-0.04-0.255C41.662,17.915,41.336,17.747,41.464,17.93z"/>
					<path fill="#FFFFFF" d="M38.369,17.081c0.081,0.129,0.284,0.295,0.408,0.445l-0.001-0.213
						C38.664,17.265,38.508,17.258,38.369,17.081z"/>
					<path fill="#FFFFFF" d="M38.777,17.525l0.002,0.318C38.932,17.773,38.884,17.655,38.777,17.525z"/>
					<polygon fill="#FFFFFF" points="40.039,17.959 39.972,17.336 39.997,17.999 					"/>
					<polygon fill="#FFFFFF" points="37.772,17.481 37.649,17.138 37.813,17.673 					"/>
					<path fill="#FFFFFF" d="M37.436,17.815c-0.116-0.279-0.382-0.325-0.427-0.519c-0.069,0.121-0.002,0.388,0.059,0.626
						C37.072,17.759,37.179,17.715,37.436,17.815z"/>
					<path fill="#FFFFFF" d="M37.141,18.284c-0.002-0.087-0.037-0.219-0.073-0.361C37.066,18.01,37.083,18.121,37.141,18.284z"/>
					<path fill="#FFFFFF" d="M38.479,17.965c-0.066-0.065-0.232-0.243-0.378-0.264l0.314,0.301
						C38.435,17.991,38.456,17.978,38.479,17.965z"/>
					<path fill="#FFFFFF" d="M38.425,18.012l-0.01-0.009c-0.071,0.036-0.121,0.061-0.142,0.072
						C38.292,18.066,38.338,18.048,38.425,18.012z"/>
					<path fill="#FFFFFF" d="M38.495,17.956l-0.016,0.009C38.509,17.995,38.521,18.004,38.495,17.956z"/>
					<path fill="#FFFFFF" d="M39.428,17.919c0.05,0.257,0.021,0.592,0.407,0.765C39.727,18.402,39.505,18.305,39.428,17.919z"/>
					<path fill="#FFFFFF" d="M38.885,18.334l0.216-0.033c-0.07-0.089-0.195-0.202-0.222-0.328L38.885,18.334z"/>
					<polygon fill="#FFFFFF" points="38.888,18.498 38.885,18.334 38.805,18.347 					"/>
					<path fill="#FFFFFF" d="M37.646,18.393c0.048,0.199-0.014,0.269-0.076,0.356c0.138-0.002,0.254-0.037,0.339-0.105
						C37.838,18.528,37.729,18.307,37.646,18.393z"/>
					<path fill="#FFFFFF" d="M38.04,18.231v0.031C38.07,18.284,38.084,18.288,38.04,18.231z"/>
					<path fill="#FFFFFF" d="M36.774,19.379c0.019,0.015,0.042,0.034,0.062,0.05l-0.043-0.06L36.774,19.379z"/>
					<path fill="#FFFFFF" d="M37.971,18.695c0.115,0.014,0.09-0.1,0.047-0.234c-0.022,0.073-0.057,0.136-0.11,0.183
						C37.939,18.696,37.963,18.729,37.971,18.695z"/>
					<path fill="#FFFFFF" d="M37.041,18.619c0.089,0.043,0.174,0.072,0.257,0.095C37.182,18.633,36.984,18.521,37.041,18.619z"/>
					<path fill="#FFFFFF" d="M37.946,18.186l-0.002-0.023C37.868,18.106,37.897,18.14,37.946,18.186z"/>
					<path fill="#FFFFFF" d="M37.946,18.186c0.003,0.076,0.041,0.181,0.072,0.276c0.019-0.058,0.028-0.124,0.021-0.199
						C38.013,18.245,37.978,18.214,37.946,18.186z"/>
					<path fill="#FFFFFF" d="M38.262,21.702c-0.239-0.316-0.304-0.733,0.104-0.515c-0.046-0.343-0.947-1.291-1.529-1.758
						c0.104,0.138,0.203,0.263,0.202,0.563c0.188,0.127,0.643,0.135,0.743,0.513c-0.064,0.313-0.245,0.017-0.471-0.071
						c0.39,0.321,0.208,0.753,0.708,1.282l0.005-0.331C38.097,21.47,38.15,21.658,38.262,21.702z"/>
					<path fill="#FFFFFF" d="M37.145,19.235l0.03-0.087c-0.112,0.001-0.261-0.083-0.547-0.251c0.018,0.233,0.089,0.364,0.164,0.473
						l0.336-0.197L37.145,19.235z"/>
					<path fill="#FFFFFF" d="M37.45,18.927c0.217,0.378,0.185,0.638,0.562,0.934c0.158-0.165-0.098-0.382-0.106-0.615
						c-0.223,0.314-0.064-0.256-0.423-0.282c0.012-0.103,0.049-0.162,0.087-0.215c-0.084,0-0.175-0.01-0.271-0.035l0.023,0.016
						l0-0.002l0.004,0.005c0.045,0.033,0.07,0.055,0.037,0.042c0.002,0.005,0,0.009-0.001,0.012
						c0.035,0.049,0.062,0.095,0.087,0.139c-0.139-0.003-0.082-0.077-0.087-0.139l-0.036-0.053l-0.004-0.003l-0.146,0.418
						C37.274,19.146,37.343,19.075,37.45,18.927z"/>
					<path fill="#FFFFFF" d="M40.218,19.548c-0.032-0.024-0.049-0.05-0.068-0.075C40.162,19.53,40.176,19.564,40.218,19.548z"/>
					<path fill="#FFFFFF" d="M39.944,19.423c-0.014-0.064-0.098-0.216-0.001-0.229c0.137,0.062,0.121,0.167,0.207,0.28
						c-0.025-0.122-0.033-0.355-0.289-0.431l0.013,0.063c-0.205-0.036-0.679-0.359-0.693-0.421
						C39.446,18.971,39.641,19.172,39.944,19.423z"/>
					<path fill="#FFFFFF" d="M38.752,19.245l-0.109,0.357l0.347,0.2l-0.142-0.173C39.036,19.592,38.84,19.396,38.752,19.245z"/>
					<polygon fill="#FFFFFF" points="36.613,19.234 36.36,18.853 36.622,19.466 					"/>
					<polygon fill="#FFFFFF" points="36.331,19.528 36.093,19.212 36.16,19.464 					"/>
					<path fill="#FFFFFF" d="M23.625,38.175l0.012,0.143C23.644,38.264,23.638,38.218,23.625,38.175z"/>
					<path fill="#FFFFFF" d="M24.111,37.756l-0.122-0.153C24.042,37.702,24.086,37.768,24.111,37.756z"/>
					<path fill="#FFFFFF" d="M29.148,26.072c-0.35-0.177-0.853-0.49-0.532-0.18l0.33,0.285
						C28.958,26.058,29.041,26.045,29.148,26.072z"/>
					<path fill="#FFFFFF" d="M26.282,32.481c0.038,0.022,0.079,0.045,0.119,0.068c-0.082-0.128-0.157-0.247-0.228-0.357
						C26.207,32.283,26.244,32.38,26.282,32.481z"/>
					<path fill="#FFFFFF" d="M27.471,33.83l-0.315-0.083C27.25,33.791,27.354,33.82,27.471,33.83z"/>
					<path fill="#FFFFFF" d="M21.333,40.892l0.216,0.4C21.669,41.181,21.467,41.063,21.333,40.892z"/>
					<path fill="#FFFFFF" d="M33.332,22.309c-0.196-0.05-0.31-0.042-0.381-0.005C33.217,22.397,33.547,22.601,33.332,22.309z"/>
					<path fill="#FFFFFF" d="M20.662,34.643c0.015,0.094,0.059,0.174,0.126,0.243C20.777,34.794,20.742,34.712,20.662,34.643z"/>
					<path fill="#FFFFFF" d="M32.713,22.524c0.044,0.019,0.073,0.022,0.112,0.036c0.011-0.11,0.033-0.209,0.125-0.256
						C32.752,22.234,32.591,22.227,32.713,22.524z"/>
					<path fill="#FFFFFF" d="M10.764,48.487c-0.019-0.012-0.033-0.014-0.053-0.029C10.74,48.51,10.752,48.506,10.764,48.487z"/>
					<path fill="#FFFFFF" d="M5.441,46.428c0.019-0.04,0.068-0.065,0.112-0.094C5.517,46.319,5.48,46.341,5.441,46.428z"/>
					<path fill="#FFFFFF" d="M34.968,20.417C35.014,20.34,34.948,20.372,34.968,20.417L34.968,20.417z"/>
					<path fill="#FFFFFF" d="M36.386,21.458c0.018,0.049,0.048,0.105,0.111,0.183C36.435,21.557,36.401,21.499,36.386,21.458z"/>
					<path fill="#FFFFFF" d="M33.927,25.077l-0.006,0.004C33.996,25.126,33.982,25.118,33.927,25.077z"/>
					<path fill="#FFFFFF" d="M35.192,20.484c-0.058-0.02-0.115-0.029-0.165-0.027C35.063,20.471,35.114,20.481,35.192,20.484z"/>
					<path fill="#FFFFFF" d="M35.047,20.339c0.034-0.007,0.059-0.012,0.083-0.017C35.091,20.26,35.055,20.232,35.047,20.339z"/>
					<path fill="#FFFFFF" d="M34.895,20.512c0.032-0.037,0.08-0.051,0.133-0.056c-0.032-0.011-0.053-0.025-0.059-0.04
						C34.954,20.438,34.933,20.468,34.895,20.512z"/>
					<path fill="#FFFFFF" d="M15.797,43.556c-0.013-0.007-0.022-0.012-0.04-0.021C15.802,43.729,15.813,43.683,15.797,43.556z"/>
					<path fill="#FFFFFF" d="M30.748,30.797c-0.002-0.005-0.006-0.015-0.008-0.021l-0.02-0.002L30.748,30.797z"/>
					<path fill="#FFFFFF" d="M30.763,31.234c-0.288-0.474-0.19-0.477-0.042-0.461l-0.942-0.828L30.763,31.234z"/>
					<path fill="#FFFFFF" d="M22.586,39.318l0.418,0.144c0.25,0.646-0.043,0.606,0.478,0.877c-0.894-1.019,0.506-0.663-0.394-1.679
						l0.295,0.115c-0.038,0.018,0.012,0.081-0.026,0.098c0.639,0.292-0.522-0.856-0.139-0.951c0.159-0.006,0.355,0.08,0.405,0.254
						l-0.033-0.429c0.075-0.034,0.222,0.151,0.148,0.186l0.225-0.36l0.025,0.031c-0.104-0.195-0.232-0.525-0.282-0.671
						c0.209,0.071,0.061,0.141,0.196,0.246l-0.061-0.394c0.309,0.192,0.407,0.569,0.258,0.64c1.085,0.841-0.098-0.377,0.781-0.115
						l-0.038,0.272c0.631,0.464,0.562,0.146,1.071,0.328c-0.216-0.142-1.19-0.543-1.243-0.958c0.121,0.027,0.222,0,0.13-0.289
						c0.334,0.349,0.345,0.173,0.443,0.041l0.434,0.47c-0.001-0.255-0.236-0.481-0.361-0.761c0.184-0.09,0.556,0.24,0.877,0.51
						c0.295-0.144-0.705-0.424-0.522-0.768c0.356-0.003,0.307-0.319,0.264-0.81c0.283,0.032,0.249,0.303,0.422,0.39l-0.238-0.479
						c0.037-0.019,0.136,0.103,0.187,0.165c-0.04-0.236-0.436-0.468-0.403-0.741c-0.449-0.546,1.03,0.437,0.663-0.321
						c0.173,0.085,0.25,0.303,0.438,0.467c-0.106-0.628-0.042-0.489-0.323-1.202l0.473,0.125c-0.468-0.215-0.695-0.787-0.873-1.266
						c-0.209-0.12-0.391-0.227-0.485-0.27l-0.004-0.476c0.102,0.047,0.231,0.228,0.379,0.457c-0.022-0.053-0.044-0.104-0.064-0.152
						c0.25,0.087,0.463,0.394,0.652,0.709c-0.116-0.064-0.239-0.132-0.36-0.2c0.213,0.335,0.458,0.697,0.732,0.953
						c-0.036-0.068-0.051-0.142-0.043-0.199c0.058,0.09,0.114,0.167,0.166,0.206c0.055,0.041-0.019-0.085-0.094-0.24l0.551,0.458
						l-0.185-0.215l0.621,0.017c-0.28-0.73-0.826-1.674-0.681-2.227c0.279,0.459,0.578,0.629,1.007,1.077
						c-0.554-0.375-0.077,0.465-0.352,0.548c0.143-0.043,0.328,0.188,0.376,0.286l-0.092-0.744c0.347,0.37,0.334,0.204,0.565,0.271
						c-0.764-0.653-0.224-0.713-0.307-1.062c0.244,0.232,0.452,0.509,0.234,0.608c0.705,0.365-0.593-1.065,0.029-0.778
						c-0.034,0.044-0.091,0.028,0.013,0.166c-0.117-0.304,0.273-0.354,0.425-0.092l-0.034,0.043
						c0.343-0.169,0.797-0.767,0.243-1.415c0.08,0.076,0.682,0.768,0.786,0.906l-1.531-2.504c0.468,0.563,1.838,1.657,1.911,2.163
						c0.134,0.014,0.296,0.027,0.247-0.286c-0.115-0.033-0.842-0.654-0.831-0.759c0.726,0.429,0.414,0.205,1.092,0.511
						c-0.173-0.05-0.9-0.941-0.774-1.013c0.104,0.138,0.796,0.804,0.842,0.925l-0.533-1.05c0.079,0.206,0.652,0.695,0.929,0.869
						c-0.179-0.133,0.229-0.196,0.219-0.339l-0.287-0.085c0.4-0.15-0.82-1.405-0.496-1.633c0.127,0.2,0.908,1.11,1.148,1.076
						c-0.334-0.477-1.628-2.276-1.682-2.838l0.275,0.192l-0.065-0.456c0.477,0.743,1.401,2.382,1.712,3.067
						c0.286,0.087,0.298,0.252,0.436,0.079c0.269,0.17,0.238,0.42,0.204,0.478l0.505-0.207c-0.481-0.471-0.185-0.757-0.584-1.149
						l0.081,0.886c-0.48-0.469-1.086-1.601-0.741-1.767c0.251,0.13,0.774,0.916,0.935,1.072c-0.126-0.2-0.056-0.558,0.081-0.461
						l0.136,0.367c0.319,0.045-0.375-0.874,0.241-0.575c0.09-0.027,0.774,0.458,0.511,0.158c-0.624-0.465-2.272-2.172-2.601-2.655
						c0.056,0.016,0.826,0.229,1.157,0.442c0.513,0.346,0.828,1.187,1.268,1.484c-0.122-0.138-0.221-0.354-0.248-0.429
						c0.171,0.055,0.362,0.44,0.445,0.251c-0.442-0.52,0.323-0.22-0.327-0.482c0.004-0.269,0.241-0.031,0.382-0.201
						c-0.351-0.276-0.874-1.233-0.866-1.505c0.109,0.135,0.293,0.272,0.378,0.334c0.325-0.215,0.686-0.126,0.953-0.364
						c0.135,0.1,0.396,0.131,0.539,0.398c-0.043-0.124-0.164-0.327-0.094-0.414c0.551,0.293-0.119,0.234,0.475,0.65
						c-0.255-0.303-0.158-0.598-0.207-0.888c-0.444-0.423-0.346,0.159-0.295,0.448c-0.565-0.624-0.959-1.47-0.934-2.013
						c0.089-0.354,0.462,0.321,0.421,0.197c0.524-0.259-0.609-1.423,0.151-1.276c0.495,0.283,0.708,0.802,0.994,1.067
						c-0.05,0.313-0.507-0.012-0.619,0.113l0.322,0.058c0.059,0.186,0.026,0.394-0.144,0.334c0.436,0.261,0.777-0.551,1.394-0.496
						c-0.06-0.187-0.08-0.416-0.268-0.54l-0.055,0.147c-0.377-0.247-0.193-0.625-0.457-0.665c-0.058-0.354-0.208-0.857,0.148-0.842
						l0.432,0.438c-0.119-0.134-0.364-0.167-0.3,0.023c-0.09-0.279,0.833,0.371,0.414-0.317l-0.414-0.208
						c-0.056-0.357-0.282-1.003,0.025-1.004c-0.469-0.4,0.002,0.087-0.582-0.354c0.675,0.587-0.499,0.354,0.277,0.917
						c-0.657-0.519-0.447-0.073-1.07-0.462c0.136,0.15,0.31,0.243,0.096,0.297c0.032,0.051,0.064,0.122,0.083,0.165l-0.02-0.003
						l0.024,0.011c0.013,0.029,0.017,0.034,0.008,0.003c0.093,0.037,0.19,0.093,0.275,0.169c0.226,0.418-0.019,0.611,0.058,0.863
						c-0.15,0.003-0.114-0.208-0.303-0.33l0.115,0.376c-0.304-0.331-0.722-0.362-0.685-0.742l-0.201,0.148
						c-0.276-0.095-0.495-0.037-0.465,0.187c-0.153,0.004,0.104,0.568-0.051,0.237l-0.11,0.464L33.78,21.79
						c-0.334,0.208-0.091,1.076-0.955,0.771c-0.019,0.171-0.022,0.363-0.266,0.414l-0.293-0.258
						c-0.029,0.211-0.628,0.05-0.406,0.396c-0.841-0.647-0.747,0.377-1.087,0.438l0.339,0.377c-0.168,0.114-0.205,0.351-0.243,0.668
						l0.319,0.315c0.1,0.413-0.612,0.144-0.823,0.409c-0.102-0.14-0.009-0.166,0.105-0.133c-0.988-0.456-0.101,1.116-0.873,0.833
						c0.047,0.18-0.038,0.185-0.162,0.147c0.005-0.006,0.005-0.018,0-0.032c-0.01,0.002-0.021,0.011-0.03,0.021
						c-0.083-0.028-0.174-0.064-0.256-0.085c0.103,0.052,0.191,0.092,0.243,0.1c-0.044,0.055-0.082,0.168-0.078,0.32l-0.367-0.316
						c-0.001,0.01-0.007,0.014-0.008,0.026c-0.197-0.058,0.1,0.221,0.39,0.444c0.018,0.093,0.049,0.194,0.103,0.303
						c-0.601-0.502-0.012,0.376-0.669-0.141c0.232,0.338-0.159,0.58,0.395,1.228c-0.08-0.077-0.138-0.094-0.103-0.137
						c-0.15,0.01-0.299,0.021-0.206,0.265l-0.461-0.405l0.395,0.765c-0.369-0.162-0.565-0.273-0.786-0.716
						c0.244,0.774-0.022,0.402,0.258,1.133l-0.266-0.294c-0.068,0.088,0.175,0.591-0.102,0.404
						c-0.704-0.365-0.951,0.782-1.892,0.725c0.903,0.748-0.576-0.168,0.038,0.496c-0.219-0.171-0.391-0.221-0.485-0.464
						c-0.042,0.42-0.653,0.027-0.281,0.729c-0.22-0.172-0.232-0.338-0.371-0.432c0.023,0.061,0.094,0.244-0.045,0.149
						c-0.138-0.094-0.128-0.199-0.175-0.321c-0.204,0.264,0.365,0.896,0.905,1.484c-0.383-0.153-0.406-0.057-0.127,0.402
						c-0.224-0.146-0.484-0.273-0.402-0.484c-0.109,0.054-0.771,0.22-0.334,0.685c-0.139-0.091-0.149,0.078-0.12,0.152
						c-0.212,0.152-0.269,0.127-0.41,0.347l0.124,0.026c0.464,0.624-0.033,0.271-0.116,0.479l-0.05-0.061
						c-0.724-0.074,0.039,0.333-0.735,0.197l0.351,0.328c0.684,0.773-0.717-0.153-0.637,0.317l0.259,0.13
						c0.138,0.357-1.266-0.728-1.46-0.72c-0.085-0.042-0.063-0.139-0.077-0.218c-0.697-0.173,0.398,0.489,0.292,0.794
						c-0.272-0.209-0.545-0.669-0.729-0.584c-0.258-0.134,0.352,1.178-0.287,0.886c0.222,0.15,0.443,0.301,0.48,0.534
						c-0.085,0.208-1.078-0.343-0.648,0.383c-0.067-0.034-0.122-0.077-0.167-0.124c0.032,0.261-0.128,0.604,0.107,0.995
						c-1.231-1.117-0.161,1.255-1.194,0.13l-0.299,0.379l-0.096-0.124c-0.294,0.128-0.128,0.471,0.038,0.814
						c-0.123-0.03-0.18-0.17-0.229-0.233c-0.539,0.069-0.526,0.145-0.298,0.963l-0.359-0.344c0.115,0.284-0.994-0.153-0.936,0.572
						c-0.034-0.045-0.091-0.124-0.111-0.199c0.018,0.777-1.783-0.286-0.743,1.205l0.041,0.547c0.413-0.164,0.458,0.638,0.785,0.754
						c-0.06,0.189-0.681-0.138-0.584-0.341l0.083,0.049c-0.55-0.767-0.615,0.082-1.018-0.417c-0.599,0.57-1.541,0.681-2.171,1.103
						l0.522,0.521l-0.238,0.131c-0.161-0.091-0.427-0.394-0.258-0.485c-0.334-0.266-0.038,0.468,0.055,0.598
						c-0.477-0.006-0.409-0.763-0.51-0.707l-0.088,0.138l0.08,0.046c0.084,0.313,0.269,0.57,0.066,0.682
						c-0.204-0.027-0.333-0.313-0.395-0.301c-0.031-0.041-0.061-0.049-0.082,0.037l-0.302,0.155l0.454,0.378
						c0.054,0.318-0.269,0.17,0.249,0.597c-0.781-0.655-1.219,0.471-1.526,0.286c0.075,0.46-0.1,0.573-0.339,0.677
						c0.121,0.062,0.526,0.571,0.297,0.634c-0.7-1.146-0.666-0.245-1.354-0.94c0.49,0.438-0.42,0.485,0.29,1.096
						c-0.211,0.015-0.289-0.41-0.578-0.593c-0.065,0.693-0.977,0.244-1.333,0.66c0.085,0.153,0.305,0.335,0.345,0.617l-0.703-0.603
						c-0.043,0.127,0.446,0.917-0.035,0.495c0.1,0.113,0.25,0.282,0.219,0.367c-0.671-0.099-1.028,0.338-1.456,0.673
						c-0.434,0.31-0.929,0.547-1.75,0.061c0.277,0.241,0.209,0.313,0.118,0.374c0.099,0.042,0.191,0.39,0.309,0.598l-0.684-0.396
						c0.214,0.633-0.399,0.254-0.174,0.848l0.078-0.167c0.144,0.764,0.941,1.382,1.332,2.258c-0.173-0.864,1.084,0.859,0.877-0.397
						c0.161,0.137,0.077,0.307,0.216,0.485c-0.101-0.409-0.04-0.536,0.232-0.468l0.026,0.101c0.476-0.365,0.911-0.096,1.621-0.206
						L9.11,48.604c0.153-0.019,0.252,0.095,0.369,0.163c-0.217-0.708-0.363,0.172-0.626-0.594c0.639,0.74,0.859-0.503,1.528,0.372
						c0.192-0.11-0.337-0.437-0.146-0.546l0.203,0.224l-0.15-0.355c0.155-0.021,0.411,0.258,0.547,0.469
						c-0.046-0.007-0.049,0.112-0.071,0.15c0.345,0.199,0.395-0.379,0.509-0.315l-0.279-0.044c0.372-0.544,1.215-0.603,1.343-1.446
						l-0.16-0.161c0.126-0.592,0.425,0.003,0.712-0.429l0.016,0.054c-0.047-0.238-0.007-0.403,0.115-0.457
						c0.05,0.284,0.479,0.286,0.515,0.614c0.136-0.635-0.006-0.42-0.233-1.274l0.275,0.26c-0.109-0.333-0.205-0.481-0.067-0.694
						c0.027,0.369,0.458,0.37,0.525,0.835c0.901,0.369,0.112-1.1,1.005-0.287c-0.434-0.962-0.684-0.191-0.713-0.446
						c-0.284-0.204-0.309-0.731-0.125-0.743c0.138-0.078,1.002,0.884,1.311,0.62c-0.035,0.021,0.01,0.084-0.024,0.105
						c0.279,0.115,0.018-0.462,0.424-0.239c-0.298-0.554,0.212-0.12-0.25-0.762l-0.179,0.37c0.04-0.293-0.377-1.142,0.168-0.996
						c0.078,0.142,0.127,0.369,0.144,0.504c0.224,0.122,0.057-0.24,0.288-0.115c0.467,0.641-0.247,0.409-0.055,1.024
						c0.292,0.197-0.015-0.713,0.423,0.032c-0.544-0.958,0.402-0.137,0.101-0.958l0.281,0.382c-0.012-0.085-0.081-0.315-0.01-0.354
						l0.27,0.569c-0.153-0.547,0.631,0.096,0.616-0.263c-0.34,0.291-0.438-0.381-0.803-0.534c0.028-0.833,1.025,0.765,1.356,0.194
						c-0.022,0.105-0.42-0.02-0.46-0.273c0.151,0,0.385,0.042,0.599,0.188c0.249-0.339-0.359-0.336-0.412-0.672
						c0.475,0.356,0.002-0.31,0.019-0.565l0.31,0.37c0.552-0.06-0.552-0.849,0.004-0.829l0.297,0.624l0.054-0.271l0.32,0.448
						c-0.082-0.463,0.042-0.43,0.319-0.462c-0.262-0.224-0.545-0.686-0.4-0.828c0.293,0.128,0.239,0.398,0.416,0.16
						c0.147,0.271,0.339,0.604-0.047,0.349c0.092,0.127,0.147,0.271,0.238,0.398c0.33,0.153,0.34-0.188,0.417-0.259
						c-0.043,0.013-0.097,0.024-0.161-0.012l-0.116-0.776c0.169,0.094,0.225,0.238,0.278,0.379c0.032-0.094-0.071-0.301-0.006-0.415
						c0.234,0.317,0.506,0.617,0.495,0.874l0.012-0.594c0.132,0.11,0.462,0.215,0.519,0.358c0.319,0.024-0.098-0.934,0.323-0.902
						c-0.04-0.067-0.065-0.142-0.056-0.226c0.264-0.117,0.769,0.076,0.652-0.542l0.61,0.397c0.084-0.29-0.782-0.489-0.643-0.969
						c0.073-0.367,0.487,0.368,0.698,0.442c-0.128-0.364-0.417-1.065,0.169-0.833C22.736,39.25,22.615,39.223,22.586,39.318z
						 M24.662,36.947c0.025,0.115,0.152,0.424-0.076,0.248C24.256,36.747,24.477,36.902,24.662,36.947z M27.255,32.827
						c0.08,0.146-0.025,0.137-0.208,0.061C27.06,32.82,27.119,32.788,27.255,32.827z M34.524,21.322
						c0.003,0.008,0.006,0.013,0.01,0.022C34.308,21.292,34.393,21.316,34.524,21.322z M34.877,21.293
						c-0.022-0.07-0.067-0.119-0.121-0.162c0.064,0.105,0.021,0.153-0.056,0.175C34.799,21.389,34.883,21.431,34.877,21.293z
						 M13.12,41.522l0.118,0.068C13.229,41.773,13.179,41.653,13.12,41.522z"/>
					<path fill="#FFFFFF" d="M27.334,33.673c-0.069-0.046-0.135-0.107-0.201-0.17C27.173,33.578,27.238,33.645,27.334,33.673z"/>
					<polygon fill="#FFFFFF" points="21.293,40.818 21.282,40.821 21.333,40.892 					"/>
					<path fill="#FFFFFF" d="M34.413,27.216c-0.089-0.013-0.172-0.056-0.25-0.108C34.241,27.196,34.328,27.252,34.413,27.216z"/>
					<path fill="#FFFFFF" d="M35.493,19.676l-0.06,0.216c0.052-0.076,0.143-0.017,0.227,0.014
						C35.585,19.822,35.453,19.719,35.493,19.676z"/>
					<path fill="#FFFFFF" d="M38.612,21.006c-0.016-0.063,0.04-0.039,0.022-0.102l-0.144-0.172
						C38.412,20.813,38.464,21.003,38.612,21.006z"/>
					<path fill="#FFFFFF" d="M36.652,20.802c0.27,0.303,0.271,0.126,0.323-0.011c-0.005,0.006-0.009,0.013-0.018,0.014
						C36.625,20.343,36.638,20.574,36.652,20.802z"/>
					<path fill="#FFFFFF" d="M36.989,20.762c0.019-0.039,0.043-0.072,0.085-0.081C36.942,20.496,37.007,20.674,36.989,20.762z"/>
					<path fill="#FFFFFF" d="M34.975,20.853c0.114,0.04-0.308-0.419-0.175-0.316C34.515,20.1,34.9,21.277,34.975,20.853z"/>
					<polygon fill="#FFFFFF" points="37.584,21.768 37.23,21.41 37.433,21.765 					"/>
					<path fill="#FFFFFF" d="M36.595,22.123l0.241-0.025c-0.057-0.062-0.069-0.117-0.07-0.166
						C36.662,22,36.495,22.013,36.595,22.123z"/>
					<path fill="#FFFFFF" d="M36.766,21.933c0.055-0.035,0.094-0.083,0.068-0.169C36.811,21.79,36.765,21.852,36.766,21.933z"/>
					<polygon fill="#FFFFFF" points="37.468,22.053 37.355,22.011 37.226,22.075 					"/>
					<path fill="#FFFFFF" d="M34.906,23.46l-0.068,0.251c0.099,0.144,0.211,0.18,0.228,0.077
						C35.025,23.665,35.042,23.562,34.906,23.46z"/>
					<path fill="#FFFFFF" d="M36.311,24.058c-0.112-0.04-0.189-0.122-0.323-0.224l0.406,0.47L36.311,24.058z"/>
					<path fill="#FFFFFF" d="M35.934,24.577c0.098,0.143,0.095,0.572,0.274,0.366C36.11,24.801,36.177,24.553,35.934,24.577z"/>
					<polygon fill="#FFFFFF" points="33.002,26.2 33.037,26.157 32.334,25.42 					"/>
					<path fill="#FFFFFF" d="M32.61,29.945c0.354,0-0.393-0.494-0.015-0.434c-0.124-0.214-0.309-0.049-0.409-0.241
						C32.251,29.56,32.093,29.512,32.61,29.945z"/>
					<path fill="#FFFFFF" d="M32.187,29.271c-0.01-0.046-0.025-0.099-0.05-0.166C32.148,29.181,32.167,29.231,32.187,29.271z"/>
					<polygon fill="#FFFFFF" points="4.695,46.194 4.468,46.072 4.702,46.337 					"/>
					<path fill="#FFFFFF" d="M4.746,47.016l-0.303-0.573l0.16,0.577C4.623,46.977,4.661,46.895,4.746,47.016z"/>
					<path fill="#FFFFFF" d="M25.902,37.573l-0.099-0.122c-0.135-0.104-0.172-0.086-0.247-0.051L25.902,37.573z"/>
					<polygon fill="#FFFFFF" points="23.903,38.785 23.941,38.768 23.487,38.388 					"/>
					<path fill="#FFFFFF" d="M22.996,40.642c0.076-0.035,0.057-0.194,0.133-0.229C23.071,40.607,22.487,40.115,22.996,40.642z"/>
				</g>
			</g>
		</g>
	</g>
</g>
<g>
	<g>
		<g>
			<g>
				<g>
					<path fill="#FFFFFF" d="M39.061,18.977c-0.075-0.059-0.159,0.353-0.193,0.421C39.044,19.35,39.084,18.871,39.061,18.977z"/>
					<path fill="#FFFFFF" d="M40.766,15.17l0.119-0.125c-0.007-0.007-0.39,0.241-0.39,0.241S40.76,15.165,40.766,15.17z"/>
					<path fill="#FFFFFF" d="M39.888,14.614c-0.28,0.662,0.363,0.078,0.388,0.391l-0.061,0.154l0.376-0.441
						C40.343,14.667,39.916,14.86,39.888,14.614z"/>
					<path fill="#FFFFFF" d="M40.185,13.01c-0.105,0.26-0.216,0.154,0.067,0.137c0.006-0.032,0.01-0.049,0.014-0.072
						C40.246,13.067,40.22,13.052,40.185,13.01z"/>
					<path fill="#FFFFFF" d="M40.267,13.074C40.369,13.108,40.319,12.836,40.267,13.074L40.267,13.074z"/>
					<path fill="#FFFFFF" d="M39.767,12.983l0.238-0.154c0.053-0.158-0.039-0.249,0.058-0.333
						C39.874,12.55,39.824,12.708,39.767,12.983z"/>
					<path fill="#FFFFFF" d="M39.409,13.383l0.111-0.06C39.541,13.256,39.536,13.227,39.409,13.383z"/>
					<path fill="#FFFFFF" d="M39.755,13.197l-0.235,0.125c-0.037,0.111-0.145,0.316,0.098-0.039
						C39.507,13.465,39.628,13.299,39.755,13.197z"/>
					<path fill="#FFFFFF" d="M39.778,13.333c-0.007,0.173,0.031,0.305-0.205,0.458C39.844,13.827,40.055,13.371,39.778,13.333z"/>
					<path fill="#FFFFFF" d="M39.478,15.23l-0.02,0.229l0.193-0.165C39.555,15.376,39.584,15.033,39.478,15.23z"/>
					<path fill="#FFFFFF" d="M39.188,12.265c-0.076,0.131-0.143,0.381-0.223,0.559l0.168-0.11
						C39.135,12.598,39.092,12.468,39.188,12.265z"/>
					<path fill="#FFFFFF" d="M38.965,12.824l-0.25,0.166C38.819,13.076,38.896,12.977,38.965,12.824z"/>
					<polygon fill="#FFFFFF" points="39.017,14.072 39.486,13.702 38.973,14.057 					"/>
					<polygon fill="#FFFFFF" points="38.682,11.991 38.914,11.713 38.543,12.123 					"/>
					<path fill="#FFFFFF" d="M38.311,11.879c0.183-0.234,0.133-0.482,0.271-0.615c-0.118,0.001-0.309,0.188-0.477,0.357
						C38.237,11.544,38.309,11.613,38.311,11.879z"/>
					<path fill="#FFFFFF" d="M37.844,11.861c0.069-0.045,0.161-0.14,0.262-0.239C38.036,11.663,37.955,11.731,37.844,11.861z"/>
					<path fill="#FFFFFF" d="M38.525,12.81c0.031-0.087,0.118-0.313,0.088-0.44l-0.137,0.409L38.525,12.81z"/>
					<path fill="#FFFFFF" d="M38.471,12.791l0.004-0.013c-0.051-0.038-0.086-0.065-0.102-0.077
						C38.386,12.712,38.415,12.739,38.471,12.791z"/>
					<path fill="#FFFFFF" d="M38.537,12.818l-0.012-0.008C38.511,12.85,38.508,12.864,38.537,12.818z"/>
					<path fill="#FFFFFF" d="M38.859,13.553c-0.187,0.172-0.459,0.321-0.475,0.722C38.572,14.043,38.58,13.813,38.859,13.553z"/>
					<path fill="#FFFFFF" d="M38.362,13.328l0.094,0.157c0.048-0.102,0.097-0.262,0.188-0.349L38.362,13.328z"/>
					<polygon fill="#FFFFFF" points="38.234,13.416 38.362,13.328 38.327,13.27 					"/>
					<path fill="#FFFFFF" d="M37.923,12.34c-0.142,0.139-0.216,0.121-0.305,0.112c0.046,0.115,0.111,0.196,0.192,0.232
						C37.879,12.568,38.019,12.368,37.923,12.34z"/>
					<path fill="#FFFFFF" d="M38.175,12.592l-0.024,0.015C38.144,12.644,38.146,12.658,38.175,12.592z"/>
					<path fill="#FFFFFF" d="M36.84,12.101c-0.005,0.023-0.012,0.052-0.018,0.077l0.032-0.066L36.84,12.101z"/>
					<path fill="#FFFFFF" d="M37.79,12.763c0.025,0.104,0.106,0.026,0.198-0.076c-0.064,0.017-0.124,0.019-0.177-0.003
						C37.779,12.736,37.761,12.772,37.79,12.763z"/>
					<path fill="#FFFFFF" d="M37.544,11.943c-0.004,0.096,0.002,0.182,0.012,0.264C37.581,12.069,37.602,11.847,37.544,11.943z"/>
					<path fill="#FFFFFF" d="M38.182,12.491l0.018-0.013C38.219,12.386,38.203,12.428,38.182,12.491z"/>
					<path fill="#FFFFFF" d="M38.182,12.491c-0.059,0.04-0.129,0.124-0.194,0.196c0.052-0.012,0.106-0.037,0.164-0.08
						C38.159,12.577,38.171,12.532,38.182,12.491z"/>
					<path fill="#FFFFFF" d="M35.555,14.537c0.156-0.363,0.458-0.637,0.423-0.188c0.247-0.217,0.688-1.445,0.844-2.171
						c-0.072,0.157-0.135,0.303-0.376,0.457c-0.026,0.222,0.125,0.603-0.136,0.88c-0.265,0.108-0.099-0.193-0.112-0.426
						c-0.11,0.487-0.513,0.567-0.733,1.262l0.25-0.175C35.675,14.28,35.551,14.424,35.555,14.537z"/>
					<path fill="#FFFFFF" d="M37.09,12.338l0.08-0.018c-0.041-0.094-0.024-0.26,0.004-0.585c-0.182,0.132-0.261,0.258-0.32,0.376
						l0.281,0.182L37.09,12.338z"/>
					<path fill="#FFFFFF" d="M37.438,12.44c-0.227,0.371-0.44,0.474-0.548,0.938c0.179,0.049,0.267-0.273,0.447-0.396
						c-0.32-0.029,0.18-0.182,0.083-0.495c0.085-0.042,0.144-0.039,0.199-0.034c-0.028-0.07-0.05-0.152-0.063-0.245l-0.004,0.027
						l0.002,0l-0.003,0.006c-0.01,0.054-0.02,0.086-0.021,0.051c-0.003,0.004-0.007,0.004-0.01,0.005
						c-0.029,0.052-0.055,0.098-0.08,0.142c-0.044-0.118,0.034-0.107,0.08-0.142l0.03-0.057l0.001-0.005L37.17,12.32
						C37.206,12.402,37.287,12.424,37.438,12.44z"/>
					<path fill="#FFFFFF" d="M37.825,15.03c0.009-0.038,0.023-0.065,0.037-0.093C37.822,14.975,37.799,15.004,37.825,15.03z"/>
					<path fill="#FFFFFF" d="M37.838,14.745c0.046-0.044,0.139-0.19,0.18-0.12c-0.006,0.142-0.094,0.184-0.155,0.312
						c0.088-0.083,0.269-0.21,0.249-0.455l-0.045,0.043c-0.036-0.185,0.07-0.733,0.114-0.777
						C38.038,14.11,37.94,14.371,37.838,14.745z"/>
					<path fill="#FFFFFF" d="M37.604,13.69l-0.312,0.085l-0.049,0.39l0.091-0.205C37.42,14.1,37.513,13.838,37.604,13.69z"/>
					<polygon fill="#FFFFFF" points="36.896,11.891 37.106,11.487 36.709,12.017 					"/>
					<polygon fill="#FFFFFF" points="36.535,11.803 36.694,11.44 36.511,11.625 					"/>
					<path fill="#FFFFFF" d="M18.574,10.698l-0.101,0.089C18.516,10.762,18.548,10.732,18.574,10.698z"/>
					<path fill="#FFFFFF" d="M19.063,10.858l0.067-0.184C19.077,10.771,19.045,10.845,19.063,10.858z"/>
					<path fill="#FFFFFF" d="M29.484,8.922c0.026-0.381,0.106-0.958-0.032-0.535l-0.116,0.418
						C29.433,8.755,29.47,8.819,29.484,8.922z"/>
					<path fill="#FFFFFF" d="M23.696,9.734c-0.001,0.043-0.003,0.091-0.005,0.137c0.061-0.136,0.116-0.262,0.168-0.38
						C23.809,9.566,23.754,9.648,23.696,9.734z"/>
					<path fill="#FFFFFF" d="M23.184,11.451l-0.062-0.306C23.128,11.248,23.146,11.349,23.184,11.451z"/>
					<path fill="#FFFFFF" d="M15.743,10.267l-0.22,0.392C15.648,10.699,15.664,10.469,15.743,10.267z"/>
					<path fill="#FFFFFF" d="M33.671,10.782c-0.014-0.191-0.051-0.285-0.101-0.33C33.569,10.724,33.497,11.1,33.671,10.782z"/>
					<path fill="#FFFFFF" d="M20.081,6.337c-0.063,0.064-0.105,0.145-0.131,0.238C20.013,6.515,20.06,6.442,20.081,6.337z"/>
					<path fill="#FFFFFF" d="M33.328,10.349c-0.003,0.046,0.003,0.072,0.003,0.112c0.09-0.04,0.176-0.066,0.239-0.008
						C33.571,10.25,33.532,10.108,33.328,10.349z"/>
					<path fill="#FFFFFF" d="M6.35,6.136c0.001-0.021-0.003-0.033,0-0.057C6.324,6.131,6.332,6.138,6.35,6.136z"/>
					<path fill="#FFFFFF" d="M5.598,0.938c0.037-0.012,0.079,0.007,0.121,0.021C5.712,0.922,5.679,0.91,5.598,0.938z"/>
					<path fill="#FFFFFF" d="M35.644,11.264C35.718,11.266,35.674,11.226,35.644,11.264L35.644,11.264z"/>
					<path fill="#FFFFFF" d="M35.187,12.935c-0.035,0.038-0.072,0.089-0.118,0.179C35.12,13.022,35.158,12.966,35.187,12.935z"/>
					<path fill="#FFFFFF" d="M31.644,12.56l-0.004-0.003C31.624,12.642,31.626,12.625,31.644,12.56z"/>
					<path fill="#FFFFFF" d="M35.65,11.482c0-0.058-0.007-0.11-0.023-0.151C35.626,11.368,35.631,11.416,35.65,11.482z"/>
					<path fill="#FFFFFF" d="M35.728,11.292c0.015,0.026,0.026,0.044,0.036,0.062C35.804,11.293,35.817,11.249,35.728,11.292z"/>
					<path fill="#FFFFFF" d="M35.546,11.247c0.039,0.009,0.063,0.042,0.081,0.084c0.001-0.032,0.006-0.056,0.016-0.067
						C35.622,11.262,35.593,11.259,35.546,11.247z"/>
					<path fill="#FFFFFF" d="M11.808,7.218c0-0.014,0.001-0.024,0.002-0.043C11.682,7.317,11.72,7.301,11.808,7.218z"/>
					<polygon fill="#FFFFFF" points="26.392,12.643 26.405,12.625 26.401,12.608 					"/>
					<path fill="#FFFFFF" d="M26.079,12.88c0.257-0.484,0.289-0.403,0.322-0.272l0.318-1.212L26.079,12.88z"/>
					<path fill="#FFFFFF" d="M17.355,10.462l0.045,0.427c-0.385,0.546-0.463,0.287-0.474,0.862c0.428-1.29,0.673,0.087,1.094-1.217
						l0.024,0.303c-0.027-0.021-0.055,0.054-0.082,0.033c0.02,0.679,0.44-0.897,0.65-0.64c0.063,0.125,0.072,0.332-0.038,0.469
						l0.304-0.266c0.053,0.042-0.029,0.264-0.082,0.223l0.347-0.018l-0.014,0.038c0.105-0.192,0.3-0.48,0.389-0.602
						c0.025,0.208-0.081,0.127-0.107,0.295l0.267-0.269c-0.027,0.357-0.268,0.646-0.375,0.564c-0.216,1.347,0.241-0.289,0.374,0.568
						l-0.214,0.12c-0.106,0.77,0.102,0.537,0.159,1.05c0.023-0.254-0.044-1.266,0.24-1.54c0.025,0.113,0.083,0.179,0.261-0.056
						c-0.131,0.464,0.001,0.377,0.135,0.385l-0.183,0.613c0.187-0.141,0.264-0.457,0.422-0.712c0.134,0.102,0.032,0.587-0.043,1
						c0.216,0.164,0.045-0.811,0.365-0.849c0.136,0.291,0.348,0.077,0.689-0.227c0.083,0.25-0.127,0.371-0.125,0.561l0.258-0.458
						c0.027,0.02-0.023,0.168-0.049,0.244c0.157-0.163,0.175-0.615,0.385-0.738c0.226-0.669,0.073,1.086,0.482,0.369
						c0.004,0.189-0.124,0.373-0.171,0.616c0.414-0.432,0.338-0.304,0.744-0.926l0.09,0.46c-0.024-0.503,0.303-1.008,0.574-1.411
						c0.008-0.242,0.016-0.451,0.011-0.552l0.337-0.253c0.004,0.112-0.077,0.316-0.185,0.561c0.029-0.046,0.058-0.092,0.084-0.133
						c0.03,0.258-0.11,0.6-0.263,0.925c0.003-0.132,0.007-0.272,0.01-0.412c-0.157,0.355-0.321,0.755-0.401,1.122
						c0.036-0.067,0.081-0.118,0.124-0.142c-0.042,0.097-0.075,0.185-0.084,0.249c-0.009,0.068,0.052-0.061,0.132-0.205
						l-0.124,0.708l0.084-0.27l0.2,0.536c0.407-0.619,0.885-1.572,1.336-1.733c-0.234,0.473-0.252,0.815-0.426,1.41
						c0.079-0.664-0.354,0.176-0.502-0.014c0.079,0.099-0.021,0.376-0.073,0.467l0.489-0.465c-0.145,0.486-0.033,0.389-0.004,0.619
						c0.209-0.985,0.43-0.559,0.652-0.809c-0.086,0.326-0.215,0.644-0.356,0.512c-0.032,0.783,0.565-1.051,0.564-0.377
						c-0.042-0.005-0.05-0.063-0.114,0.096c0.18-0.255,0.343,0.048,0.204,0.311l-0.042-0.007c0.231,0.202,0.806,0.275,1.108-0.521
						c-0.031,0.105-0.349,0.965-0.417,1.123l1.371-2.561c-0.271,0.68-0.657,2.385-1.006,2.704c0.031,0.12,0.069,0.261,0.284,0.06
						c-0.009-0.113,0.226-1.038,0.307-1.082c-0.094,0.826-0.023,0.451-0.046,1.173c-0.014-0.17,0.427-1.23,0.52-1.161
						c-0.072,0.157-0.359,1.072-0.435,1.173l0.624-0.978c-0.131,0.17-0.324,0.896-0.373,1.215c0.046-0.216,0.212,0.092,0.316,0.009
						l-0.021-0.281c0.229,0.254,0.819-1.395,1.094-1.242c-0.116,0.207-0.577,1.314-0.481,1.495c0.263-0.52,1.262-2.499,1.691-2.823
						l-0.066,0.324l0.333-0.266c-0.435,0.742-1.435,2.34-1.862,2.944c0.016,0.28-0.106,0.374,0.064,0.398
						c-0.053,0.307-0.251,0.41-0.304,0.412l0.297,0.307c0.226-0.643,0.517-0.512,0.706-1.042c0,0-0.161,0.12-0.322,0.239
						c-0.163,0.128-0.325,0.257-0.325,0.257c0.22-0.637,0.916-1.708,1.135-1.474c-0.031,0.278-0.484,1.093-0.56,1.305
						c0.117-0.201,0.405-0.305,0.369-0.142l-0.241,0.287c0.049,0.297,0.562-0.726,0.497-0.055c0.044,0.066-0.147,0.88,0.012,0.516
						c0.192-0.753,1.056-2.964,1.34-3.469c0.003,0.058,0.052,0.823-0.023,1.203c-0.129,0.6-0.695,1.26-0.806,1.775
						c0.073-0.168,0.214-0.354,0.264-0.411c0.003,0.172-0.242,0.515-0.075,0.497c0.284-0.62,0.255,0.174,0.285-0.504
						c0.209-0.121,0.089,0.191,0.257,0.233c0.12-0.428,0.726-1.319,0.941-1.437c-0.076,0.156-0.134,0.377-0.16,0.478
						c0.256,0.179,0.282,0.528,0.539,0.646c-0.043,0.161,0,0.398-0.172,0.643c0.086-0.094,0.214-0.291,0.301-0.271
						c-0.088,0.604-0.214,0.006-0.387,0.704c0.171-0.357,0.428-0.409,0.644-0.585c0.218-0.572-0.215-0.222-0.429-0.045
						c0.342-0.771,0.903-1.491,1.345-1.724c0.309-0.094-0.131,0.538-0.043,0.445c0.35,0.313,0.976-1.182,1.065-0.478
						c-0.093,0.546-0.452,0.969-0.588,1.333c-0.264,0.107-0.127-0.428-0.258-0.461l0.041,0.295
						c-0.133,0.137-0.308,0.208-0.307,0.039c-0.092,0.487,0.651,0.385,0.771,0.923c0.134-0.138,0.313-0.263,0.362-0.478
						l-0.132,0.024c0.097-0.43,0.451-0.457,0.413-0.694c0.269-0.215,0.634-0.578,0.718-0.273l-0.237,0.564
						c0.076-0.162,0.038-0.382-0.099-0.238c0.133-0.138,0.056,0.29,0.118,0.395l-0.143-0.053c0.055,0.053,0.123,0.016,0.244-0.231
						c-0.021-0.139-0.047-0.28-0.112-0.297c0.104-0.007,0.208-0.014,0.293,0.018l0.024-0.08l0.025-0.02l-0.295-0.109
						c0.307-0.25,0.749-0.737,0.895-0.482c0.109-0.605-0.071,0.048,0.004-0.679c-0.071,0.442-0.223,0.378-0.383,0.323
						c-0.191-0.062-0.376-0.107-0.331,0.385c-0.001-0.087-0.006-0.161-0.015-0.224l0.439,0.161c0.126-0.517-0.104-0.271,0.025-0.901
						c-0.084,0.184-0.112,0.373-0.214,0.219c-0.033,0.05-0.081,0.111-0.11,0.146l-0.003-0.018l-0.002,0.025
						c-0.02,0.024-0.023,0.03,0,0.009c-0.004,0.095-0.023,0.202-0.062,0.309c-0.277,0.385-0.499,0.272-0.681,0.455
						c-0.043-0.124,0.137-0.193,0.184-0.408l-0.271,0.273c0.184-0.409,0.094-0.772,0.412-0.921l-0.175-0.098
						c0-0.275-0.107-0.431-0.279-0.3c-0.046-0.126-0.429,0.355-0.205,0.069l-0.404,0.127l0.044-0.103
						c-0.262-0.176-0.886,0.424-0.88-0.458c-0.141,0.062-0.295,0.146-0.403-0.04l0.124-0.37c-0.176,0.071-0.217-0.519-0.429-0.169
						c0.275-1.02-0.512-0.472-0.657-0.737l-0.2,0.466c-0.138-0.091-0.335-0.02-0.595,0.089l-0.155,0.421
						c-0.293,0.273-0.287-0.473-0.555-0.539c0.079-0.153,0.126-0.083,0.134,0.033c0.068-1.087-0.904,0.439-0.923-0.343
						c-0.127,0.129-0.158,0.061-0.169-0.062c0.007,0.001,0.016-0.004,0.025-0.016c-0.005-0.007-0.016-0.012-0.027-0.015
						c-0.004-0.083-0.006-0.178-0.016-0.257c-0.007,0.112-0.01,0.206,0,0.253c-0.057-0.009-0.159,0.016-0.277,0.095l0.129-0.464
						c-0.009,0.004-0.014,0.001-0.023,0.007c-0.02-0.194-0.141,0.193-0.222,0.548c-0.067,0.061-0.136,0.138-0.204,0.238
						c0.197-0.753-0.296,0.177-0.108-0.634c-0.188,0.364-0.505,0.153-0.821,0.944c0.033-0.106,0.027-0.164,0.072-0.156
						c-0.057-0.121-0.115-0.242-0.27-0.041l0.157-0.593l-0.454,0.717c0-0.393,0.018-0.615,0.283-1.024
						c-0.51,0.595-0.316,0.183-0.775,0.788l0.132-0.374c-0.091-0.014-0.387,0.447-0.34,0.118c0.031-0.782-0.914-0.412-1.216-1.247
						c-0.221,1.153-0.089-0.579-0.353,0.285c0.045-0.275,0.017-0.448,0.162-0.652c-0.326,0.178-0.271-0.548-0.644,0.13
						c0.042-0.277,0.159-0.373,0.175-0.54c-0.036,0.051-0.143,0.205-0.127,0.038s0.097-0.211,0.168-0.314
						c-0.276-0.042-0.517,0.772-0.736,1.538c-0.034-0.407-0.115-0.38-0.336,0.101c0.02-0.265,0.015-0.549,0.193-0.598
						c-0.079-0.061-0.438-0.515-0.608,0.101c0.013-0.164-0.111-0.079-0.152-0.014c-0.187-0.09-0.189-0.15-0.398-0.144l0.027,0.115
						c-0.275,0.725-0.206,0.123-0.385,0.17l0.025-0.075c-0.212-0.634-0.225,0.215-0.41-0.493l-0.107,0.467
						c-0.307,0.986-0.152-0.671-0.461-0.346l0,0.284c-0.208,0.31,0.065-1.436-0.01-1.589c0-0.093,0.078-0.128,0.129-0.183
						c-0.125-0.664-0.208,0.595-0.465,0.676c0.053-0.337,0.287-0.815,0.159-0.915c0.004-0.283-0.727,0.942-0.746,0.264
						c-0.029,0.263-0.058,0.525-0.214,0.686c-0.183,0.047-0.14-1.061-0.514-0.309c0-0.074,0.013-0.141,0.03-0.204
						c-0.179,0.171-0.486,0.234-0.688,0.642c0.369-1.604-0.97,0.551-0.515-0.914l-0.379-0.043l0.056-0.146
						c-0.196-0.174-0.387,0.148-0.58,0.469c-0.021-0.117,0.062-0.239,0.09-0.314c-0.238-0.407-0.288-0.355-0.807,0.272l0.127-0.48
						c-0.168,0.247-0.231-0.9-0.742-0.463c0.021-0.052,0.06-0.141,0.108-0.198c-0.56,0.423-0.413-1.593-1.153,0.062l-0.394,0.335
						c0.269,0.24-0.313,0.721-0.285,1.047c-0.163,0.057-0.138-0.622,0.047-0.657l-0.007,0.093c0.377-0.865-0.278-0.447-0.048-1.045
						c-0.64-0.149-1.03-0.912-1.58-1.17L12.998,4.77l-0.183-0.12c0.011-0.18,0.142-0.561,0.271-0.475
						c0.079-0.416-0.363,0.226-0.427,0.372c-0.166-0.389,0.423-0.749,0.345-0.799L12.87,3.752l-0.006,0.09
						c-0.203,0.24-0.33,0.53-0.485,0.427c-0.052-0.18,0.114-0.441,0.083-0.484c0.02-0.048,0.015-0.076-0.056-0.046L12.182,3.58
						l-0.119,0.575c-0.218,0.218-0.223-0.124-0.355,0.529c0.213-1.003-0.792-0.717-0.774-1.048c-0.319,0.324-0.47,0.254-0.639,0.13
						c0,0.129-0.229,0.738-0.362,0.597c0.592-1.206-0.069-0.657,0.186-1.594C9.979,3.402,9.593,2.724,9.41,3.63
						C9.318,3.474,9.604,3.17,9.63,2.835c-0.528,0.324-0.56-0.638-1.021-0.663C8.53,2.33,8.484,2.605,8.292,2.804l0.159-0.897
						C8.338,1.948,7.956,2.795,8.07,2.174c-0.042,0.144-0.106,0.36-0.181,0.387C7.486,1.422,6.01,2.449,5.934,0.632
						C5.889,0.987,5.804,0.985,5.718,0.958c0.017,0.098-0.192,0.39-0.287,0.608L5.397,0.818c-0.353,0.565-0.37-0.125-0.686,0.425
						L4.866,1.19C4.395,1.793,4.322,2.768,3.878,3.618C4.41,2.931,3.741,4.943,4.535,3.975c-0.028,0.203-0.184,0.254-0.25,0.469
						C4.53,4.105,4.646,4.066,4.713,4.301L4.652,4.385C5.109,4.49,5.111,4.939,5.464,5.404l0.167-0.445
						c0.073,0.105,0.031,0.249,0.027,0.378c0.42-0.595-0.264-0.169,0.179-0.836C5.559,5.436,6.534,4.847,6.162,5.882
						c0.152,0.079,0.186-0.519,0.337-0.44L6.416,5.73l0.199-0.328c0.075,0.105-0.029,0.466-0.13,0.695
						c-0.012-0.039-0.1,0.031-0.135,0.038C6.335,6.515,6.771,6.203,6.768,6.328L6.695,6.091C7.232,6.036,7.586,6.64,8.241,6.274
						L8.3,6.057c0.484-0.248,0.155,0.329,0.582,0.298L8.848,6.398c0.159-0.175,0.296-0.24,0.381-0.178
						C9.037,6.424,9.194,6.756,8.963,6.975c0.521-0.266,0.31-0.25,0.862-0.921L9.733,6.417c0.208-0.277,0.283-0.438,0.493-0.455
						C9.96,6.196,10.118,6.528,9.795,6.85c0.055,0.899,0.857-0.533,0.573,0.632c0.558-0.88-0.1-0.657,0.079-0.821
						c0.05-0.342,0.431-0.652,0.505-0.51c0.106,0.068-0.301,1.296,0.003,1.399c-0.028-0.017-0.059,0.055-0.086,0.039
						c0.013,0.288,0.349-0.24,0.326,0.21c0.307-0.545,0.163,0.105,0.478-0.621l-0.337,0.06c0.23-0.129,0.714-0.932,0.798-0.412
						c-0.078,0.141-0.229,0.305-0.324,0.393c-0.012,0.248,0.198-0.086,0.187,0.168c-0.312,0.729-0.391,0.026-0.779,0.52
						c-0.044,0.344,0.523-0.405,0.125,0.358c0.52-0.966,0.242,0.248,0.746-0.446L11.9,8.256c0.059-0.057,0.206-0.239,0.26-0.203
						l-0.329,0.53C12.184,8.16,11.98,9.14,12.24,8.938c-0.333-0.121,0.131-0.564,0.118-0.943c0.627-0.429-0.214,1.253,0.321,1.227
						c-0.085,0.037-0.129-0.361,0.044-0.527c0.051,0.127,0.101,0.343,0.068,0.593c0.342,0.013,0.124-0.473,0.357-0.702
						c-0.098,0.577,0.233-0.169,0.43-0.297L13.412,8.74c0.241,0.409,0.439-0.912,0.622-0.455l-0.361,0.583l0.223-0.106l-0.221,0.504
						c0.317-0.322,0.336-0.204,0.459,0c0.074-0.334,0.318-0.816,0.476-0.778c0.009,0.306-0.212,0.412,0.029,0.421
						c-0.15,0.268-0.331,0.606-0.277,0.155c-0.063,0.145-0.15,0.269-0.213,0.411c0.003,0.35,0.262,0.169,0.342,0.192
						c-0.024-0.027-0.053-0.064-0.048-0.136l0.539-0.522c-0.01,0.188-0.097,0.312-0.184,0.433c0.082-0.027,0.199-0.221,0.307-0.229
						c-0.153,0.362-0.279,0.747-0.475,0.875l0.447-0.307c-0.035,0.168,0.004,0.496-0.082,0.619c0.096,0.276,0.659-0.579,0.785-0.214
						c0.036-0.068,0.082-0.129,0.147-0.167c0.181,0.156,0.219,0.677,0.634,0.25l-0.074,0.717c0.244-0.085,0.08-0.908,0.484-1.05
						c0.296-0.136-0.096,0.601-0.075,0.814c0.223-0.299,0.635-0.92,0.675-0.302C17.459,10.553,17.436,10.435,17.355,10.462z
						 M19.861,10.854c-0.075,0.084-0.255,0.359-0.21,0.076C19.857,10.414,19.825,10.679,19.861,10.854z M23.803,10.744
						c-0.074,0.144-0.104,0.05-0.116-0.146C23.739,10.574,23.782,10.607,23.803,10.744z M34.792,11.319l-0.015,0.019
						C34.756,11.124,34.76,11.207,34.792,11.319z M34.911,11.6c0.05-0.052,0.078-0.112,0.098-0.177
						c-0.067,0.104-0.118,0.091-0.157,0.037C34.813,11.58,34.802,11.67,34.911,11.6z M12.373,3.94l-0.008,0.133
						C12.224,4.166,12.296,4.06,12.373,3.94z"/>
					<path fill="#FFFFFF" d="M23.245,11.252c0.007-0.083,0.025-0.171,0.045-0.26C23.251,11.066,23.228,11.157,23.245,11.252z"/>
					<polygon fill="#FFFFFF" points="15.783,10.195 15.777,10.187 15.743,10.267 					"/>
					<path fill="#FFFFFF" d="M30.113,13.968c-0.014-0.082-0.003-0.173,0.017-0.265C30.083,13.812,30.063,13.912,30.113,13.968z"/>
					<path fill="#FFFFFF" d="M35.871,11.141c-0.06,0.007-0.119,0.015-0.173,0c0.194,0.08,0.389,0.16,0.586,0.233l-0.088,0.031
						c0.03,0.003,0.044,0.021,0.05,0.047c-0.201-0.074-0.398-0.147-0.572-0.211c0.045,0.046,0.065,0.11,0.093,0.166
						C35.791,11.296,35.777,11.123,35.871,11.141z"/>
					<path fill="#FFFFFF" d="M36.195,14.458c0.043-0.045,0.042,0.012,0.085-0.034l0.086-0.207
						C36.28,14.194,36.151,14.334,36.195,14.458z"/>
					<path fill="#FFFFFF" d="M35.611,12.737c-0.112,0.391,0.036,0.293,0.167,0.263c-0.007-0.001-0.014,0-0.019-0.007
						C35.986,12.472,35.804,12.603,35.611,12.737z"/>
					<path fill="#FFFFFF" d="M35.808,12.996c0.04-0.005,0.079-0.003,0.103,0.027C36.004,12.816,35.887,12.964,35.808,12.996z"/>
					<path fill="#FFFFFF" d="M35.293,11.474c-0.001,0.113,0.254-0.455,0.208-0.295C35.776,10.736,34.931,11.611,35.293,11.474z"/>
					<polygon fill="#FFFFFF" points="35.273,14.034 35.399,13.548 35.216,13.913 					"/>
					<path fill="#FFFFFF" d="M34.707,13.422l0.084,0.188c0.035-0.076,0.075-0.112,0.115-0.136
						C34.824,13.42,34.769,13.287,34.707,13.422z"/>
					<path fill="#FFFFFF" d="M34.906,13.474c0.042,0.029,0.092,0.039,0.154-0.023C35.033,13.444,34.971,13.436,34.906,13.474z"/>
					<polygon fill="#FFFFFF" points="35.026,14.113 35.01,14 34.987,13.985 34.979,13.983 34.914,13.923 34.958,14.025 
						34.978,14.023 					"/>
					<path fill="#FFFFFF" d="M33.179,12.65l-0.219,0.061c-0.087,0.149-0.087,0.264,0,0.228
						C33.048,12.846,33.135,12.812,33.179,12.65z"/>
					<path fill="#FFFFFF" d="M33.081,14.104c0.002-0.113,0.046-0.215,0.092-0.375l-0.267,0.562L33.081,14.104z"/>
					<path fill="#FFFFFF" d="M32.566,14.037c-0.087,0.15-0.43,0.353-0.218,0.402C32.435,14.291,32.65,14.228,32.566,14.037z"/>
					<polygon fill="#FFFFFF" points="30.518,12.287 30.561,12.297 30.939,11.352 					"/>
					<path fill="#FFFFFF" d="M27.565,13.753c0.101,0.291,0.258-0.576,0.322-0.234c0.126-0.212-0.052-0.279,0.063-0.459
						C27.751,13.261,27.742,13.106,27.565,13.753z"/>
					<path fill="#FFFFFF" d="M27.951,13.06c0.032-0.032,0.068-0.071,0.111-0.126C28.007,12.982,27.975,13.022,27.951,13.06z"/>
					<polygon fill="#FFFFFF" points="5.412,0.245 5.39,0 5.313,0.342 					"/>
					<path fill="#FFFFFF" d="M4.851,0.815l0.262-0.594L4.781,0.714C4.82,0.701,4.896,0.675,4.851,0.815z"/>
					<path fill="#FFFFFF" d="M19.864,12.209l0.053-0.147c0.025-0.168-0.001-0.188-0.056-0.23L19.864,12.209z"/>
					<polygon fill="#FFFFFF" points="18.228,11.262 18.255,11.283 18.367,10.705 					"/>
					<path fill="#FFFFFF" d="M16.525,11.51c0.053,0.043,0.164-0.057,0.217-0.013C16.579,11.553,16.731,10.807,16.525,11.51z"/>
				</g>
			</g>
		</g>
	</g>
</g>
</svg>
