<?xml version="1.0" encoding="utf-8"?>
<!DOCTYPE svg PUBLIC "-//W3C//DTD SVG 1.1//EN" "http://www.w3.org/Graphics/SVG/1.1/DTD/svg11.dtd">
<svg version="1.1" id="Contours" xmlns="http://www.w3.org/2000/svg" xmlns:xlink="http://www.w3.org/1999/xlink" x="0px" y="0px" width="100%" height="100%" viewBox="0 0 1080 1197" xml:space="preserve" stroke="black" fill="none" stroke-linecap='round' stroke-linejoin='round'><desc xmlns:shape="http://adobe.com/products/shape"><shape:version>1.0</shape:version><shape:captureDetail>1.000000</shape:captureDetail><shape:sourceImage></shape:sourceImage><shape:source>0</shape:source><shape:platformVersion>shape-android-1.2</shape:platformVersion></desc>
<path fill="#000000" stroke="#000000" opacity="1.00" 
 d="
M421.3 802.7 C413.2 794.2 401.4 790.5 390.1 787.1 C264.8 749.3 139.5 711.5 14.2 673.7 C22.4 658.6 40.3 652.1 56.6 646.9 C167.5 611.1 278.3 575.4 389.2 539.6 C395.3 537.6 405.8 540.1 402.9 545.9 C280.3 584.8 157.7 623.6 35.1 662.5 C201.1 660.2 367.1 657.9 533.1 655.5 C498.0 608.9 455.8 567.7 408.4 533.8 C418.9 543.5 437.3 536.5 444.7 524.2 C452.1 512.0 452.2 496.8 453.7 482.6 C456.1 458.6 463.0 435.3 469.8 412.1 C496.2 322.7 522.6 233.3 549.0 143.9 C591.4 269.4 633.7 394.9 676.0 520.4 C678.3 527.2 680.8 534.4 686.1 539.3 C690.7 543.5 696.8 545.6 702.8 547.5 C827.9 588.5 953.1 629.4 1078.3 670.4 C964.8 706.8 851.3 743.2 737.8 779.5 C713.2 787.4 685.1 798.6 677.7 823.4 C647.6 924.0 617.6 1024.6 587.5 1125.2 C579.4 1152.1 570.3 1180.7 548.6 1198.5 C547.9 1170.7 539.1 1143.8 530.3 1117.4 C498.7 1021.6 467.0 925.9 435.3 830.2 C432.0 820.3 428.6 810.1 421.3 802.7 M304.7 736.9 C303.1 737.8 301.5 738.8 299.9 739.8 C304.5 742.9 309.0 746.0 313.6 749.0 C316.3 750.9 319.6 752.7 322.6 751.4 C321.4 746.8 316.2 743.7 311.6 744.9 C310.6 743.1 308.2 742.3 306.4 743.1 C305.8 741.0 305.3 738.9 304.7 736.9 M670.8 672.0 C672.4 665.6 682.1 663.2 686.5 668.1 C688.2 665.5 690.5 663.3 693.1 661.5 C677.5 661.7 662.0 661.8 646.4 662.0 C638.7 662.1 629.6 662.8 625.5 669.4 C628.3 667.9 632.3 669.6 633.1 672.7 C615.9 672.9 598.7 672.7 581.4 672.1 C581.9 669.6 579.8 665.7 578.2 667.6 C575.2 679.3 585.8 689.7 595.2 697.4 C619.1 717.3 641.2 739.3 661.2 763.0 C666.1 769.0 671.1 775.1 677.5 779.4 C683.9 783.7 692.2 786.0 699.4 783.4 C801.2 747.6 903.6 713.8 1006.7 682.0 C1009.9 681.0 1010.0 675.9 1007.5 673.6 C1005.0 671.3 1001.2 671.0 997.8 670.8 C969.7 669.5 941.6 668.2 913.5 666.9 C864.9 664.6 816.1 662.4 767.5 665.0 C768.6 663.8 770.7 665.9 769.9 667.4 C769.2 668.9 767.3 669.4 765.7 669.7 C757.0 671.1 748.2 671.9 739.4 672.8 C731.2 673.5 723.0 674.3 714.9 675.1 C700.0 676.5 684.5 677.8 670.8 672.0 M541.9 1011.0 C541.5 1003.9 541.2 996.7 542.9 989.9 C553.6 948.5 545.6 905.0 544.8 862.3 C544.5 848.4 545.1 834.6 545.6 820.7 C547.1 783.0 548.7 745.3 550.4 707.6 C550.8 699.4 550.9 690.4 545.6 684.1 C513.7 713.3 481.8 742.6 449.9 771.8 C441.3 779.7 431.8 790.7 436.0 801.6 C450.8 840.1 464.9 878.9 478.1 917.9 C483.0 932.5 487.9 947.1 492.7 961.7 C501.6 988.4 510.4 1015.1 519.2 1041.8 C523.7 1055.4 528.3 1069.1 531.9 1083.0 C535.7 1097.5 538.8 1112.9 548.4 1124.4 C546.2 1086.6 544.1 1048.8 541.9 1011.0 M647.3 471.9 C617.6 384.4 588.0 296.8 558.4 209.3 C556.9 204.8 552.4 199.4 548.8 202.4 C553.2 212.1 554.1 223.5 551.1 233.9 C550.2 237.0 549.0 240.2 549.0 243.5 C549.2 252.9 559.6 259.8 559.6 269.2 C560.0 364.5 560.3 459.8 560.7 555.1 C560.8 580.9 560.9 606.8 560.9 632.6 C561.0 635.0 561.1 637.7 563.0 639.2 C566.0 641.7 570.3 639.0 573.2 636.4 C596.4 615.5 619.7 594.6 642.9 573.7 C654.5 563.3 667.1 550.8 666.8 535.2 C666.7 529.5 664.9 524.0 663.1 518.6 C657.8 503.0 652.5 487.4 647.3 471.9 M560.1 777.6 C561.7 789.3 560.3 801.4 556.1 812.4 C554.7 813.8 554.6 816.0 554.5 817.9 C554.1 829.2 553.7 840.6 553.3 851.9 C554.3 855.2 555.2 858.5 556.2 861.9 C553.7 867.8 555.2 875.2 559.7 879.8 C560.8 860.6 561.9 841.4 563.0 822.1 C563.9 805.8 564.8 789.5 566.2 773.3 C566.5 770.2 566.8 766.9 565.3 764.2 C563.1 757.2 562.6 749.7 563.9 742.6 C562.3 742.7 560.6 742.9 559.0 743.1 C559.3 749.1 559.6 755.1 559.9 761.1 C560.1 765.9 560.3 771.2 557.7 775.3 C558.9 775.3 560.1 776.4 560.1 777.6 M602.3 835.3 C602.9 840.6 604.6 846.3 609.0 849.4 C609.6 849.1 610.2 848.8 610.9 848.5 C611.3 846.2 611.3 843.1 609.1 842.4 C608.7 841.3 609.3 839.8 610.4 839.8 C608.4 835.0 607.9 829.6 609.2 824.5 C613.5 822.6 614.6 817.1 614.7 812.4 C614.9 804.3 613.5 796.2 610.8 788.6 C608.6 787.3 605.8 787.1 603.5 788.1 C601.9 796.9 602.9 806.1 606.4 814.4 C605.5 814.9 604.4 815.2 603.4 814.9 C601.9 821.6 601.5 828.5 602.3 835.3 M546.1 407.3 C546.0 406.5 547.0 406.1 547.4 405.4 C547.8 404.7 546.5 403.8 546.5 404.6 C549.0 403.2 548.0 399.5 547.1 396.8 C544.9 390.2 544.9 382.8 547.2 376.3 C544.7 365.1 544.4 353.5 546.2 342.2 C544.7 340.6 542.6 343.4 542.4 345.6 C542.0 352.0 543.1 358.5 541.9 364.7 C539.0 379.4 538.2 394.5 539.6 409.5 C539.8 410.9 540.0 412.6 541.3 413.3 C538.7 422.1 540.1 432.0 545.0 439.7 C546.1 432.0 546.3 424.2 545.5 416.4 C545.3 413.5 545.2 409.7 547.9 408.3 C547.1 408.3 546.2 408.0 546.1 407.3 M344.0 667.7 C345.2 667.8 346.4 668.0 347.6 668.1 C348.1 669.5 348.3 671.1 348.1 672.6 C362.2 671.9 376.4 672.3 390.5 674.0 C396.7 674.7 404.8 674.8 407.2 669.0 C401.8 664.2 393.9 664.0 386.6 664.0 C378.0 664.0 369.4 664.0 360.8 663.9 C358.1 663.9 354.8 664.3 353.6 666.7 C352.1 669.8 346.0 664.8 344.0 667.7 M519.8 303.3 C520.9 301.3 522.0 299.3 523.1 297.3 C521.8 295.0 521.5 292.2 522.2 289.7 C524.3 287.9 525.8 285.5 526.6 282.9 C527.0 281.3 526.4 278.9 524.8 279.3 C526.9 278.0 527.7 274.9 526.4 272.7 C522.7 274.3 521.7 279.1 521.7 283.1 C521.6 287.1 521.9 291.6 519.2 294.6 C516.9 297.3 515.7 300.7 514.6 304.1 C509.2 320.4 503.8 336.7 498.4 352.9 C497.9 354.5 498.6 357.1 500.0 356.2 C500.2 357.4 499.1 358.5 498.0 358.4 C499.2 359.0 500.2 360.0 500.8 361.2 C503.5 354.6 506.3 347.9 509.0 341.3 C509.7 339.7 510.3 338.0 511.0 336.4 C511.7 334.7 512.4 333.0 513.1 331.2 C516.5 322.3 518.8 312.9 519.8 303.3 M795.4 610.9 C795.3 613.3 793.9 615.6 791.9 616.8 C796.2 618.9 801.2 619.0 806.0 619.1 C814.4 619.3 823.1 619.4 831.1 622.3 C835.4 623.9 839.4 626.3 843.9 627.4 C848.3 628.6 853.6 628.3 856.9 625.1 C856.8 621.6 852.5 620.1 849.0 619.5 C843.7 618.5 838.3 617.6 832.9 616.7 C826.3 615.6 819.7 614.6 813.2 613.6 C807.3 612.7 801.3 611.8 795.4 610.9 M640.5 878.9 C637.7 889.0 635.5 899.3 634.0 909.6 C632.3 910.6 631.5 912.7 632.1 914.6 C632.8 915.0 633.7 915.2 634.5 915.0 C634.9 913.2 635.7 911.6 636.9 910.2 C639.3 904.3 641.7 898.4 644.1 892.5 C646.1 887.6 648.1 882.6 647.7 877.4 C647.3 873.1 645.9 867.5 649.6 865.4 C652.0 857.8 654.2 850.2 656.3 842.5 C654.6 841.9 652.7 841.8 651.0 842.3 C648.1 848.5 646.7 855.6 647.0 862.5 C645.4 863.2 644.0 864.2 643.0 865.6 C645.4 867.3 643.6 871.0 642.3 873.7 C641.5 875.4 641.0 877.2 640.5 878.9 M656.4 833.0 C658.1 828.3 659.8 823.6 661.5 818.8 C661.0 818.1 660.5 817.5 660.0 816.8 C663.6 813.5 665.6 808.4 665.0 803.5 C664.3 803.0 663.3 802.8 662.5 803.1 C662.2 802.4 662.0 801.7 662.1 800.9 C659.7 796.9 655.4 794.1 650.7 793.6 C651.1 801.0 652.4 808.4 654.8 815.5 C657.1 815.7 656.6 819.2 655.4 821.2 C654.0 823.4 652.7 825.6 651.3 827.8 C652.1 827.6 652.9 828.4 652.8 829.2 C650.8 831.5 649.8 834.5 650.0 837.5 C651.9 838.3 654.1 838.3 656.0 837.5 C654.4 836.8 653.2 835.2 653.0 833.4 C654.1 832.9 655.3 832.8 656.4 833.0 M551.1 577.5 C551.1 575.5 551.1 573.5 550.2 571.7 C549.8 570.8 549.1 570.0 548.9 569.0 C548.8 568.0 549.4 566.7 550.5 566.8 C548.8 564.1 548.3 560.6 549.2 557.5 C548.2 556.8 546.8 556.8 545.8 557.5 C543.3 558.9 542.7 562.3 543.2 565.2 C543.7 568.0 545.1 570.7 545.3 573.5 C545.6 576.0 545.0 578.5 543.7 580.6 C545.6 588.3 546.1 596.4 545.2 604.4 C544.9 606.2 544.7 608.3 545.8 609.9 C546.9 611.4 550.0 611.3 550.2 609.4 C551.7 609.3 550.4 607.0 549.0 606.5 C550.5 606.6 551.0 604.6 551.0 603.1 C551.0 594.6 551.0 586.0 551.1 577.5 M468.9 555.4 C466.6 557.9 466.5 561.8 467.7 564.9 C468.9 568.0 471.2 570.6 473.5 573.0 C476.8 576.6 481.5 580.6 486.0 578.6 C487.2 573.0 481.5 568.7 478.3 564.0 C475.8 560.6 472.5 557.7 468.9 555.4 M374.0 741.0 C364.8 736.9 354.7 734.9 344.6 735.1 C343.1 735.2 341.3 735.5 340.8 736.9 C344.8 738.8 348.7 740.7 352.7 742.6 C356.3 744.3 360.0 746.1 364.0 746.3 C368.0 746.5 372.4 744.7 374.0 741.0 M605.8 1012.1 C603.8 1013.4 603.1 1016.0 602.4 1018.3 C600.2 1026.5 596.5 1034.3 591.5 1041.2 C590.5 1042.6 591.4 1044.5 591.4 1046.2 C591.4 1048.6 589.8 1050.6 588.9 1052.8 C588.1 1055.0 588.5 1058.2 590.8 1058.7 C595.7 1055.8 597.0 1049.3 597.7 1043.6 C598.1 1040.7 598.5 1037.7 598.9 1034.7 C599.0 1033.4 599.3 1031.9 600.1 1030.9 C604.3 1025.7 606.4 1018.8 605.8 1012.1 M712.5 563.2 C708.6 561.5 703.5 565.1 703.8 569.4 C702.0 571.3 699.4 572.3 696.8 572.2 C694.9 574.1 694.7 577.3 696.3 579.4 C697.9 581.4 701.1 582.1 703.4 580.7 C704.2 580.1 703.2 578.4 702.2 578.8 C705.7 576.2 709.6 574.1 713.8 572.7 C713.4 571.1 714.2 569.3 715.7 568.6 C714.2 567.1 713.1 565.2 712.5 563.2 M420.2 753.6 C418.6 753.6 417.1 754.3 416.0 755.5 C426.4 757.9 438.0 750.4 440.2 739.9 C433.3 741.2 426.8 744.4 421.5 748.9 C420.1 750.1 418.8 752.4 420.2 753.6 M543.7 322.0 C545.0 321.1 546.3 320.3 547.7 319.4 C549.1 309.4 549.4 299.2 548.7 289.0 C547.8 287.9 546.3 289.7 546.0 291.2 C544.9 297.2 543.8 303.3 542.7 309.4 C541.9 313.6 541.2 318.4 543.7 322.0 M578.0 1093.3 C574.0 1095.5 574.1 1102.4 578.2 1104.4 C583.4 1097.6 585.7 1088.7 584.7 1080.2 C582.4 1078.7 579.4 1081.2 578.6 1083.8 C577.8 1086.4 578.0 1089.3 576.8 1091.8 C577.5 1091.9 578.0 1092.6 578.0 1093.3 M519.2 537.5 C518.4 537.1 517.4 536.9 516.5 537.0 C516.0 535.6 515.6 534.2 515.1 532.8 C511.2 541.9 511.9 552.8 516.7 561.4 C517.9 558.9 519.0 556.3 520.1 553.7 C520.3 553.2 520.6 552.6 520.6 552.0 C520.7 551.1 520.3 550.1 520.0 549.2 C518.7 545.5 518.4 541.4 519.2 537.5 M611.3 976.9 C611.8 975.9 612.4 974.8 613.0 973.8 C613.7 975.3 616.2 975.1 617.3 973.7 C618.3 972.4 618.3 970.5 618.2 968.8 C618.1 965.1 618.0 961.4 617.8 957.7 C617.8 956.7 617.7 955.6 616.8 955.1 C615.5 954.4 614.2 956.0 613.6 957.3 C612.2 960.1 610.8 962.9 609.5 965.7 C609.0 966.6 608.5 967.6 608.5 968.7 C608.6 971.7 612.4 974.1 611.3 976.9 M484.4 539.7 C483.5 536.5 481.6 533.5 479.1 531.3 C477.8 530.1 476.0 529.0 474.3 529.5 C473.5 532.4 472.8 535.4 473.3 538.3 C473.8 541.2 475.8 544.0 478.7 544.6 C481.6 545.2 484.9 542.6 484.4 539.7 M595.9 779.6 C594.5 779.3 593.6 777.6 594.0 776.3 C596.5 776.5 596.6 772.7 595.7 770.4 C594.9 768.2 594.1 766.1 593.2 764.0 C592.7 762.7 591.4 761.2 590.4 762.1 C590.3 770.4 590.3 778.7 590.3 787.0 C590.7 785.6 592.3 784.6 593.7 785.0 C593.6 783.5 594.5 781.9 595.9 781.3 C595.4 781.6 594.5 781.1 594.5 780.5 C594.5 779.8 595.3 779.3 595.9 779.6 M212.5 674.1 C212.6 672.7 214.2 671.6 215.5 672.0 C215.8 672.8 216.2 673.6 216.5 674.4 C223.3 674.6 230.1 674.5 236.9 674.0 C238.3 672.8 235.8 671.0 234.0 670.8 C229.3 670.4 224.7 670.0 220.0 669.5 C216.6 669.2 212.6 669.1 210.4 671.8 C211.4 672.1 212.3 673.0 212.5 674.1 M515.9 679.1 C515.7 681.4 515.4 683.6 515.2 685.9 C517.8 685.0 520.4 683.9 522.9 682.5 C524.5 681.7 526.2 680.6 527.1 679.0 C528.0 677.4 527.8 675.0 526.3 674.0 C521.5 675.6 516.8 677.1 512.0 678.7 C513.3 678.9 514.6 679.0 515.9 679.1 M576.0 665.9 C577.4 665.2 579.2 665.2 580.7 665.8 C581.5 665.0 581.8 663.9 581.6 662.9 C582.4 663.9 583.9 662.3 584.0 660.9 C584.2 659.6 584.7 657.7 586.0 658.0 C592.2 659.7 599.0 659.4 605.0 657.2 C599.5 656.9 594.0 656.7 588.5 656.4 C585.9 656.3 583.1 656.2 580.9 657.5 C578.0 659.2 576.8 662.7 576.0 665.9 M487.3 430.5 C482.9 434.3 480.8 440.3 481.8 446.0 C485.1 446.6 488.1 443.6 488.8 440.3 C489.4 437.0 488.3 433.7 487.3 430.5 M323.1 713.5 C325.7 715.5 328.5 717.7 331.8 718.2 C335.1 718.6 338.9 716.7 339.3 713.3 C334.5 712.1 329.5 711.3 324.5 711.0 C324.1 711.8 323.6 712.6 323.1 713.5 M404.0 753.7 C404.4 752.8 403.4 752.0 402.5 751.8 C404.5 748.6 405.0 744.4 403.6 740.9 C399.0 741.2 397.0 746.7 396.1 751.2 C397.9 753.5 401.2 754.5 404.0 753.7 M452.1 549.4 C452.6 550.2 453.0 551.0 453.5 551.8 C456.1 552.0 458.7 550.0 459.2 547.4 C459.7 544.9 458.1 542.1 455.6 541.2 C453.5 541.9 451.3 542.7 450.1 544.6 C449.0 546.4 449.9 549.5 452.1 549.6 M620.9 827.1 C618.9 831.3 616.9 835.4 615.0 839.5 C614.2 841.2 613.4 843.2 614.3 844.8 C617.1 841.9 619.8 839.0 622.5 836.1 C624.7 833.4 623.9 828.8 620.9 827.1 M561.1 1147.4 C562.6 1149.2 565.0 1150.1 567.3 1149.7 C565.6 1147.2 566.4 1143.4 568.9 1141.7 C567.6 1140.5 566.8 1138.8 566.7 1137.1 C565.0 1136.4 562.7 1138.3 563.6 1139.9 C562.4 1140.0 561.3 1140.1 560.2 1140.2 C561.0 1142.5 561.3 1145.0 561.1 1147.4 M568.5 916.9 C568.9 914.8 569.2 912.7 569.5 910.6 C569.7 909.9 569.7 909.0 569.1 908.5 C568.7 908.2 568.1 908.3 567.5 908.4 C565.4 908.7 563.2 909.1 561.1 909.5 C561.8 908.6 562.5 910.7 561.8 911.5 C561.0 912.3 560.3 914.1 561.5 914.2 C562.3 917.0 566.0 918.4 568.5 916.9 M649.9 626.1 C654.4 628.1 659.6 628.8 664.5 627.9 C665.1 626.5 665.3 624.9 665.0 623.4 C659.9 622.4 654.4 623.4 649.9 626.1 M630.3 928.0 C632.2 925.3 632.8 921.7 631.8 918.5 C631.2 918.0 630.2 917.8 629.4 918.0 C629.2 919.0 628.5 919.9 627.6 920.3 C628.8 921.2 627.8 923.6 626.3 923.4 C625.0 926.4 625.8 930.1 628.2 932.4 C628.9 931.1 630.2 930.2 631.6 929.8 C631.2 929.2 630.7 928.6 630.3 928.0 M548.0 487.5 C548.0 486.5 548.0 485.5 548.0 484.5 C547.1 484.0 546.1 483.5 545.2 482.9 C542.4 485.6 541.1 489.8 542.1 493.5 C543.7 494.6 545.8 494.7 547.5 493.9 C548.1 491.8 548.2 489.6 548.0 487.5 M175.7 669.6 C176.6 669.2 177.6 668.8 178.5 668.4 C174.0 668.5 169.5 668.5 164.9 668.6 C165.8 669.9 166.7 671.3 167.6 672.7 C172.2 674.5 177.5 674.3 181.9 672.2 C179.4 672.5 175.8 672.1 175.7 669.6 M491.7 386.1 C494.4 382.0 496.4 377.4 497.5 372.5 C497.8 371.2 498.0 369.9 498.0 368.5 C493.4 372.2 490.4 377.8 490.0 383.7 C490.6 384.5 491.1 385.3 491.7 386.1 M631.3 792.4 C632.2 793.8 634.6 793.3 635.4 791.9 C636.2 790.5 636.0 788.7 635.8 787.1 C635.4 784.8 635.1 782.5 634.7 780.3 C631.3 781.1 629.3 785.4 630.9 788.5 C631.5 789.8 632.5 791.5 631.3 792.4 M185.8 692.5 C188.7 694.6 193.2 693.7 195.0 690.7 C191.2 688.8 186.8 687.8 182.6 688.0 C180.9 689.9 183.0 693.5 185.5 693.0 M493.3 560.2 C494.1 557.4 494.3 554.4 493.9 551.5 C491.7 550.2 489.8 548.3 488.4 546.0 C488.4 547.6 487.9 549.2 487.1 550.6 C488.6 551.6 489.4 553.6 489.0 555.3 C490.9 556.5 492.4 558.2 493.3 560.2 M437.5 667.9 C434.7 668.0 431.9 668.1 429.1 668.2 C432.7 671.8 438.2 673.3 443.1 672.0 C444.0 669.4 440.2 667.9 437.5 668.0 M488.9 408.4 C489.6 406.6 489.6 404.4 488.9 402.5 C487.7 402.1 486.5 401.6 485.3 401.2 C485.5 402.6 484.5 404.0 483.2 404.4 C484.2 404.7 484.9 405.6 485.1 406.6 C483.7 406.5 482.6 408.1 483.2 409.4 C484.5 411.6 488.6 411.0 489.2 408.6 M360.7 723.4 C362.4 722.1 362.2 719.6 361.9 717.4 C360.1 716.9 358.2 716.8 356.4 717.0 C356.5 718.6 355.3 720.2 353.8 720.6 C354.9 722.9 358.1 723.9 360.4 722.7 M544.6 509.9 C544.2 509.3 543.8 508.7 543.4 508.1 C545.2 504.9 545.7 501.0 544.8 497.5 C545.7 497.3 546.7 497.0 547.6 496.8 C546.5 495.1 543.6 495.7 542.5 497.5 C541.4 499.2 541.6 501.4 541.9 503.4 C542.2 505.4 542.6 507.6 541.9 509.5 C542.7 510.0 543.7 510.2 544.6 509.9 M412.4 780.9 C413.6 779.1 414.7 777.3 415.9 775.6 C414.3 774.3 412.6 773.0 411.0 771.7 C409.7 772.9 408.6 774.4 407.9 776.1 C409.4 777.7 410.8 779.4 412.3 781.1 M83.0 678.5 C83.0 677.5 83.0 676.5 83.0 675.5 C80.3 674.2 76.7 675.2 75.0 677.7 C76.1 681.0 81.4 681.5 83.1 678.6 M506.0 451.5 C506.0 452.8 506.0 454.2 506.0 455.5 C506.9 456.0 508.0 456.2 509.1 456.0 C509.3 453.5 509.6 451.0 509.8 448.5 C509.1 447.7 508.3 446.8 507.5 446.0 C505.8 447.1 505.1 449.6 506.1 451.5 M270.0 672.5 C272.5 673.5 275.5 673.1 277.8 671.6 C274.9 669.3 271.0 668.3 267.3 669.1 C267.2 670.6 268.5 672.1 270.0 672.1 M546.0 471.5 C546.0 469.4 546.0 467.4 546.0 465.3 C543.6 469.4 541.3 474.8 544.4 478.3 C546.0 476.5 546.6 473.9 545.8 471.6 M473.6 521.0 C473.1 522.6 474.8 524.4 476.4 524.0 C475.6 520.9 477.4 517.4 480.3 516.1 C479.4 515.0 477.7 514.6 476.4 515.1 C476.3 517.3 475.2 519.5 473.4 520.8 M545.6 331.2 C544.7 331.6 543.9 332.0 543.0 332.5 C542.7 334.8 542.9 337.2 543.6 339.4 C546.2 337.7 547.1 333.7 545.3 331.1 M526.9 483.6 C525.5 482.3 524.1 481.0 522.6 479.7 C522.2 481.3 521.8 482.9 521.3 484.5 C523.0 486.1 526.1 485.6 527.3 483.6 M150.7 699.3 C151.4 698.8 152.2 698.2 153.0 697.7 C150.0 695.9 146.3 695.5 143.0 696.4 C145.5 697.3 148.0 698.2 150.5 699.1 M560.0 1041.5 C560.2 1040.5 560.0 1039.5 559.4 1038.7 C557.3 1039.6 556.2 1042.4 557.2 1044.5 C557.8 1045.1 558.8 1045.3 559.6 1045.0 C560.1 1043.9 560.2 1042.7 560.0 1041.5 M547.9 278.5 C548.3 277.4 547.6 275.8 546.4 276.0 C545.7 278.7 545.7 281.6 546.5 284.2 C548.5 283.4 548.3 280.6 547.8 278.6" />
<path fill="#000000" stroke="#000000" opacity="1.00" 
 d="
M678.5 901.0 C676.9 897.8 679.1 893.5 682.6 892.8 C681.2 895.1 680.6 897.9 681.1 900.6 C680.2 900.8 679.4 901.0 678.5 901.2" />
<path fill="#000000" stroke="#000000" opacity="1.00" 
 d="
M560.3 237.9 C562.8 240.5 563.0 246.2 559.3 246.8 C557.8 247.1 556.3 246.3 555.0 245.5 C554.3 243.7 555.7 241.9 556.4 240.2 C557.2 238.5 556.4 235.7 554.6 236.0 C556.5 234.8 559.4 235.8 560.3 237.9" />
</svg>