<?xml version="1.0" encoding="utf-8"?>
<!-- Generator: Adobe Illustrator 16.0.0, SVG Export Plug-In . SVG Version: 6.00 Build 0)  -->
<!DOCTYPE svg PUBLIC "-//W3C//DTD SVG 1.1//EN" "http://www.w3.org/Graphics/SVG/1.1/DTD/svg11.dtd">
<svg version="1.1" id="Contours" xmlns="http://www.w3.org/2000/svg" xmlns:xlink="http://www.w3.org/1999/xlink" x="0px" y="0px"
	 width="587.517px" height="582.28px" viewBox="7.326 169.876 587.517 582.28"
	 enable-background="new 7.326 169.876 587.517 582.28" xml:space="preserve">
<desc  xmlns:shape="http://adobe.com/products/shape">
	<shape:version>1.0</shape:version>
	<shape:captureDetail>1.000000</shape:captureDetail>
	<shape:sourceImage></shape:sourceImage>
	<shape:source>0</shape:source>
	<shape:platformVersion>shape-android-1.2</shape:platformVersion>
</desc>
<path stroke="#000000" stroke-linecap="round" stroke-linejoin="round" d="M232.214,533.497c-4.464-4.685-10.969-6.725-17.196-8.599
	c-69.063-20.835-138.128-41.67-207.191-62.504c4.521-8.323,14.387-11.906,23.371-14.772
	c61.126-19.732,122.197-39.409,183.324-59.142c3.362-1.102,9.149,0.276,7.551,3.473c-67.575,21.441-135.15,42.827-202.726,64.268
	c91.496-1.268,182.993-2.535,274.49-3.858c-19.347-25.685-42.606-48.394-68.733-67.079c5.788,5.347,15.93,1.488,20.009-5.291
	c4.078-6.725,4.134-15.103,4.96-22.93c1.323-13.229,5.126-26.071,8.874-38.858c14.552-49.276,29.103-98.552,43.654-147.828
	c23.37,69.174,46.686,138.348,70,207.521c1.268,3.748,2.646,7.717,5.567,10.417c2.535,2.315,5.897,3.472,9.205,4.52
	c68.953,22.599,137.961,45.142,206.97,67.741c-62.56,20.063-125.119,40.126-187.679,60.135
	c-13.559,4.354-29.048,10.527-33.126,24.196c-16.591,55.449-33.126,110.898-49.717,166.348c-4.465,14.827-9.48,30.591-21.441,40.402
	c-0.386-15.323-5.236-30.149-10.087-44.701c-17.417-52.804-34.89-105.552-52.362-158.301
	C238.113,543.198,236.239,537.576,232.214,533.497 M167.947,497.229c-0.882,0.496-1.764,1.047-2.646,1.598
	c2.536,1.709,5.017,3.418,7.552,5.071c1.488,1.047,3.307,2.039,4.961,1.323c-0.662-2.536-3.528-4.244-6.063-3.583
	c-0.551-0.992-1.874-1.434-2.866-0.992C168.552,499.489,168.277,498.331,167.947,497.229 M369.735,461.457
	c0.882-3.527,6.229-4.851,8.654-2.149c0.937-1.434,2.204-2.646,3.638-3.638c-8.599,0.11-17.142,0.165-25.74,0.275
	c-4.244,0.055-9.261,0.441-11.521,4.079c1.544-0.827,3.748,0.11,4.189,1.818c-9.48,0.11-18.961,0-28.496-0.33
	c0.275-1.378-0.882-3.528-1.764-2.48c-1.654,6.448,4.188,12.181,9.37,16.425c13.173,10.969,25.354,23.095,36.378,36.158
	c2.701,3.307,5.457,6.669,8.984,9.039s8.103,3.638,12.071,2.205c56.11-19.732,112.552-38.362,169.379-55.891
	c1.764-0.551,1.819-3.362,0.44-4.63c-1.378-1.268-3.472-1.433-5.346-1.543c-15.488-0.717-30.977-1.434-46.465-2.149
	c-26.788-1.269-53.686-2.48-80.474-1.048c0.606-0.661,1.764,0.496,1.323,1.323c-0.386,0.826-1.434,1.103-2.315,1.268
	c-4.795,0.771-9.646,1.213-14.496,1.709c-4.52,0.386-9.039,0.826-13.504,1.268C385.829,463.938,377.286,464.654,369.735,461.457
	 M298.688,648.309c-0.221-3.913-0.386-7.882,0.551-11.63c5.897-22.818,1.488-46.795,1.047-70.331
	c-0.165-7.661,0.166-15.268,0.441-22.93c0.827-20.779,1.709-41.559,2.646-62.339c0.221-4.52,0.275-9.48-2.646-12.952
	c-17.583,16.094-35.166,32.244-52.748,48.339c-4.74,4.354-9.977,10.417-7.662,16.425c8.158,21.221,15.93,42.606,23.205,64.104
	c2.701,8.047,5.401,16.094,8.047,24.142c4.906,14.717,9.757,29.433,14.606,44.149c2.48,7.496,5.017,15.048,7,22.709
	c2.095,7.992,3.804,16.48,9.095,22.819C301.058,689.979,299.9,669.144,298.688,648.309 M356.782,351.165
	c-16.37-48.229-32.686-96.513-49.001-144.741c-0.826-2.48-3.307-5.457-5.291-3.803c2.425,5.346,2.921,11.63,1.268,17.362
	c-0.496,1.708-1.157,3.472-1.157,5.292c0.11,5.181,5.843,8.984,5.843,14.165c0.22,52.528,0.386,105.056,0.605,157.584
	c0.056,14.221,0.11,28.496,0.11,42.717c0.056,1.323,0.11,2.812,1.157,3.638c1.654,1.378,4.024-0.11,5.623-1.543
	c12.787-11.52,25.63-23.04,38.417-34.56c6.394-5.732,13.339-12.622,13.174-21.22c-0.056-3.142-1.048-6.173-2.04-9.15
	C362.57,368.307,359.649,359.708,356.782,351.165 M308.719,519.662c0.882,6.449,0.11,13.118-2.205,19.182
	c-0.771,0.771-0.826,1.984-0.882,3.031c-0.221,6.229-0.44,12.512-0.661,18.74c0.551,1.819,1.047,3.638,1.598,5.512
	c-1.377,3.252-0.551,7.331,1.93,9.866c0.606-10.582,1.213-21.165,1.818-31.803c0.496-8.984,0.992-17.969,1.765-26.898
	c0.165-1.708,0.33-3.527-0.496-5.016c-1.213-3.858-1.488-7.992-0.772-11.905c-0.882,0.055-1.818,0.165-2.7,0.275
	c0.165,3.307,0.331,6.614,0.496,9.921c0.11,2.646,0.221,5.567-1.213,7.827C308.057,518.395,308.719,519.001,308.719,519.662
	 M331.979,551.466c0.331,2.921,1.268,6.063,3.693,7.771c0.33-0.165,0.661-0.331,1.047-0.496c0.221-1.268,0.221-2.977-0.992-3.362
	c-0.221-0.606,0.11-1.433,0.717-1.433c-1.103-2.646-1.378-5.622-0.662-8.434c2.37-1.047,2.977-4.078,3.032-6.669
	c0.11-4.465-0.662-8.93-2.149-13.118c-1.213-0.717-2.757-0.827-4.024-0.275c-0.882,4.85-0.33,9.921,1.599,14.496
	c-0.496,0.275-1.103,0.44-1.653,0.275C331.758,543.914,331.537,547.718,331.979,551.466 M301.002,315.559
	c-0.055-0.441,0.496-0.662,0.717-1.047s-0.496-0.882-0.496-0.441c1.378-0.772,0.827-2.811,0.331-4.299
	c-1.213-3.638-1.213-7.717,0.055-11.299c-1.378-6.173-1.543-12.567-0.551-18.795c-0.827-0.882-1.984,0.662-2.095,1.874
	c-0.221,3.527,0.386,7.11-0.275,10.528c-1.599,8.102-2.04,16.425-1.269,24.693c0.11,0.771,0.221,1.708,0.938,2.094
	c-1.434,4.851-0.661,10.308,2.039,14.552c0.606-4.244,0.717-8.543,0.276-12.843c-0.11-1.599-0.166-3.693,1.322-4.465
	C301.554,316.109,301.058,315.944,301.002,315.559 M189.608,459.087c0.661,0.056,1.323,0.165,1.984,0.221
	c0.275,0.771,0.386,1.653,0.275,2.48c7.771-0.386,15.599-0.166,23.37,0.771c3.418,0.386,7.882,0.44,9.205-2.756
	c-2.977-2.646-7.331-2.756-11.354-2.756c-4.74,0-9.48,0-14.221-0.056c-1.488,0-3.307,0.221-3.969,1.544
	C194.073,460.244,190.71,457.488,189.608,459.087 M286.506,258.235c0.606-1.103,1.213-2.205,1.819-3.308
	c-0.717-1.268-0.882-2.811-0.496-4.189c1.157-0.992,1.984-2.315,2.425-3.748c0.221-0.882-0.11-2.205-0.992-1.984
	c1.157-0.717,1.599-2.425,0.882-3.638c-2.039,0.882-2.591,3.528-2.591,5.732c-0.055,2.205,0.11,4.685-1.378,6.339
	c-1.268,1.488-1.929,3.362-2.535,5.236c-2.977,8.984-5.953,17.969-8.929,26.898c-0.276,0.882,0.109,2.315,0.882,1.819
	c0.11,0.662-0.496,1.268-1.103,1.213c0.661,0.331,1.213,0.882,1.543,1.543c1.488-3.638,3.031-7.331,4.52-10.969
	c0.386-0.882,0.717-1.819,1.103-2.701c0.386-0.937,0.771-1.874,1.157-2.866C284.688,268.708,285.955,263.526,286.506,258.235
	 M438.412,427.779c-0.055,1.323-0.826,2.591-1.929,3.252c2.37,1.158,5.126,1.213,7.771,1.269c4.63,0.11,9.426,0.165,13.835,1.764
	c2.37,0.882,4.575,2.204,7.055,2.811c2.426,0.662,5.347,0.496,7.166-1.268c-0.056-1.929-2.426-2.756-4.354-3.087
	c-2.921-0.551-5.897-1.047-8.874-1.543c-3.638-0.606-7.275-1.157-10.858-1.709C444.972,428.771,441.664,428.275,438.412,427.779
	 M353.034,575.497c-1.544,5.567-2.756,11.244-3.583,16.922c-0.938,0.551-1.378,1.709-1.047,2.756
	c0.386,0.221,0.882,0.331,1.322,0.221c0.221-0.992,0.661-1.874,1.323-2.646c1.322-3.253,2.646-6.505,3.968-9.757
	c1.103-2.7,2.205-5.456,1.984-8.322c-0.22-2.37-0.992-5.457,1.048-6.614c1.322-4.189,2.535-8.378,3.692-12.622
	c-0.937-0.331-1.984-0.386-2.921-0.11c-1.599,3.417-2.37,7.33-2.205,11.134c-0.882,0.386-1.653,0.937-2.204,1.709
	c1.322,0.937,0.33,2.976-0.386,4.464C353.585,573.568,353.31,574.561,353.034,575.497 M361.798,550.198
	c0.937-2.591,1.874-5.182,2.811-7.827c-0.275-0.386-0.551-0.717-0.826-1.103c1.984-1.818,3.086-4.63,2.756-7.33
	c-0.386-0.276-0.938-0.387-1.378-0.221c-0.166-0.386-0.275-0.771-0.221-1.213c-1.323-2.205-3.693-3.748-6.283-4.023
	c0.22,4.079,0.937,8.157,2.26,12.071c1.268,0.109,0.992,2.039,0.33,3.142c-0.771,1.212-1.488,2.425-2.26,3.638
	c0.441-0.11,0.882,0.33,0.827,0.771c-1.103,1.268-1.653,2.921-1.543,4.575c1.047,0.44,2.26,0.44,3.307,0
	c-0.882-0.386-1.543-1.269-1.653-2.26C360.531,550.143,361.192,550.088,361.798,550.198 M303.758,409.37
	c0-1.103,0-2.205-0.496-3.197c-0.221-0.496-0.606-0.937-0.716-1.487c-0.056-0.552,0.275-1.269,0.882-1.213
	c-0.938-1.488-1.213-3.418-0.717-5.126c-0.552-0.386-1.323-0.386-1.874,0c-1.378,0.771-1.709,2.646-1.434,4.244
	c0.276,1.543,1.048,3.031,1.158,4.574c0.165,1.378-0.166,2.756-0.882,3.914c1.047,4.244,1.322,8.708,0.826,13.118
	c-0.165,0.992-0.275,2.149,0.331,3.031c0.606,0.827,2.314,0.771,2.425-0.275c0.827-0.056,0.11-1.323-0.661-1.599
	c0.827,0.055,1.103-1.047,1.103-1.874C303.703,418.795,303.703,414.056,303.758,409.37 M258.45,397.188
	c-1.268,1.379-1.322,3.528-0.661,5.236c0.661,1.709,1.93,3.143,3.197,4.465c1.818,1.984,4.409,4.189,6.89,3.087
	c0.661-3.087-2.48-5.457-4.244-8.048C262.254,400.055,260.435,398.457,258.45,397.188 M206.144,499.489
	c-5.071-2.26-10.639-3.362-16.205-3.252c-0.827,0.055-1.819,0.22-2.095,0.992c2.205,1.047,4.354,2.094,6.56,3.142
	c1.983,0.937,4.023,1.929,6.228,2.039C202.836,502.521,205.261,501.528,206.144,499.489 M333.907,648.915
	c-1.102,0.717-1.487,2.149-1.874,3.418c-1.212,4.52-3.252,8.818-6.008,12.622c-0.551,0.771-0.055,1.818-0.055,2.756
	c0,1.322-0.882,2.425-1.378,3.638c-0.441,1.213-0.221,2.977,1.047,3.252c2.701-1.599,3.418-5.181,3.804-8.323
	c0.22-1.598,0.44-3.252,0.661-4.905c0.055-0.717,0.221-1.543,0.661-2.095C333.081,656.411,334.239,652.608,333.907,648.915
	 M392.719,401.488c-2.149-0.938-4.96,1.047-4.795,3.417c-0.992,1.048-2.425,1.599-3.858,1.544c-1.047,1.047-1.157,2.811-0.275,3.968
	c0.882,1.103,2.646,1.488,3.913,0.717c0.441-0.331-0.11-1.268-0.661-1.047c1.929-1.434,4.079-2.591,6.394-3.362
	c-0.221-0.882,0.221-1.874,1.048-2.26C393.656,403.638,393.05,402.591,392.719,401.488 M231.608,506.434
	c-0.882,0-1.708,0.386-2.314,1.048c5.732,1.322,12.126-2.812,13.339-8.599c-3.804,0.717-7.386,2.48-10.308,4.961
	C231.553,504.505,230.836,505.772,231.608,506.434 M299.68,268.542c0.716-0.496,1.433-0.937,2.204-1.433
	c0.771-5.512,0.938-11.134,0.552-16.756c-0.496-0.606-1.323,0.386-1.488,1.213c-0.606,3.307-1.213,6.669-1.819,10.031
	C298.688,263.912,298.302,266.558,299.68,268.542 M318.585,693.672c-2.205,1.212-2.149,5.016,0.11,6.118
	c2.866-3.748,4.134-8.654,3.582-13.339c-1.268-0.827-2.921,0.551-3.362,1.984c-0.44,1.433-0.33,3.031-0.992,4.409
	C318.309,692.9,318.585,693.286,318.585,693.672 M286.175,387.323c-0.44-0.221-0.992-0.331-1.487-0.276
	c-0.276-0.771-0.496-1.543-0.772-2.315c-2.149,5.016-1.764,11.024,0.882,15.764c0.662-1.378,1.269-2.812,1.874-4.244
	c0.11-0.275,0.276-0.606,0.276-0.937c0.055-0.496-0.166-1.047-0.331-1.543C285.9,391.732,285.735,389.472,286.175,387.323
	 M336.94,629.514c0.275-0.551,0.606-1.157,0.937-1.709c0.386,0.827,1.764,0.717,2.37-0.055c0.552-0.717,0.552-1.764,0.496-2.701
	c-0.055-2.039-0.11-4.078-0.221-6.118c0-0.551-0.055-1.157-0.551-1.433c-0.717-0.386-1.434,0.496-1.764,1.212
	c-0.771,1.544-1.543,3.087-2.26,4.63c-0.275,0.496-0.552,1.048-0.552,1.654C335.451,626.647,337.546,627.971,336.94,629.514
	 M266.994,388.535c-0.496-1.764-1.544-3.417-2.922-4.63c-0.716-0.661-1.708-1.268-2.646-0.992c-0.44,1.599-0.826,3.252-0.551,4.851
	s1.378,3.142,2.977,3.473C265.45,391.567,267.27,390.134,266.994,388.535 M328.451,520.765c-0.771-0.165-1.268-1.103-1.048-1.819
	c1.378,0.11,1.434-1.983,0.938-3.252c-0.441-1.212-0.882-2.37-1.378-3.527c-0.275-0.717-0.992-1.543-1.544-1.047
	c-0.055,4.574-0.055,9.149-0.055,13.725c0.221-0.771,1.103-1.323,1.874-1.103c-0.055-0.827,0.441-1.709,1.213-2.039
	c-0.275,0.165-0.771-0.11-0.771-0.441C327.68,520.875,328.12,520.6,328.451,520.765 M117.127,462.614
	c0.055-0.771,0.937-1.378,1.653-1.157c0.165,0.441,0.386,0.882,0.551,1.323c3.748,0.11,7.496,0.055,11.244-0.221
	c0.772-0.661-0.605-1.653-1.598-1.764c-2.591-0.221-5.126-0.441-7.717-0.717c-1.874-0.165-4.079-0.221-5.292,1.268
	C116.521,461.513,117.017,462.009,117.127,462.614 M284.357,465.37c-0.11,1.269-0.275,2.48-0.386,3.749
	c1.433-0.496,2.866-1.103,4.244-1.875c0.882-0.44,1.818-1.047,2.314-1.929s0.386-2.205-0.44-2.756
	c-2.646,0.882-5.236,1.709-7.882,2.591C282.923,465.261,283.64,465.315,284.357,465.37 M317.483,458.095
	c0.771-0.386,1.764-0.386,2.591-0.055c0.44-0.441,0.606-1.048,0.496-1.599c0.44,0.551,1.268-0.331,1.322-1.103
	c0.11-0.717,0.386-1.764,1.103-1.599c3.417,0.938,7.165,0.772,10.473-0.44c-3.031-0.165-6.063-0.275-9.095-0.441
	c-1.433-0.055-2.977-0.11-4.188,0.606C318.585,454.402,317.923,456.331,317.483,458.095 M268.593,328.346
	c-2.426,2.095-3.583,5.402-3.032,8.543c1.819,0.331,3.473-1.323,3.858-3.142C269.75,331.929,269.144,330.11,268.593,328.346
	 M178.088,484.331c1.433,1.103,2.977,2.315,4.795,2.591c1.819,0.221,3.914-0.827,4.134-2.701c-2.646-0.661-5.401-1.102-8.157-1.268
	C178.639,483.395,178.364,483.835,178.088,484.331 M222.679,506.489c0.221-0.496-0.331-0.938-0.827-1.048
	c1.103-1.764,1.378-4.078,0.606-6.008c-2.535,0.166-3.638,3.197-4.134,5.678C219.317,506.379,221.136,506.93,222.679,506.489
	 M249.191,393.882c0.275,0.441,0.496,0.882,0.771,1.323c1.434,0.11,2.866-0.992,3.143-2.425c0.275-1.378-0.606-2.921-1.984-3.417
	c-1.158,0.386-2.37,0.827-3.032,1.874c-0.605,0.992-0.109,2.701,1.103,2.756 M342.231,546.946c-1.103,2.314-2.205,4.574-3.252,6.834
	c-0.441,0.938-0.882,2.04-0.386,2.922c1.543-1.599,3.031-3.197,4.52-4.796C344.325,550.419,343.884,547.883,342.231,546.946
	 M309.27,723.49c0.827,0.992,2.149,1.488,3.418,1.269c-0.938-1.378-0.496-3.473,0.882-4.41c-0.717-0.661-1.158-1.598-1.213-2.535
	c-0.938-0.386-2.205,0.661-1.709,1.543c-0.661,0.056-1.268,0.11-1.874,0.166C309.215,720.79,309.38,722.168,309.27,723.49
	 M313.349,596.442c0.221-1.157,0.386-2.314,0.551-3.473c0.11-0.386,0.11-0.882-0.221-1.157c-0.22-0.165-0.551-0.11-0.882-0.055
	c-1.157,0.165-2.37,0.386-3.527,0.605c0.386-0.496,0.771,0.662,0.386,1.103c-0.44,0.441-0.826,1.434-0.165,1.488
	C309.931,596.498,311.971,597.27,313.349,596.442 M358.215,436.158c2.48,1.102,5.347,1.487,8.048,0.992
	c0.33-0.772,0.44-1.654,0.275-2.48C363.727,434.118,360.696,434.67,358.215,436.158 M347.412,602.561
	c1.047-1.488,1.378-3.473,0.826-5.236c-0.33-0.275-0.882-0.386-1.322-0.275c-0.11,0.551-0.496,1.047-0.992,1.268
	c0.661,0.496,0.11,1.819-0.717,1.709c-0.717,1.653-0.275,3.692,1.047,4.961c0.386-0.717,1.103-1.213,1.874-1.434
	C347.908,603.222,347.632,602.892,347.412,602.561 M302.05,359.764c0-0.551,0-1.103,0-1.654c-0.496-0.275-1.048-0.551-1.544-0.882
	c-1.543,1.488-2.26,3.803-1.709,5.842c0.883,0.606,2.04,0.662,2.977,0.221C302.105,362.134,302.159,360.921,302.05,359.764
	 M96.843,460.135c0.496-0.221,1.048-0.441,1.544-0.662c-2.48,0.056-4.961,0.056-7.496,0.11c0.496,0.717,0.992,1.488,1.488,2.26
	c2.535,0.992,5.456,0.882,7.882-0.275C98.883,461.732,96.899,461.513,96.843,460.135 M271.018,303.873
	c1.488-2.26,2.591-4.795,3.197-7.496c0.165-0.716,0.275-1.433,0.275-2.205c-2.535,2.04-4.189,5.126-4.409,8.378
	C270.411,302.991,270.687,303.432,271.018,303.873 M347.963,527.82c0.496,0.771,1.819,0.496,2.26-0.276
	c0.441-0.771,0.331-1.764,0.221-2.646c-0.221-1.268-0.386-2.535-0.606-3.748c-1.874,0.441-2.977,2.812-2.095,4.52
	C348.073,526.387,348.624,527.324,347.963,527.82 M102.41,472.757c1.599,1.157,4.079,0.661,5.07-0.992
	c-2.094-1.048-4.52-1.599-6.834-1.488c-0.938,1.047,0.22,3.031,1.599,2.756 M271.9,399.835c0.441-1.544,0.552-3.197,0.331-4.796
	c-1.213-0.716-2.26-1.764-3.032-3.031c0,0.882-0.275,1.764-0.716,2.536c0.826,0.551,1.268,1.653,1.047,2.59
	C270.577,397.795,271.404,398.732,271.9,399.835 M241.144,459.197c-1.544,0.055-3.087,0.11-4.63,0.165
	c1.984,1.984,5.016,2.812,7.717,2.095c0.496-1.433-1.599-2.26-3.087-2.205 M269.475,316.165c0.386-0.992,0.386-2.205,0-3.252
	c-0.662-0.22-1.323-0.496-1.984-0.716c0.11,0.771-0.441,1.543-1.157,1.764c0.551,0.166,0.937,0.661,1.047,1.212
	c-0.771-0.055-1.378,0.827-1.047,1.543c0.716,1.213,2.976,0.882,3.307-0.441 M198.813,489.788c0.937-0.717,0.826-2.095,0.661-3.307
	c-0.992-0.276-2.039-0.331-3.031-0.221c0.055,0.882-0.606,1.764-1.434,1.984c0.606,1.268,2.37,1.818,3.639,1.157 M300.176,372.11
	c-0.221-0.331-0.441-0.661-0.662-0.992c0.992-1.764,1.268-3.913,0.771-5.842c0.496-0.11,1.048-0.276,1.544-0.386
	c-0.606-0.937-2.205-0.606-2.812,0.386c-0.606,0.937-0.496,2.149-0.33,3.252c0.165,1.103,0.386,2.315,0,3.362
	C299.128,372.165,299.68,372.275,300.176,372.11 M227.309,521.481c0.661-0.992,1.268-1.984,1.929-2.922
	c-0.882-0.716-1.818-1.433-2.7-2.149c-0.717,0.662-1.323,1.488-1.709,2.426c0.827,0.882,1.599,1.818,2.426,2.756 M45.748,465.04
	c0-0.552,0-1.103,0-1.653c-1.488-0.717-3.473-0.166-4.409,1.212c0.606,1.819,3.527,2.095,4.465,0.496 M278.9,339.921
	c0,0.716,0,1.488,0,2.205c0.496,0.276,1.103,0.386,1.709,0.276c0.11-1.378,0.275-2.756,0.386-4.134
	c-0.386-0.441-0.827-0.937-1.268-1.378c-0.938,0.606-1.323,1.984-0.771,3.032 M148.82,461.732c1.379,0.552,3.032,0.331,4.3-0.496
	c-1.599-1.268-3.748-1.818-5.787-1.378c-0.056,0.827,0.661,1.654,1.487,1.654 M300.948,350.944c0-1.157,0-2.26,0-3.417
	c-1.323,2.26-2.591,5.236-0.882,7.165c0.882-0.992,1.212-2.425,0.771-3.693 M261.041,378.228c-0.275,0.882,0.661,1.874,1.544,1.654
	c-0.441-1.709,0.551-3.638,2.149-4.354c-0.496-0.606-1.434-0.827-2.149-0.551c-0.056,1.213-0.662,2.425-1.654,3.142
	 M300.727,273.613c-0.496,0.22-0.938,0.441-1.434,0.716c-0.165,1.268-0.055,2.591,0.331,3.803c1.434-0.937,1.93-3.142,0.938-4.575
	 M290.419,357.614c-0.771-0.716-1.543-1.433-2.37-2.149c-0.22,0.882-0.44,1.764-0.716,2.646c0.937,0.882,2.646,0.606,3.307-0.496
	 M83.064,476.505c0.386-0.276,0.827-0.606,1.268-0.882c-1.653-0.992-3.693-1.213-5.512-0.717c1.378,0.496,2.756,0.992,4.134,1.488
	 M308.663,665.12c0.11-0.551,0-1.103-0.33-1.543c-1.158,0.496-1.765,2.039-1.213,3.196c0.331,0.331,0.882,0.441,1.323,0.275
	C308.719,666.443,308.774,665.781,308.663,665.12 M301.994,244.565c0.221-0.606-0.165-1.488-0.827-1.378
	c-0.386,1.488-0.386,3.087,0.056,4.52c1.103-0.441,0.992-1.984,0.717-3.087"/>
<path stroke="#000000" stroke-linecap="round" stroke-linejoin="round" d="M373.979,587.679c-0.882-1.764,0.331-4.134,2.26-4.52
	c-0.771,1.268-1.102,2.811-0.826,4.299c-0.496,0.11-0.938,0.221-1.434,0.331"/>
<path stroke="#000000" stroke-linecap="round" stroke-linejoin="round" d="M308.829,222.188c1.378,1.433,1.487,4.575-0.552,4.906
	c-0.826,0.165-1.653-0.276-2.37-0.717c-0.386-0.992,0.387-1.984,0.771-2.921c0.441-0.937,0-2.48-0.991-2.315
	C306.735,220.479,308.333,221.03,308.829,222.188"/>
</svg>
