<?xml version="1.0" encoding="utf-8"?>
<!-- Generator: Adobe Illustrator 16.0.0, SVG Export Plug-In . SVG Version: 6.00 Build 0)  -->
<!DOCTYPE svg PUBLIC "-//W3C//DTD SVG 1.1//EN" "http://www.w3.org/Graphics/SVG/1.1/DTD/svg11.dtd">
<svg version="1.1" id="Contours" xmlns="http://www.w3.org/2000/svg" xmlns:xlink="http://www.w3.org/1999/xlink" x="0px" y="0px"
	 width="587.518px" height="582.281px" viewBox="0 0 587.518 582.281" enable-background="new 0 0 587.518 582.281"
	 xml:space="preserve">
<desc  xmlns:shape="http://adobe.com/products/shape">
	<shape:version>1.0</shape:version>
	<shape:captureDetail>1.000000</shape:captureDetail>
	<shape:sourceImage></shape:sourceImage>
	<shape:source>0</shape:source>
	<shape:platformVersion>shape-android-1.2</shape:platformVersion>
</desc>
<path fill="#FFFFFF" stroke="#FFFFFF" stroke-linecap="round" stroke-linejoin="round" d="M224.386,363.621
	c-4.464-4.686-10.969-6.725-17.195-8.6C138.128,334.187,69.063,313.351,0,292.517c4.521-8.322,14.387-11.906,23.371-14.771
	c61.126-19.732,122.197-39.41,183.324-59.143c3.361-1.102,9.148,0.275,7.551,3.473c-67.575,21.441-135.15,42.828-202.726,64.268
	c91.496-1.268,182.992-2.535,274.489-3.857c-19.347-25.686-42.605-48.395-68.732-67.078c5.788,5.346,15.93,1.487,20.009-5.291
	c4.078-6.726,4.134-15.104,4.96-22.931c1.323-13.229,5.126-26.071,8.874-38.858C265.672,99.052,280.222,49.776,294.774,0.5
	c23.37,69.174,46.686,138.348,70,207.521c1.268,3.748,2.646,7.717,5.567,10.417c2.534,2.315,5.896,3.472,9.204,4.521
	c68.953,22.598,137.962,45.141,206.971,67.74c-62.561,20.063-125.119,40.127-187.68,60.135
	c-13.559,4.355-29.048,10.527-33.126,24.197c-16.591,55.447-33.126,110.896-49.717,166.348c-4.465,14.826-9.479,30.59-21.441,40.402
	c-0.386-15.324-5.235-30.15-10.087-44.701c-17.417-52.805-34.89-105.553-52.361-158.301
	C230.286,373.322,228.412,367.699,224.386,363.621 M160.12,327.351c-0.882,0.496-1.764,1.049-2.646,1.6
	c2.536,1.709,5.018,3.418,7.553,5.07c1.487,1.047,3.307,2.039,4.961,1.322c-0.662-2.535-3.528-4.244-6.063-3.582
	c-0.551-0.992-1.874-1.434-2.865-0.992C160.725,329.613,160.45,328.455,160.12,327.351 M361.908,291.58
	c0.882-3.527,6.229-4.85,8.654-2.148c0.937-1.434,2.204-2.646,3.638-3.639c-8.599,0.111-17.142,0.166-25.74,0.275
	c-4.243,0.055-9.261,0.441-11.521,4.08c1.544-0.828,3.748,0.109,4.188,1.816c-9.479,0.111-18.961,0-28.495-0.33
	c0.274-1.377-0.883-3.527-1.765-2.479c-1.654,6.447,4.188,12.18,9.37,16.424c13.173,10.969,25.354,23.096,36.378,36.158
	c2.701,3.307,5.457,6.67,8.984,9.039c3.526,2.371,8.103,3.639,12.07,2.205c56.11-19.732,112.553-38.361,169.38-55.891
	c1.764-0.551,1.818-3.361,0.439-4.631c-1.378-1.268-3.472-1.432-5.346-1.543c-15.488-0.717-30.978-1.434-46.465-2.148
	c-26.788-1.27-53.687-2.48-80.475-1.049c0.606-0.66,1.765,0.496,1.323,1.324c-0.386,0.826-1.434,1.104-2.315,1.268
	c-4.795,0.771-9.646,1.213-14.496,1.709c-4.52,0.387-9.038,0.826-13.504,1.268C378.002,294.06,369.459,294.777,361.908,291.58
	 M290.861,478.431c-0.222-3.912-0.386-7.881,0.551-11.629c5.897-22.818,1.488-46.795,1.047-70.332
	c-0.165-7.66,0.166-15.268,0.441-22.93c0.827-20.779,1.709-41.559,2.646-62.338c0.222-4.521,0.275-9.48-2.646-12.953
	c-17.583,16.094-35.166,32.244-52.748,48.34c-4.74,4.354-9.978,10.416-7.662,16.424c8.158,21.223,15.93,42.607,23.205,64.105
	c2.701,8.047,5.4,16.094,8.047,24.141c4.906,14.719,9.757,29.434,14.605,44.15c2.48,7.496,5.018,15.047,7,22.709
	c2.096,7.992,3.805,16.479,9.096,22.818C293.231,520.101,292.073,499.267,290.861,478.431 M348.955,181.289
	c-16.37-48.229-32.686-96.514-49.001-144.742c-0.826-2.48-3.307-5.457-5.291-3.803c2.425,5.346,2.921,11.63,1.268,17.362
	c-0.495,1.708-1.156,3.472-1.156,5.292c0.109,5.181,5.843,8.984,5.843,14.165c0.22,52.528,0.386,105.056,0.605,157.585
	c0.056,14.221,0.109,28.494,0.109,42.717c0.057,1.322,0.11,2.811,1.157,3.637c1.654,1.379,4.024-0.109,5.623-1.543
	c12.787-11.52,25.63-23.039,38.417-34.559c6.395-5.732,13.339-12.623,13.174-21.221c-0.056-3.143-1.048-6.174-2.04-9.15
	C354.743,198.43,351.822,189.832,348.955,181.289 M300.892,349.785c0.882,6.449,0.109,13.119-2.205,19.182
	c-0.771,0.771-0.826,1.984-0.883,3.031c-0.221,6.229-0.439,12.512-0.66,18.74c0.551,1.818,1.047,3.639,1.598,5.512
	c-1.377,3.252-0.551,7.332,1.93,9.867c0.606-10.582,1.214-21.166,1.818-31.803c0.496-8.984,0.992-17.971,1.765-26.898
	c0.165-1.709,0.33-3.527-0.495-5.016c-1.214-3.859-1.488-7.992-0.772-11.906c-0.882,0.055-1.818,0.166-2.7,0.275
	c0.165,3.307,0.331,6.613,0.496,9.922c0.11,2.645,0.221,5.566-1.213,7.826C300.23,348.517,300.892,349.125,300.892,349.785
	 M324.152,381.589c0.331,2.92,1.268,6.063,3.693,7.771c0.33-0.166,0.66-0.332,1.047-0.496c0.221-1.27,0.221-2.979-0.992-3.363
	c-0.221-0.605,0.11-1.432,0.717-1.432c-1.103-2.646-1.378-5.623-0.662-8.436c2.37-1.047,2.978-4.078,3.032-6.668
	c0.11-4.465-0.662-8.93-2.149-13.119c-1.213-0.717-2.757-0.826-4.023-0.273c-0.882,4.85-0.33,9.92,1.599,14.496
	c-0.496,0.273-1.103,0.439-1.652,0.273C323.931,374.037,323.71,377.841,324.152,381.589 M293.175,145.682
	c-0.055-0.44,0.496-0.662,0.718-1.047c0.221-0.386-0.496-0.882-0.496-0.441c1.378-0.772,0.826-2.812,0.331-4.299
	c-1.214-3.638-1.214-7.718,0.055-11.299c-1.378-6.173-1.543-12.567-0.551-18.795c-0.827-0.882-1.984,0.662-2.096,1.874
	c-0.221,3.527,0.387,7.11-0.274,10.528c-1.6,8.103-2.04,16.426-1.27,24.693c0.11,0.771,0.222,1.708,0.938,2.094
	c-1.435,4.852-0.661,10.309,2.039,14.553c0.605-4.244,0.717-8.543,0.275-12.844c-0.109-1.599-0.166-3.693,1.322-4.465
	C293.727,146.232,293.231,146.067,293.175,145.682 M181.781,289.21c0.661,0.055,1.323,0.164,1.983,0.221
	c0.275,0.771,0.387,1.652,0.275,2.48c7.771-0.387,15.599-0.166,23.37,0.77c3.418,0.387,7.882,0.441,9.205-2.756
	c-2.978-2.645-7.331-2.756-11.354-2.756c-4.739,0-9.479,0-14.221-0.055c-1.488,0-3.307,0.221-3.969,1.543
	C186.246,290.367,182.883,287.611,181.781,289.21 M278.678,88.358c0.606-1.103,1.214-2.205,1.819-3.308
	c-0.717-1.268-0.882-2.811-0.496-4.189c1.157-0.992,1.984-2.315,2.425-3.748c0.222-0.882-0.109-2.205-0.991-1.984
	c1.156-0.717,1.599-2.425,0.882-3.638c-2.039,0.882-2.591,3.528-2.591,5.732c-0.056,2.205,0.109,4.685-1.379,6.339
	c-1.268,1.488-1.929,3.362-2.534,5.236c-2.978,8.984-5.953,17.969-8.93,26.898c-0.275,0.882,0.109,2.315,0.882,1.819
	c0.11,0.662-0.495,1.268-1.103,1.213c0.661,0.331,1.213,0.882,1.543,1.543c1.488-3.638,3.031-7.331,4.521-10.969
	c0.386-0.882,0.717-1.819,1.103-2.701c0.386-0.937,0.771-1.874,1.157-2.866C276.861,98.831,278.128,93.649,278.678,88.358
	 M430.585,257.902c-0.055,1.322-0.825,2.592-1.929,3.252c2.37,1.158,5.126,1.213,7.771,1.27c4.63,0.109,9.426,0.164,13.835,1.764
	c2.37,0.883,4.574,2.203,7.055,2.811c2.426,0.662,5.347,0.496,7.166-1.268c-0.056-1.93-2.426-2.756-4.354-3.088
	c-2.921-0.551-5.896-1.047-8.874-1.543c-3.638-0.605-7.274-1.156-10.857-1.709C437.145,258.894,433.837,258.398,430.585,257.902
	 M345.207,405.621c-1.544,5.566-2.756,11.244-3.583,16.922c-0.938,0.551-1.378,1.709-1.047,2.756
	c0.386,0.221,0.882,0.33,1.322,0.221c0.221-0.992,0.661-1.875,1.323-2.646c1.321-3.252,2.646-6.504,3.968-9.756
	c1.103-2.701,2.205-5.457,1.983-8.322c-0.22-2.371-0.991-5.457,1.049-6.615c1.321-4.188,2.535-8.377,3.691-12.621
	c-0.937-0.332-1.983-0.387-2.921-0.109c-1.599,3.416-2.37,7.33-2.205,11.133c-0.882,0.387-1.652,0.938-2.204,1.709
	c1.322,0.938,0.33,2.977-0.386,4.465C345.759,403.691,345.483,404.683,345.207,405.621 M353.971,380.322
	c0.937-2.592,1.874-5.184,2.811-7.828c-0.274-0.385-0.551-0.717-0.826-1.104c1.984-1.816,3.086-4.629,2.756-7.33
	c-0.386-0.275-0.938-0.387-1.378-0.221c-0.166-0.385-0.274-0.77-0.221-1.213c-1.323-2.205-3.693-3.748-6.283-4.023
	c0.221,4.08,0.938,8.158,2.261,12.072c1.268,0.109,0.991,2.039,0.329,3.143c-0.771,1.211-1.487,2.424-2.26,3.637
	c0.441-0.109,0.882,0.33,0.827,0.771c-1.103,1.268-1.653,2.92-1.543,4.574c1.047,0.441,2.26,0.441,3.307,0
	c-0.882-0.385-1.543-1.268-1.652-2.26C352.704,380.265,353.365,380.21,353.971,380.322 M295.93,239.494c0-1.104,0-2.205-0.495-3.197
	c-0.222-0.496-0.606-0.938-0.717-1.488c-0.056-0.551,0.275-1.268,0.883-1.213c-0.938-1.486-1.214-3.418-0.718-5.125
	c-0.552-0.387-1.322-0.387-1.874,0c-1.378,0.771-1.709,2.646-1.434,4.244c0.276,1.543,1.048,3.031,1.158,4.574
	c0.165,1.377-0.166,2.756-0.882,3.914c1.047,4.244,1.321,8.707,0.825,13.117c-0.165,0.992-0.274,2.148,0.331,3.031
	c0.606,0.826,2.314,0.771,2.425-0.275c0.827-0.055,0.11-1.322-0.66-1.6c0.826,0.057,1.103-1.047,1.103-1.873
	C295.876,248.917,295.876,244.179,295.93,239.494 M250.623,227.31c-1.268,1.381-1.322,3.529-0.661,5.236
	c0.661,1.709,1.931,3.145,3.197,4.465c1.818,1.984,4.409,4.189,6.89,3.088c0.661-3.088-2.479-5.457-4.244-8.049
	C254.427,230.177,252.608,228.58,250.623,227.31 M198.317,329.613c-5.071-2.262-10.64-3.363-16.205-3.252
	c-0.827,0.055-1.819,0.219-2.095,0.99c2.204,1.049,4.354,2.096,6.56,3.143c1.983,0.938,4.022,1.93,6.228,2.039
	C195.009,332.644,197.434,331.652,198.317,329.613 M326.08,479.039c-1.102,0.717-1.486,2.148-1.874,3.418
	c-1.212,4.52-3.252,8.818-6.008,12.621c-0.551,0.771-0.055,1.818-0.055,2.756c0,1.322-0.882,2.426-1.378,3.639
	c-0.441,1.213-0.222,2.977,1.047,3.252c2.701-1.6,3.418-5.182,3.804-8.322c0.22-1.6,0.44-3.252,0.661-4.906
	c0.055-0.717,0.221-1.543,0.661-2.094C325.254,486.535,326.412,482.732,326.08,479.039 M384.892,231.611
	c-2.149-0.938-4.96,1.047-4.795,3.418c-0.992,1.047-2.426,1.598-3.858,1.543c-1.047,1.047-1.157,2.811-0.275,3.969
	c0.883,1.102,2.646,1.488,3.913,0.717c0.441-0.332-0.109-1.268-0.66-1.047c1.929-1.434,4.078-2.592,6.394-3.363
	c-0.221-0.881,0.221-1.873,1.048-2.26C385.829,233.761,385.223,232.714,384.892,231.611 M223.781,336.556
	c-0.882,0-1.708,0.387-2.314,1.049c5.732,1.322,12.126-2.813,13.339-8.6c-3.804,0.717-7.386,2.48-10.308,4.961
	C223.726,334.628,223.009,335.896,223.781,336.556 M291.853,98.665c0.716-0.496,1.433-0.937,2.203-1.433
	c0.771-5.512,0.938-11.134,0.553-16.756c-0.496-0.606-1.323,0.386-1.488,1.213c-0.606,3.307-1.213,6.669-1.819,10.031
	C290.861,94.035,290.475,96.681,291.853,98.665 M310.759,523.794c-2.205,1.213-2.149,5.016,0.109,6.119
	c2.866-3.748,4.134-8.654,3.582-13.34c-1.268-0.826-2.921,0.551-3.362,1.984c-0.439,1.434-0.329,3.031-0.991,4.408
	C310.482,523.023,310.759,523.41,310.759,523.794 M278.347,217.447c-0.439-0.222-0.991-0.332-1.486-0.277
	c-0.276-0.771-0.496-1.543-0.772-2.314c-2.148,5.016-1.764,11.023,0.882,15.764c0.662-1.377,1.27-2.813,1.874-4.244
	c0.11-0.274,0.276-0.605,0.276-0.937c0.055-0.496-0.166-1.047-0.331-1.543C278.073,221.855,277.908,219.595,278.347,217.447
	 M329.113,459.636c0.275-0.551,0.606-1.156,0.938-1.709c0.386,0.828,1.764,0.717,2.369-0.055c0.553-0.717,0.553-1.764,0.496-2.701
	c-0.055-2.039-0.109-4.078-0.221-6.117c0-0.551-0.055-1.156-0.551-1.434c-0.717-0.385-1.435,0.496-1.765,1.213
	c-0.771,1.543-1.543,3.086-2.26,4.629c-0.274,0.496-0.552,1.049-0.552,1.654C327.624,456.769,329.719,458.093,329.113,459.636
	 M259.167,218.658c-0.496-1.764-1.544-3.416-2.922-4.63c-0.716-0.661-1.708-1.268-2.646-0.991c-0.439,1.599-0.825,3.252-0.551,4.851
	c0.275,1.599,1.378,3.142,2.978,3.473C257.623,221.69,259.443,220.257,259.167,218.658 M320.624,350.888
	c-0.771-0.166-1.268-1.104-1.048-1.818c1.378,0.109,1.435-1.984,0.938-3.252c-0.441-1.213-0.882-2.371-1.378-3.527
	c-0.275-0.717-0.992-1.543-1.544-1.047c-0.056,4.574-0.056,9.148-0.056,13.725c0.222-0.771,1.104-1.322,1.874-1.104
	c-0.055-0.826,0.441-1.709,1.213-2.039c-0.274,0.166-0.771-0.109-0.771-0.441C319.853,350.998,320.293,350.722,320.624,350.888
	 M109.3,292.738c0.056-0.771,0.938-1.379,1.653-1.158c0.165,0.441,0.386,0.883,0.551,1.324c3.748,0.109,7.496,0.055,11.244-0.223
	c0.772-0.66-0.604-1.652-1.598-1.764c-2.591-0.221-5.126-0.441-7.718-0.717c-1.873-0.164-4.078-0.221-5.292,1.268
	C108.694,291.636,109.19,292.132,109.3,292.738 M276.53,295.494c-0.11,1.268-0.275,2.479-0.386,3.748
	c1.433-0.496,2.865-1.104,4.243-1.875c0.883-0.439,1.818-1.047,2.314-1.928c0.496-0.883,0.386-2.205-0.44-2.758
	c-2.646,0.883-5.235,1.709-7.882,2.592C275.095,295.384,275.813,295.439,276.53,295.494 M309.656,288.218
	c0.771-0.387,1.764-0.387,2.591-0.055c0.44-0.441,0.606-1.049,0.496-1.6c0.44,0.551,1.269-0.33,1.322-1.104
	c0.11-0.717,0.386-1.764,1.103-1.598c3.417,0.938,7.165,0.771,10.474-0.441c-3.031-0.164-6.063-0.273-9.096-0.439
	c-1.433-0.057-2.977-0.111-4.188,0.605C310.759,284.525,310.096,286.455,309.656,288.218 M260.765,158.469
	c-2.426,2.095-3.583,5.401-3.031,8.543c1.818,0.331,3.473-1.323,3.857-3.142C261.923,162.052,261.317,160.233,260.765,158.469
	 M170.26,314.455c1.434,1.102,2.978,2.314,4.795,2.59c1.819,0.221,3.914-0.826,4.135-2.701c-2.646-0.66-5.401-1.102-8.157-1.268
	C170.812,313.517,170.537,313.958,170.26,314.455 M214.852,336.613c0.221-0.496-0.331-0.939-0.827-1.049
	c1.103-1.764,1.378-4.078,0.605-6.008c-2.535,0.166-3.638,3.197-4.134,5.678C211.49,336.501,213.309,337.052,214.852,336.613
	 M241.364,224.005c0.274,0.441,0.496,0.882,0.771,1.322c1.435,0.11,2.866-0.992,3.144-2.425c0.274-1.378-0.606-2.921-1.984-3.417
	c-1.158,0.387-2.37,0.827-3.032,1.874c-0.604,0.992-0.108,2.701,1.104,2.757 M334.404,377.07c-1.103,2.313-2.205,4.572-3.252,6.834
	c-0.441,0.938-0.882,2.039-0.386,2.922c1.543-1.6,3.03-3.197,4.52-4.797C336.498,380.542,336.057,378.005,334.404,377.07
	 M301.443,553.613c0.827,0.992,2.149,1.488,3.418,1.27c-0.938-1.379-0.496-3.473,0.882-4.41c-0.717-0.662-1.158-1.598-1.213-2.535
	c-0.938-0.387-2.205,0.66-1.709,1.543c-0.661,0.057-1.268,0.109-1.874,0.166C301.388,550.914,301.553,552.291,301.443,553.613
	 M305.522,426.566c0.221-1.158,0.386-2.314,0.551-3.475c0.11-0.385,0.11-0.881-0.221-1.156c-0.22-0.164-0.551-0.109-0.882-0.055
	c-1.157,0.164-2.37,0.385-3.527,0.605c0.386-0.496,0.771,0.662,0.386,1.102c-0.439,0.441-0.826,1.436-0.165,1.488
	C302.104,426.621,304.144,427.392,305.522,426.566 M350.388,266.281c2.479,1.102,5.347,1.486,8.048,0.992
	c0.33-0.771,0.439-1.654,0.274-2.48C355.9,264.242,352.869,264.792,350.388,266.281 M339.585,432.683
	c1.048-1.486,1.378-3.473,0.826-5.234c-0.33-0.275-0.882-0.387-1.322-0.275c-0.109,0.551-0.495,1.047-0.991,1.268
	c0.661,0.496,0.109,1.818-0.718,1.709c-0.717,1.652-0.274,3.691,1.048,4.961c0.386-0.717,1.103-1.213,1.874-1.434
	C340.081,433.345,339.805,433.015,339.585,432.683 M294.222,189.887c0-0.552,0-1.103,0-1.654c-0.495-0.274-1.048-0.551-1.544-0.882
	c-1.543,1.488-2.26,3.803-1.709,5.842c0.884,0.605,2.04,0.662,2.978,0.221C294.278,192.257,294.332,191.044,294.222,189.887
	 M89.015,290.257c0.496-0.221,1.049-0.439,1.545-0.662c-2.48,0.057-4.962,0.057-7.496,0.111c0.496,0.717,0.991,1.488,1.487,2.26
	c2.535,0.992,5.456,0.881,7.883-0.275C91.055,291.855,89.072,291.636,89.015,290.257 M263.191,133.996
	c1.487-2.26,2.591-4.795,3.196-7.496c0.165-0.715,0.275-1.433,0.275-2.205c-2.535,2.041-4.189,5.127-4.409,8.379
	C262.584,133.115,262.86,133.555,263.191,133.996 M340.136,357.943c0.496,0.771,1.818,0.496,2.26-0.275
	c0.44-0.771,0.331-1.764,0.221-2.646c-0.221-1.268-0.386-2.535-0.605-3.748c-1.874,0.441-2.978,2.813-2.096,4.52
	C340.246,356.509,340.797,357.447,340.136,357.943 M94.583,302.88c1.599,1.156,4.079,0.66,5.07-0.992
	c-2.094-1.049-4.521-1.6-6.834-1.488c-0.938,1.047,0.22,3.031,1.599,2.756 M264.073,229.958c0.44-1.545,0.552-3.197,0.331-4.797
	c-1.213-0.715-2.26-1.764-3.032-3.031c0,0.883-0.275,1.765-0.716,2.537c0.826,0.551,1.268,1.652,1.047,2.59
	C262.75,227.917,263.577,228.855,264.073,229.958 M233.317,289.32c-1.544,0.055-3.087,0.109-4.63,0.166
	c1.983,1.982,5.016,2.811,7.717,2.094c0.496-1.432-1.6-2.26-3.087-2.205 M261.648,146.289c0.386-0.992,0.386-2.205,0-3.252
	c-0.662-0.221-1.323-0.496-1.984-0.717c0.11,0.771-0.441,1.543-1.157,1.764c0.551,0.166,0.938,0.662,1.047,1.213
	c-0.771-0.055-1.378,0.826-1.047,1.543c0.716,1.213,2.977,0.882,3.308-0.441 M190.986,319.912c0.937-0.717,0.826-2.096,0.661-3.307
	c-0.992-0.277-2.039-0.332-3.031-0.223c0.055,0.883-0.606,1.766-1.435,1.984c0.606,1.268,2.37,1.818,3.64,1.158 M292.348,202.233
	c-0.221-0.331-0.44-0.661-0.661-0.991c0.991-1.765,1.268-3.914,0.771-5.843c0.496-0.11,1.048-0.276,1.544-0.386
	c-0.605-0.938-2.205-0.605-2.812,0.386c-0.606,0.937-0.496,2.149-0.33,3.252c0.165,1.103,0.386,2.315,0,3.362
	C291.301,202.289,291.853,202.398,292.348,202.233 M219.482,351.605c0.661-0.992,1.268-1.984,1.929-2.924
	c-0.882-0.715-1.818-1.432-2.7-2.148c-0.717,0.662-1.323,1.488-1.709,2.426c0.827,0.883,1.6,1.818,2.426,2.756 M37.921,295.164
	c0-0.553,0-1.104,0-1.654c-1.488-0.717-3.473-0.166-4.409,1.213c0.606,1.818,3.527,2.096,4.466,0.496 M271.073,170.044
	c0,0.716,0,1.488,0,2.205c0.496,0.275,1.103,0.385,1.709,0.275c0.11-1.378,0.274-2.756,0.386-4.134
	c-0.386-0.44-0.827-0.937-1.268-1.378c-0.938,0.605-1.323,1.984-0.771,3.031 M140.993,291.855c1.379,0.553,3.032,0.33,4.3-0.496
	c-1.599-1.268-3.748-1.818-5.787-1.377c-0.056,0.826,0.661,1.652,1.487,1.652 M293.121,181.067c0-1.157,0-2.26,0-3.417
	c-1.323,2.26-2.591,5.236-0.882,7.165c0.882-0.991,1.212-2.425,0.771-3.692 M253.214,208.351c-0.274,0.882,0.661,1.874,1.544,1.654
	c-0.44-1.709,0.552-3.639,2.149-4.354c-0.496-0.606-1.435-0.827-2.149-0.551c-0.056,1.213-0.662,2.425-1.653,3.142 M292.9,103.736
	c-0.496,0.22-0.938,0.441-1.435,0.716c-0.165,1.268-0.055,2.591,0.331,3.803c1.435-0.937,1.931-3.142,0.938-4.575 M282.592,187.738
	c-0.771-0.717-1.543-1.434-2.37-2.15c-0.22,0.883-0.439,1.765-0.716,2.646c0.938,0.883,2.646,0.605,3.308-0.496 M75.237,306.628
	c0.386-0.277,0.827-0.605,1.268-0.883c-1.652-0.992-3.692-1.213-5.512-0.717c1.378,0.496,2.756,0.992,4.134,1.488 M300.836,495.244
	c0.11-0.551,0-1.104-0.33-1.543c-1.157,0.496-1.765,2.039-1.213,3.195c0.331,0.33,0.883,0.441,1.323,0.275
	C300.892,496.566,300.947,495.904,300.836,495.244 M294.167,74.688c0.221-0.606-0.165-1.488-0.827-1.378
	c-0.386,1.488-0.386,3.087,0.057,4.52c1.103-0.441,0.991-1.984,0.717-3.087"/>
<path stroke="#000000" stroke-linecap="round" stroke-linejoin="round" d="M308.829,222.188c1.378,1.433,1.487,4.575-0.552,4.906
	c-0.826,0.165-1.653-0.276-2.37-0.717c-0.386-0.992,0.387-1.984,0.771-2.921c0.44-0.937,0-2.48-0.991-2.315
	C306.735,220.479,308.333,221.03,308.829,222.188"/>
</svg>
